<svg width="191" height="120" viewBox="0 0 191 120" fill="none" xmlns="http://www.w3.org/2000/svg">
<g opacity="0.2">
<path d="M73.9571 20.7C84.5433 26.8091 87.0021 34.906 76.211 41.1711C68.2298 45.7992 59.2633 45.6433 49.3893 44.8054L33.9247 43.4511L52.4725 54.1494L41.3301 60.6191L5.89319 40.1772L16.694 33.9122L49.9552 35.9096C55.1361 36.1921 59.0584 36.387 62.5123 34.5552C67.0493 32.1583 66.2687 29.1671 62.6684 27.0917C58.6583 24.7825 53.0677 24.8117 48.5307 27.3645L37.0469 20.7389C49.0088 13.7918 63.7124 14.7954 73.9571 20.7Z" fill="white"/>
<path d="M132.225 55.1043L122.049 61.0089L100.866 48.8002L92.534 51.8792C95.2952 52.191 98.5443 53.1946 102.349 55.3966C112.594 61.3012 113.121 69.4857 102.603 75.5851C91.051 82.2887 75.6546 81.2169 64.5806 74.8251C54.7554 69.1544 50.7063 60.6971 62.8731 53.633L74.1521 60.1417C69.7517 62.6945 69.8395 66.0852 74.2692 68.6478C78.6988 71.2103 84.9042 71.2006 89.6557 68.4431C94.4073 65.6857 94.7976 62.0222 90.2216 59.3817C85.6457 56.7412 79.9964 57.1504 77.5963 58.1443L66.5222 51.7623L101.832 37.5952L132.215 55.114L132.225 55.1043Z" fill="white"/>
<path d="M151.631 82.4889C142.899 87.5556 131.854 87.8771 124.312 83.5315C116.77 79.1859 117.287 72.7942 126.02 67.7275C134.752 62.6609 145.865 62.3004 153.407 66.646C160.949 70.9916 160.364 77.4223 151.631 82.4889ZM135.494 73.1839C132.742 74.7818 129.854 77.0131 132.703 78.65C135.552 80.2869 139.387 78.611 142.148 77.0131C144.909 75.4152 147.787 73.1839 144.948 71.547C142.109 69.9101 138.245 71.586 135.503 73.1839" fill="white"/>
<path d="M180.814 83.2458L190.854 89.0334L109.365 99.9656L99.2566 94.139L180.814 83.2458Z" fill="white"/>
<path d="M165.73 99.6149C173.272 103.96 172.696 110.391 163.964 115.458C155.232 120.524 144.187 120.846 136.645 116.5C129.103 112.155 129.61 105.763 138.352 100.696C147.094 95.6298 158.188 95.2693 165.73 99.6246V99.6149ZM145.036 111.629C147.875 113.266 151.719 111.59 154.48 109.992C157.242 108.394 160.11 106.163 157.271 104.526C154.432 102.889 150.578 104.565 147.826 106.153C145.075 107.741 142.187 109.982 145.036 111.619" fill="white"/>
</g>
<path d="M42.6765 11.7718L42.6375 25.2763L31.1439 18.6507L31.1829 5.14624L42.6765 11.7718Z" fill="#1D974F"/>
<mask id="mask0_1_777" style="mask-type:luminance" maskUnits="userSpaceOnUse" x="42" y="9" width="18" height="20">
<path d="M59.7901 15.26L59.7511 28.7645C59.7511 27.4004 58.6485 26.0753 56.7752 24.9937C52.7651 22.6845 47.1745 22.7138 42.6375 25.2666L42.6765 11.7621C47.2135 9.20926 52.8042 9.17029 56.8142 11.4892C58.6876 12.5708 59.7998 13.8959 59.7901 15.26Z" fill="white"/>
</mask>
<g mask="url(#mask0_1_777)">
<path d="M59.7901 15.26L59.7511 28.7645C59.7511 27.4004 58.6485 26.0753 56.7752 24.9937C52.7651 22.6845 47.1745 22.7138 42.6375 25.2666L42.6765 11.7621C47.2135 9.20926 52.8042 9.17029 56.8142 11.4892C58.6876 12.5708 59.7998 13.8959 59.7901 15.26Z" fill="#33B568"/>
</g>
<path d="M43.5254 29.2127L43.4864 42.7172L28.0315 41.3628L28.0705 27.8583L43.5254 29.2127Z" fill="#33B568"/>
<mask id="mask1_1_777" style="mask-type:luminance" maskUnits="userSpaceOnUse" x="43" y="16" width="35" height="28">
<path d="M77.3427 16.4682L77.3037 29.9727C77.3037 33.1491 75.1181 36.2962 70.3178 39.0829C62.3366 43.711 53.3701 43.5551 43.4961 42.7172L43.5351 29.2127C53.4091 30.0506 62.3757 30.2065 70.3568 25.5784C75.1572 22.7917 77.3329 19.6446 77.3427 16.4682Z" fill="white"/>
</mask>
<g mask="url(#mask1_1_777)">
<path d="M77.3427 16.4682L77.3037 29.9727C77.3037 33.1491 75.1181 36.2962 70.3178 39.0829C62.3366 43.711 53.3701 43.5551 43.4961 42.7172L43.5351 29.2127C53.4091 30.0506 62.3757 30.2065 70.3568 25.5784C75.1572 22.7917 77.3329 19.6446 77.3427 16.4682Z" fill="#33B568"/>
</g>
<path d="M46.6183 38.5567L46.5793 52.0612L35.437 58.5211L35.476 45.0166L46.6183 38.5567Z" fill="#33B568"/>
<path d="M35.476 45.0167L35.4369 58.5212L0 38.089L0.0390275 24.5845L35.476 45.0167Z" fill="#1D974F"/>
<path d="M68.103 5.11037C78.6892 11.2195 81.1479 19.3164 70.3568 25.5815C62.3757 30.2096 53.4091 30.0537 43.5352 29.2158L28.0706 27.8615L46.6184 38.5598L35.476 45.0295L0.0390625 24.5876L10.8399 18.3226L44.1011 20.32C49.282 20.6025 53.2042 20.7974 56.6582 18.9656C61.1951 16.5687 60.4146 13.5775 56.8143 11.5021C52.8042 9.1929 47.2135 9.22213 42.6766 11.7749L31.1927 5.14935C43.1547 -1.79777 57.8583 -0.794191 68.103 5.11037Z" fill="url(#paint0_linear_1_777)"/>
<path d="M95.0222 33.2076L94.9831 46.7023L86.6508 49.7813L86.6898 36.2768L95.0222 33.2076Z" fill="#27A65A"/>
<path d="M71.752 42.5418L71.713 56.0463L60.6389 49.6546L60.678 36.1599L71.752 42.5418Z" fill="#1D974F"/>
<path d="M116.195 45.4162L116.165 58.9207L94.9831 46.7023L95.0222 33.2076L116.195 45.4162Z" fill="#1D974F"/>
<path d="M126.371 39.5116L126.332 53.0161L116.165 58.9207L116.195 45.4162L126.371 39.5116Z" fill="#33B568"/>
<mask id="mask2_1_777" style="mask-type:luminance" maskUnits="userSpaceOnUse" x="71" y="41" width="17" height="21">
<path d="M87.5972 48.0274L87.5581 61.5319C87.5581 60.0217 86.5142 58.5407 84.3384 57.2837C79.9088 54.7309 74.1132 55.0525 71.713 56.0463L71.752 42.5418C74.162 41.548 79.9576 41.2264 84.3774 43.7792C86.5532 45.0362 87.5972 46.5172 87.5972 48.0274Z" fill="white"/>
</mask>
<g mask="url(#mask2_1_777)">
<path d="M87.5972 48.0274L87.5581 61.5319C87.5581 60.0217 86.5142 58.5407 84.3384 57.2837C79.9088 54.7309 74.1132 55.0525 71.713 56.0463L71.752 42.5418C74.162 41.548 79.9576 41.2264 84.3774 43.7792C86.5532 45.0362 87.5972 46.5172 87.5972 48.0274Z" fill="#26A258"/>
</g>
<mask id="mask3_1_777" style="mask-type:luminance" maskUnits="userSpaceOnUse" x="65" y="44" width="4" height="19">
<path d="M65.0198 62.2334L65.0588 48.729C65.0588 47.2577 66.1418 45.7962 68.3079 44.5392L68.2688 58.0437C66.1028 59.3006 65.0198 60.7719 65.0198 62.2334Z" fill="white"/>
</mask>
<g mask="url(#mask3_1_777)">
<path d="M68.3079 44.5392L68.2688 58.0437C66.1028 59.3006 65.0198 60.7719 65.0198 62.2334L65.0588 48.729C65.0588 47.2577 66.1418 45.7962 68.3079 44.5392Z" fill="#26A258"/>
</g>
<mask id="mask4_1_777" style="mask-type:luminance" maskUnits="userSpaceOnUse" x="49" y="47" width="56" height="32">
<path d="M104.428 50.0346L104.389 63.5391C104.379 67.0175 101.881 70.4959 96.7296 73.4872C85.1775 80.1907 69.7811 79.1189 58.7071 72.7272C53.1554 69.5313 49.4576 65.439 49.4673 61.2104L49.5064 47.7059C49.4966 51.9346 53.2042 56.0171 58.7461 59.2227C69.8202 65.6047 85.2165 66.6862 96.7686 59.9827C101.92 56.9914 104.418 53.5033 104.428 50.0346Z" fill="white"/>
</mask>
<g mask="url(#mask4_1_777)">
<path d="M104.428 50.0346L104.389 63.5391C104.379 67.0175 101.881 70.4959 96.7296 73.4872C85.1775 80.1907 69.7811 79.1189 58.7071 72.7272C53.1554 69.5313 49.4576 65.439 49.4673 61.2104L49.5064 47.7059C49.4966 51.9346 53.2042 56.0171 58.7461 59.2227C69.8202 65.6047 85.2165 66.6862 96.7686 59.9827C101.92 56.9914 104.418 53.5033 104.428 50.0346Z" fill="#33B568"/>
</g>
<path d="M126.371 39.5147L116.195 45.4193L95.0124 33.2106L86.68 36.2896C89.4412 36.6014 92.6902 37.605 96.4954 39.807C106.74 45.7116 107.267 53.8961 96.7491 59.9955C85.1969 66.6991 69.8006 65.6273 58.7266 59.2355C48.9014 53.5648 44.8523 45.1075 57.0191 38.0434L68.298 44.5521C63.8977 47.1049 63.9855 50.4956 68.4151 53.0582C72.8447 55.6207 79.0501 55.611 83.8017 52.8535C88.5533 50.0961 88.9436 46.4326 84.3676 43.7921C79.7916 41.1516 74.1424 41.5608 71.7422 42.5547L60.6682 36.1727L95.9783 22.0056L126.361 39.5244L126.371 39.5147Z" fill="url(#paint1_linear_1_777)"/>
<mask id="mask5_1_777" style="mask-type:luminance" maskUnits="userSpaceOnUse" x="129" y="55" width="12" height="16">
<path d="M140.265 57.3812L140.226 70.8857C140.226 70.34 139.884 69.8041 139.065 69.3364C136.225 67.6995 132.362 69.3754 129.62 70.9733L129.659 57.4688C132.41 55.8709 136.264 54.195 139.104 55.8319C139.933 56.3094 140.275 56.8355 140.265 57.3812Z" fill="white"/>
</mask>
<g mask="url(#mask5_1_777)">
<path d="M140.265 57.3812L140.226 70.8857C140.226 70.34 139.884 69.8041 139.065 69.3364C136.225 67.6995 132.362 69.3754 129.62 70.9733L129.659 57.4688C132.41 55.8709 136.264 54.195 139.104 55.8319C139.933 56.3094 140.275 56.8355 140.265 57.3812Z" fill="#36D068"/>
</g>
<mask id="mask6_1_777" style="mask-type:luminance" maskUnits="userSpaceOnUse" x="125" y="57" width="5" height="18">
<path d="M125.649 74.8805L125.688 61.376C125.688 60.0412 127.708 58.5991 129.649 57.4689L129.61 70.9734C127.659 72.1036 125.649 73.5554 125.649 74.8805Z" fill="white"/>
</mask>
<g mask="url(#mask6_1_777)">
<path d="M129.649 57.4689L129.61 70.9734C127.659 72.1036 125.649 73.5554 125.649 74.8805L125.688 61.376C125.688 60.0412 127.708 58.5991 129.649 57.4689Z" fill="#36D068"/>
</g>
<mask id="mask7_1_777" style="mask-type:luminance" maskUnits="userSpaceOnUse" x="145" y="57" width="8" height="24">
<path d="M152.802 57.9853L152.763 71.4898C152.763 74.4518 150.412 77.56 145.738 80.2687L145.777 66.7642C150.451 64.0555 152.793 60.9473 152.802 57.9853Z" fill="white"/>
</mask>
<g mask="url(#mask7_1_777)">
<path d="M152.802 57.9853L152.763 71.4898C152.763 74.4518 150.412 77.56 145.738 80.2687L145.777 66.7642C150.451 64.0555 152.793 60.9473 152.802 57.9853Z" fill="#33B568"/>
</g>
<mask id="mask8_1_777" style="mask-type:luminance" maskUnits="userSpaceOnUse" x="113" y="60" width="33" height="25">
<path d="M113.111 74.2277L113.15 60.7232C113.15 63.2955 114.907 65.7606 118.458 67.8067C126 72.1523 137.045 71.8405 145.777 66.7642L145.738 80.2687C137.006 85.3353 125.961 85.6568 118.419 81.3112C114.868 79.2651 113.102 76.8 113.111 74.2277Z" fill="white"/>
</mask>
<g mask="url(#mask8_1_777)">
<path d="M145.777 66.7642L145.738 80.2687C137.006 85.3353 125.961 85.6568 118.419 81.3112C114.868 79.2651 113.102 76.8 113.111 74.2277L113.15 60.7232C113.15 63.2955 114.907 65.7606 118.458 67.8067C126 72.1523 137.045 71.8405 145.777 66.7642Z" fill="#33B568"/>
</g>
<path d="M103.511 84.244L103.481 97.7485L93.3635 91.9219L93.4025 78.4174L103.511 84.244Z" fill="#1D974F"/>
<path d="M185 73.3118L184.961 86.8163L103.481 97.7485L103.511 84.244L185 73.3118Z" fill="#33B568"/>
<mask id="mask9_1_777" style="mask-type:luminance" maskUnits="userSpaceOnUse" x="137" y="88" width="16" height="20">
<path d="M152.588 90.3532L152.549 103.858C152.549 103.312 152.207 102.776 151.378 102.299C148.539 100.662 144.685 102.338 141.933 103.926C139.982 105.056 137.972 106.508 137.972 107.833L138.011 94.3285C138.011 92.9936 140.031 91.5516 141.972 90.4214C144.724 88.8234 148.578 87.1573 151.417 88.7942C152.246 89.2716 152.588 89.7978 152.588 90.3532Z" fill="white"/>
</mask>
<g mask="url(#mask9_1_777)">
<path d="M152.588 90.3532L152.549 103.858C152.549 103.312 152.207 102.776 151.378 102.299C148.539 100.662 144.685 102.338 141.933 103.926C139.982 105.056 137.972 106.508 137.972 107.833L138.011 94.3285C138.011 92.9936 140.031 91.5516 141.972 90.4214C144.724 88.8234 148.578 87.1573 151.417 88.7942C152.246 89.2716 152.588 89.7978 152.588 90.3532Z" fill="#36D068"/>
</g>
<mask id="mask10_1_777" style="mask-type:luminance" maskUnits="userSpaceOnUse" x="125" y="90" width="41" height="28">
<path d="M165.135 90.9573L165.096 104.462C165.096 107.424 162.754 110.522 158.081 113.241C149.339 118.307 138.304 118.629 130.762 114.283C127.21 112.237 125.444 109.772 125.454 107.2L125.493 93.6952C125.493 96.2675 127.259 98.7326 130.801 100.779C138.343 105.124 149.387 104.813 158.12 99.7362C162.793 97.0275 165.135 93.929 165.135 90.9573Z" fill="white"/>
</mask>
<g mask="url(#mask10_1_777)">
<path d="M165.135 90.9573L165.096 104.462C165.096 107.424 162.754 110.522 158.081 113.241C149.339 118.307 138.304 118.629 130.762 114.283C127.21 112.237 125.444 109.772 125.454 107.2L125.493 93.6952C125.493 96.2675 127.259 98.7326 130.801 100.779C138.343 105.124 149.387 104.813 158.12 99.7362C162.793 97.0275 165.135 93.929 165.135 90.9573Z" fill="#33B568"/>
</g>
<path d="M145.777 66.8993C137.045 71.966 126 72.2875 118.458 67.9419C110.916 63.5963 111.433 57.2046 120.166 52.1379C128.898 47.0713 140.011 46.7108 147.553 51.0564C155.095 55.402 154.51 61.8327 145.777 66.8993ZM129.64 57.5943C126.888 59.1922 124 61.4235 126.849 63.0604C129.698 64.6973 133.533 63.0214 136.294 61.4235C139.055 59.8256 141.933 57.5943 139.094 55.9574C136.255 54.3205 132.391 55.9964 129.649 57.5943" fill="url(#paint2_linear_1_777)"/>
<path d="M174.96 67.6562L185 73.4438L103.511 84.376L93.4026 78.5494L174.96 67.6562Z" fill="url(#paint3_linear_1_777)"/>
<path d="M159.876 84.0253C167.418 88.3709 166.842 94.8017 158.11 99.8683C149.378 104.935 138.333 105.256 130.791 100.911C123.249 96.5652 123.756 90.1735 132.498 85.1069C141.24 80.0403 152.334 79.6797 159.876 84.0351V84.0253ZM139.182 96.0391C142.021 97.676 145.865 96.0001 148.626 94.4022C151.388 92.8042 154.256 90.573 151.417 88.9361C148.578 87.2992 144.724 88.975 141.972 90.5632C139.221 92.1514 136.333 94.3924 139.182 96.0293" fill="url(#paint4_linear_1_777)"/>
<path d="M161.268 43.1038C161.268 43.1038 160.025 47.9332 160.036 49.0975C160.048 50.2617 159.283 52.444 162.431 53.7205C162.431 53.7205 166.089 55.047 167.092 55.1593C167.092 55.1593 163.244 54.2227 162.186 54.2236C161.128 54.2245 159.027 53.9551 157.629 58.2918L156.299 63.0555C156.299 63.0555 157.477 58.0088 157.543 56.9832C157.609 55.9577 158.192 53.5158 154.87 52.3159L150.73 51.0496C150.73 51.0496 154.079 51.9841 156.101 51.9446C158.123 51.9051 159.603 49.6024 161.268 43.1038Z" fill="#33B568" stroke="#33B568" stroke-width="0.277825" stroke-miterlimit="10"/>
<path d="M37.0759 66.9863C37.0759 66.9863 36.5089 69.1891 36.5141 69.7202C36.5192 70.2512 36.1704 71.2466 37.6062 71.8288C37.6062 71.8288 39.2747 72.4338 39.7323 72.4851C39.7323 72.4851 37.9772 72.0579 37.4945 72.0583C37.0119 72.0587 36.0537 71.9358 35.4161 73.9139L34.8095 76.0867C34.8095 76.0867 35.3466 73.7848 35.3768 73.317C35.4071 72.8493 35.6728 71.7355 34.1575 71.1882L32.2693 70.6106C32.2693 70.6106 33.7967 71.0368 34.719 71.0188C35.6412 71.0008 36.3162 69.9505 37.0759 66.9863Z" fill="#33B568" stroke="#33B568" stroke-width="0.277825" stroke-miterlimit="10"/>
<ellipse cx="19.5954" cy="7.26592" rx="1.05735" ry="1.0559" fill="#33B568"/>
<ellipse cx="169.075" cy="107.586" rx="1.70864" ry="1.7063" fill="#33B568"/>
<ellipse cx="100.535" cy="3.25676" rx="2.9571" ry="2.95305" fill="#33B568"/>
<defs>
<linearGradient id="paint0_linear_1_777" x1="38.691" y1="0.303711" x2="38.691" y2="45.0295" gradientUnits="userSpaceOnUse">
<stop offset="0.34375" stop-color="#D4F93A"/>
<stop offset="1" stop-color="#3CC161"/>
</linearGradient>
<linearGradient id="paint1_linear_1_777" x1="87.9292" y1="22.0056" x2="87.9292" y2="64.5502" gradientUnits="userSpaceOnUse">
<stop offset="0.34375" stop-color="#D4F93A"/>
<stop offset="1" stop-color="#3CC161"/>
</linearGradient>
<linearGradient id="paint2_linear_1_777" x1="132.99" y1="48.0469" x2="132.99" y2="70.9687" gradientUnits="userSpaceOnUse">
<stop offset="0.34375" stop-color="#D4F93A"/>
<stop offset="1" stop-color="#3CC161"/>
</linearGradient>
<linearGradient id="paint3_linear_1_777" x1="139.201" y1="67.6562" x2="139.201" y2="84.376" gradientUnits="userSpaceOnUse">
<stop offset="0.34375" stop-color="#D4F93A"/>
<stop offset="1" stop-color="#3CC161"/>
</linearGradient>
<linearGradient id="paint4_linear_1_777" x1="145.319" y1="81.0173" x2="145.319" y2="103.938" gradientUnits="userSpaceOnUse">
<stop offset="0.34375" stop-color="#D4F93A"/>
<stop offset="1" stop-color="#3CC161"/>
</linearGradient>
</defs>
</svg>
