<svg width="184" height="44" viewBox="0 0 184 44" fill="none" xmlns="http://www.w3.org/2000/svg">
<g clip-path="url(#clip0_1_359)">
<path d="M63.1726 0.0961914H67.1869V34.245H63.711L63.1726 30.244C61.5078 32.5362 58.816 34.5367 54.6085 34.5367C47.7065 34.5367 42.6183 29.9028 42.6183 21.8045C42.6183 14.1933 47.7092 9.0723 54.6085 9.0723C58.8188 9.0723 61.6569 10.7811 63.1726 13.1696V0.0961914ZM63.2223 21.9008C63.2223 16.4359 59.8928 12.633 55.0006 12.633C50.1084 12.633 46.7292 16.3891 46.7292 21.8045C46.7292 27.2199 50.0559 30.976 55.0006 30.976C59.9452 30.976 63.2223 27.2199 63.2223 21.9036V21.9008Z" fill="#0E0E0F"/>
<path d="M68.1633 21.8045C68.1633 14.2427 72.9589 9.07227 80.0073 9.07227C87.0557 9.07227 91.6552 13.5108 91.8512 20.8771C91.8512 21.4137 91.8015 21.9998 91.7546 22.5832H72.3736V22.9244C72.5199 27.6574 75.5071 30.9732 80.253 30.9732C83.7758 30.9732 86.5173 29.1185 87.3511 25.899H91.4122C90.4321 30.8741 86.3213 34.5339 80.5456 34.5339C73.0583 34.5339 68.1633 29.413 68.1633 21.8017V21.8045ZM87.5443 19.2674C87.1523 14.9747 84.2175 12.5835 80.057 12.5835C76.3851 12.5835 73.0086 15.2169 72.6165 19.2674H87.5443Z" fill="#0E0E0F"/>
<path d="M115.149 20.3896V34.2445H111.135V20.6345C111.135 15.464 108.736 12.7316 104.382 12.7316C99.6832 12.7316 96.8451 16.196 96.8451 21.804V34.2445H92.8309V9.36621H96.3068L96.8451 12.7316C98.3139 10.8301 100.859 9.07178 105.067 9.07178C110.696 9.07178 115.149 12.1454 115.149 20.3896Z" fill="#0E0E0F"/>
<path d="M119.751 26.0497C119.897 28.9775 122.492 31.1239 126.653 31.1239C130.176 31.1239 132.672 29.6104 132.672 27.3182C132.672 24.195 129.93 23.9529 126.211 23.5126C120.632 22.8302 116.179 21.7075 116.179 16.537C116.179 11.9994 120.339 9.02481 125.968 9.07434C131.645 9.12387 135.758 11.7573 136.148 16.9277H132.037C131.744 14.3907 129.395 12.4892 125.968 12.4892C122.542 12.4892 120.143 13.9531 120.143 16.2453C120.143 18.9778 122.785 19.319 126.407 19.7565C132.084 20.4389 136.636 21.5121 136.636 27.0238C136.636 31.6577 132.183 34.536 126.653 34.536C120.193 34.536 115.74 31.5119 115.64 26.0469H119.751V26.0497Z" fill="#0E0E0F"/>
<path d="M138.89 2.58662C138.89 1.07317 140.016 0 141.485 0C142.954 0 144.08 1.07317 144.08 2.58662C144.08 4.10006 142.954 5.17323 141.485 5.17323C140.016 5.17323 138.89 4.10006 138.89 2.58662ZM139.428 9.36685H143.442V34.2451H139.428V9.36685Z" fill="#0E0E0F"/>
<path d="M149.115 13.0247H144.612V9.36495H149.115V2.39209H153.129V9.3677H159.589V13.0275H153.129V27.7107C153.129 29.8075 153.863 30.589 156.017 30.589H159.981V34.2488H155.625C150.829 34.2488 149.115 32.1519 149.115 27.7602V13.0247Z" fill="#0E0E0F"/>
<path d="M160.278 9.36719H164.535L172.218 29.2208L179.659 9.36719H183.916L172.414 38.4419C170.849 42.4429 169.918 44.0031 166.396 44.0031H161.6V40.3433H165.172C167.472 40.3433 167.864 39.7572 168.795 37.4155L170.018 34.3913L160.278 9.36719Z" fill="#0E0E0F"/>
<path d="M3.8417 5.90283H1.08639C0.85463 5.90283 0.666748 6.09009 0.666748 6.32109V9.06731C0.666748 9.29831 0.85463 9.48557 1.08639 9.48557H3.8417C4.07346 9.48557 4.26134 9.29831 4.26134 9.06731V6.32109C4.26134 6.09009 4.07346 5.90283 3.8417 5.90283Z" fill="#0E0E0F"/>
<path d="M8.81232 5.90283H6.13156C5.89965 5.90283 5.71191 6.08995 5.71191 6.32109V9.06731C5.71191 9.29845 5.89965 9.48557 6.13156 9.48557H8.81232C9.08564 9.48557 9.30651 9.26543 9.30651 8.99301V6.39814C9.30651 6.12572 9.08564 5.90558 8.81232 5.90558V5.90283Z" fill="#0E0E0F"/>
<path d="M13.9249 5.90283H11.1696C10.9379 5.90283 10.75 6.09009 10.75 6.32109V9.06731C10.75 9.29831 10.9379 9.48557 11.1696 9.48557H13.9249C14.1567 9.48557 14.3446 9.29831 14.3446 9.06731V6.32109C14.3446 6.09009 14.1567 5.90283 13.9249 5.90283Z" fill="#0E0E0F"/>
<path d="M18.9702 5.90283H16.2149C15.9832 5.90283 15.7953 6.09009 15.7953 6.32109V9.06731C15.7953 9.29831 15.9832 9.48557 16.2149 9.48557H18.9702C19.202 9.48557 19.3899 9.29831 19.3899 9.06731V6.32109C19.3899 6.09009 19.202 5.90283 18.9702 5.90283Z" fill="#0E0E0F"/>
<path d="M24.0298 10.8979H21.2745C21.0427 10.8979 20.8549 11.0852 20.8549 11.3162V14.0624C20.8549 14.2934 21.0427 14.4807 21.2745 14.4807H24.0298C24.2616 14.4807 24.4495 14.2934 24.4495 14.0624V11.3162C24.4495 11.0852 24.2616 10.8979 24.0298 10.8979Z" fill="#0E0E0F"/>
<path d="M18.9702 10.8979H16.2149C15.9832 10.8979 15.7953 11.0852 15.7953 11.3162V14.0624C15.7953 14.2934 15.9832 14.4807 16.2149 14.4807H18.9702C19.202 14.4807 19.3899 14.2934 19.3899 14.0624V11.3162C19.3899 11.0852 19.202 10.8979 18.9702 10.8979Z" fill="#0E0E0F"/>
<path d="M13.9249 10.8979H11.1696C10.9379 10.8979 10.75 11.0852 10.75 11.3162V14.0624C10.75 14.2934 10.9379 14.4807 11.1696 14.4807H13.9249C14.1567 14.4807 14.3446 14.2934 14.3446 14.0624V11.3162C14.3446 11.0852 14.1567 10.8979 13.9249 10.8979Z" fill="#0E0E0F"/>
<path d="M8.88686 10.8973H6.2061C5.93278 10.8973 5.71191 11.1174 5.71191 11.3898V13.9847C5.71191 14.2571 5.93278 14.4773 6.2061 14.4773H8.88686C9.11877 14.4773 9.30651 14.2902 9.30651 14.059V11.3128C9.30651 11.0816 9.11877 10.8945 8.88686 10.8945V10.8973Z" fill="#0E0E0F"/>
<path d="M3.84164 10.8979H1.08633C0.854569 10.8979 0.666687 11.0852 0.666687 11.3162V14.0624C0.666687 14.2934 0.854569 14.4807 1.08633 14.4807H3.84164C4.0734 14.4807 4.26128 14.2934 4.26128 14.0624V11.3162C4.26128 11.0852 4.0734 10.8979 3.84164 10.8979Z" fill="#0E0E0F"/>
<path d="M3.76667 15.8916H1.16045C0.887515 15.8916 0.66626 16.1121 0.66626 16.3842V18.9818C0.66626 19.2538 0.887515 19.4743 1.16045 19.4743H3.76667C4.0396 19.4743 4.26085 19.2538 4.26085 18.9818V16.3842C4.26085 16.1121 4.0396 15.8916 3.76667 15.8916Z" fill="#0E0E0F"/>
<path d="M8.88686 15.8924H6.2061C5.93278 15.8924 5.71191 16.1125 5.71191 16.385V18.9798C5.71191 19.2522 5.93278 19.4724 6.2061 19.4724H8.88686C9.11877 19.4724 9.30651 19.2853 9.30651 19.0541V16.3079C9.30651 16.0768 9.11877 15.8896 8.88686 15.8896V15.8924Z" fill="#0E0E0F"/>
<path d="M13.9249 15.8911H11.1696C10.9379 15.8911 10.75 16.0784 10.75 16.3094V19.0556C10.75 19.2866 10.9379 19.4739 11.1696 19.4739H13.9249C14.1567 19.4739 14.3446 19.2866 14.3446 19.0556V16.3094C14.3446 16.0784 14.1567 15.8911 13.9249 15.8911Z" fill="#0E0E0F"/>
<path d="M18.9702 15.8916H16.2149C15.9832 15.8916 15.7953 16.0789 15.7953 16.3099V19.0561C15.7953 19.2871 15.9832 19.4743 16.2149 19.4743H18.9702C19.202 19.4743 19.3899 19.2871 19.3899 19.0561V16.3099C19.3899 16.0789 19.202 15.8916 18.9702 15.8916Z" fill="#0E0E0F"/>
<path d="M24.0298 15.8911H21.2745C21.0427 15.8911 20.8549 16.0784 20.8549 16.3094V19.0556C20.8549 19.2866 21.0427 19.4739 21.2745 19.4739H24.0298C24.2616 19.4739 24.4495 19.2866 24.4495 19.0556V16.3094C24.4495 16.0784 24.2616 15.8911 24.0298 15.8911Z" fill="#0E0E0F"/>
<path d="M29.0715 15.8911H26.3162C26.0844 15.8911 25.8965 16.0784 25.8965 16.3094V19.0556C25.8965 19.2866 26.0844 19.4739 26.3162 19.4739H29.0715C29.3033 19.4739 29.4911 19.2866 29.4911 19.0556V16.3094C29.4911 16.0784 29.3033 15.8911 29.0715 15.8911Z" fill="#0E0E0F"/>
<path d="M29.0715 20.8862H26.3162C26.0844 20.8862 25.8965 21.0735 25.8965 21.3045V24.0507C25.8965 24.2817 26.0844 24.469 26.3162 24.469H29.0715C29.3033 24.469 29.4911 24.2817 29.4911 24.0507V21.3045C29.4911 21.0735 29.3033 20.8862 29.0715 20.8862Z" fill="#0E0E0F"/>
<path d="M24.0298 20.8862H21.2745C21.0427 20.8862 20.8549 21.0735 20.8549 21.3045V24.0507C20.8549 24.2817 21.0427 24.469 21.2745 24.469H24.0298C24.2616 24.469 24.4495 24.2817 24.4495 24.0507V21.3045C24.4495 21.0735 24.2616 20.8862 24.0298 20.8862Z" fill="#0E0E0F"/>
<path d="M18.9702 20.8862H16.2149C15.9832 20.8862 15.7953 21.0735 15.7953 21.3045V24.0507C15.7953 24.2817 15.9832 24.469 16.2149 24.469H18.9702C19.202 24.469 19.3899 24.2817 19.3899 24.0507V21.3045C19.3899 21.0735 19.202 20.8862 18.9702 20.8862Z" fill="#0E0E0F"/>
<path d="M13.9249 20.8862H11.1696C10.9379 20.8862 10.75 21.0735 10.75 21.3045V24.0507C10.75 24.2817 10.9379 24.469 11.1696 24.469H13.9249C14.1567 24.469 14.3446 24.2817 14.3446 24.0507V21.3045C14.3446 21.0735 14.1567 20.8862 13.9249 20.8862Z" fill="#0E0E0F"/>
<path d="M8.88686 20.8856H6.2061C5.93278 20.8856 5.71191 21.1057 5.71191 21.3781V23.973C5.71191 24.2454 5.93278 24.4656 6.2061 24.4656H8.88686C9.11877 24.4656 9.30651 24.2784 9.30651 24.0473V21.3011C9.30651 21.0699 9.11877 20.8828 8.88686 20.8828V20.8856Z" fill="#0E0E0F"/>
<path d="M3.84164 20.8862H1.08633C0.854569 20.8862 0.666687 21.0735 0.666687 21.3045V24.0507C0.666687 24.2817 0.854569 24.469 1.08633 24.469H3.84164C4.0734 24.469 4.26128 24.2817 4.26128 24.0507V21.3045C4.26128 21.0735 4.0734 20.8862 3.84164 20.8862Z" fill="#0E0E0F"/>
<path d="M3.84121 25.8799H1.08591C0.854141 25.8799 0.66626 26.0671 0.66626 26.2981V29.0444C0.66626 29.2754 0.854141 29.4626 1.08591 29.4626H3.84121C4.07297 29.4626 4.26085 29.2754 4.26085 29.0444V26.2981C4.26085 26.0671 4.07297 25.8799 3.84121 25.8799Z" fill="#0E0E0F"/>
<path d="M8.81173 25.8699H6.13097C5.85765 25.8699 5.63678 26.0901 5.63678 26.3625V28.9574C5.63678 29.2298 5.85765 29.4499 6.13097 29.4499H8.81173C9.04364 29.4499 9.23137 29.2628 9.23137 29.0317V26.2854C9.23137 26.0543 9.04364 25.8672 8.81173 25.8672V25.8699Z" fill="#0E0E0F"/>
<path d="M13.9249 25.8799H11.1696C10.9379 25.8799 10.75 26.0671 10.75 26.2981V29.0444C10.75 29.2754 10.9379 29.4626 11.1696 29.4626H13.9249C14.1567 29.4626 14.3446 29.2754 14.3446 29.0444V26.2981C14.3446 26.0671 14.1567 25.8799 13.9249 25.8799Z" fill="#0E0E0F"/>
<path d="M18.9702 25.8799H16.2149C15.9832 25.8799 15.7953 26.0671 15.7953 26.2981V29.0444C15.7953 29.2754 15.9832 29.4626 16.2149 29.4626H18.9702C19.202 29.4626 19.3899 29.2754 19.3899 29.0444V26.2981C19.3899 26.0671 19.202 25.8799 18.9702 25.8799Z" fill="#0E0E0F"/>
<path d="M24.0298 25.8799H21.2745C21.0427 25.8799 20.8549 26.0671 20.8549 26.2981V29.0444C20.8549 29.2754 21.0427 29.4626 21.2745 29.4626H24.0298C24.2616 29.4626 24.4495 29.2754 24.4495 29.0444V26.2981C24.4495 26.0671 24.2616 25.8799 24.0298 25.8799Z" fill="#0E0E0F"/>
<path d="M18.9702 30.8711H16.2149C15.9832 30.8711 15.7953 31.0584 15.7953 31.2894V34.0356C15.7953 34.2666 15.9832 34.4538 16.2149 34.4538H18.9702C19.202 34.4538 19.3899 34.2666 19.3899 34.0356V31.2894C19.3899 31.0584 19.202 30.8711 18.9702 30.8711Z" fill="#0E0E0F"/>
<path d="M13.9249 30.8711H11.1696C10.9379 30.8711 10.75 31.0584 10.75 31.2894V34.0356C10.75 34.2666 10.9379 34.4538 11.1696 34.4538H13.9249C14.1567 34.4538 14.3446 34.2666 14.3446 34.0356V31.2894C14.3446 31.0584 14.1567 30.8711 13.9249 30.8711Z" fill="#0E0E0F"/>
<path d="M8.88686 30.8724H6.2061C5.93278 30.8724 5.71191 31.0925 5.71191 31.3649V33.9598C5.71191 34.2322 5.93278 34.4524 6.2061 34.4524H8.88686C9.11877 34.4524 9.30651 34.2653 9.30651 34.0341V31.2879C9.30651 31.0567 9.11877 30.8696 8.88686 30.8696V30.8724Z" fill="#0E0E0F"/>
<path d="M3.84164 30.8711H1.08633C0.854569 30.8711 0.666687 31.0584 0.666687 31.2894V34.0356C0.666687 34.2666 0.854569 34.4538 1.08633 34.4538H3.84164C4.0734 34.4538 4.26128 34.2666 4.26128 34.0356V31.2894C4.26128 31.0584 4.0734 30.8711 3.84164 30.8711Z" fill="#0E0E0F"/>
</g>
<defs>
<clipPath id="clip0_1_359">
<rect width="183.247" height="44" fill="white" transform="translate(0.666626)"/>
</clipPath>
</defs>
</svg>
