<svg width="285" height="239" viewBox="0 0 285 239" fill="none" xmlns="http://www.w3.org/2000/svg">
<g opacity="0.1" clip-path="url(#clip0_1_218)">
<path d="M267.661 0H282.126C283.344 0 284.332 0.927187 284.332 2.07093V15.6452C284.332 16.789 283.344 17.7162 282.126 17.7162H267.661C266.442 17.7162 265.454 16.789 265.454 15.6452V2.07093C265.454 0.927187 266.442 0 267.661 0Z" fill="#818181"/>
<path d="M255.645 0H241.577C240.138 0 238.974 1.09209 238.974 2.44305V15.2812C238.974 16.6241 240.138 17.7242 241.577 17.7242H255.645C256.86 17.7242 257.852 16.7939 257.852 15.6533V2.07093C257.852 0.9303 256.86 0 255.645 0Z" fill="#818181"/>
<path d="M188.228 0H202.692C203.911 0 204.899 0.927187 204.899 2.07093V15.6452C204.899 16.789 203.911 17.7162 202.692 17.7162H188.228C187.009 17.7162 186.021 16.789 186.021 15.6452V2.07093C186.021 0.927187 187.009 0 188.228 0Z" fill="#818181"/>
<path d="M176.151 42.397H161.687C160.468 42.397 159.48 41.4698 159.48 40.326V26.7517C159.48 25.608 160.468 24.6808 161.687 24.6808L176.151 24.6808C177.37 24.6808 178.358 25.608 178.358 26.7517V40.326C178.358 41.4698 177.37 42.397 176.151 42.397Z" fill="#818181"/>
<path d="M135.197 0H149.661C150.88 0 151.868 0.927187 151.868 2.07093V15.6452C151.868 16.789 150.88 17.7162 149.661 17.7162H135.197C133.978 17.7162 132.99 16.789 132.99 15.6452V2.07093C132.99 0.927187 133.978 0 135.197 0Z" fill="#818181"/>
<path d="M149.662 42.397H135.198C133.979 42.397 132.991 41.4698 132.991 40.326V26.7517C132.991 25.608 133.979 24.6808 135.198 24.6808L149.662 24.6808C150.881 24.6808 151.869 25.608 151.869 26.7517V40.326C151.869 41.4698 150.881 42.397 149.662 42.397Z" fill="#818181"/>
<path d="M229.181 42.397H214.717C213.498 42.397 212.51 41.4698 212.51 40.326V26.7517C212.51 25.608 213.498 24.6808 214.717 24.6808L229.181 24.6808C230.4 24.6808 231.388 25.608 231.388 26.7517V40.326C231.388 41.4698 230.4 42.397 229.181 42.397Z" fill="#818181"/>
<path d="M241.172 42.397H255.24C256.671 42.397 257.843 41.3049 257.843 39.9539V27.1158C257.843 25.7729 256.679 24.6727 255.24 24.6727L241.172 24.6727C239.956 24.6727 238.965 25.603 238.965 26.7437V40.318C238.965 41.4586 239.956 42.3889 241.172 42.3889V42.397Z" fill="#818181"/>
<path d="M214.708 49.3711H229.173C230.392 49.3711 231.38 50.2983 231.38 51.442V65.0163C231.38 66.1601 230.392 67.0872 229.173 67.0872H214.708C213.49 67.0872 212.502 66.1601 212.502 65.0163V51.442C212.502 50.2983 213.49 49.3711 214.708 49.3711Z" fill="#818181"/>
<path d="M188.228 49.3711H202.692C203.911 49.3711 204.899 50.2983 204.899 51.442V65.0163C204.899 66.1601 203.911 67.0872 202.692 67.0872H188.228C187.009 67.0872 186.021 66.1601 186.021 65.0163V51.442C186.021 50.2983 187.009 49.3711 188.228 49.3711Z" fill="#818181"/>
<path d="M176.151 91.7681H161.687C160.468 91.7681 159.48 90.8409 159.48 89.6971V76.1228C159.48 74.9791 160.468 74.0519 161.687 74.0519H176.151C177.37 74.0519 178.358 74.9791 178.358 76.1228V89.6971C178.358 90.8409 177.37 91.7681 176.151 91.7681Z" fill="#818181"/>
<path d="M202.692 91.7681H188.227C187.009 91.7681 186.021 90.8409 186.021 89.6971V76.1228C186.021 74.9791 187.009 74.0519 188.227 74.0519H202.692C203.911 74.0519 204.899 74.9791 204.899 76.1228V89.6971C204.899 90.8409 203.911 91.7681 202.692 91.7681Z" fill="#818181"/>
<path d="M241.172 91.7681H255.24C256.671 91.7681 257.843 90.676 257.843 89.325V76.4869C257.843 75.144 256.679 74.0438 255.24 74.0438H241.172C239.956 74.0438 238.965 74.9741 238.965 76.1148V89.689C238.965 90.8297 239.956 91.76 241.172 91.76V91.7681Z" fill="#818181"/>
<path d="M282.126 91.7681H267.661C266.443 91.7681 265.455 90.8409 265.455 89.6971V76.1228C265.455 74.9791 266.443 74.0519 267.661 74.0519H282.126C283.345 74.0519 284.333 74.9791 284.333 76.1228V89.6971C284.333 90.8409 283.345 91.7681 282.126 91.7681Z" fill="#818181"/>
<path d="M255.248 98.741H241.181C239.965 98.741 238.974 99.6713 238.974 100.812V114.386C238.974 115.527 239.965 116.457 241.181 116.457H255.248C256.679 116.457 257.852 115.365 257.852 114.014V101.176C257.852 99.8331 256.688 98.7329 255.248 98.7329V98.741Z" fill="#818181"/>
<path d="M214.708 98.7412H229.173C230.392 98.7412 231.38 99.6684 231.38 100.812V114.386C231.38 115.53 230.392 116.457 229.173 116.457H214.708C213.49 116.457 212.502 115.53 212.502 114.386V100.812C212.502 99.6684 213.49 98.7412 214.708 98.7412Z" fill="#818181"/>
<path d="M188.228 98.7412H202.692C203.911 98.7412 204.899 99.6684 204.899 100.812V114.386C204.899 115.53 203.911 116.457 202.692 116.457H188.228C187.009 116.457 186.021 115.53 186.021 114.386V100.812C186.021 99.6684 187.009 98.7412 188.228 98.7412Z" fill="#818181"/>
<path d="M161.677 98.7412H176.142C177.361 98.7412 178.349 99.6684 178.349 100.812V114.386C178.349 115.53 177.361 116.457 176.142 116.457H161.677C160.459 116.457 159.471 115.53 159.471 114.386V100.812C159.471 99.6684 160.459 98.7412 161.677 98.7412Z" fill="#818181"/>
<path d="M135.197 98.7412H149.661C150.88 98.7412 151.868 99.6684 151.868 100.812V114.386C151.868 115.53 150.88 116.457 149.661 116.457H135.197C133.978 116.457 132.99 115.53 132.99 114.386V100.812C132.99 99.6684 133.978 98.7412 135.197 98.7412Z" fill="#818181"/>
<path d="M202.692 141.146H188.227C187.009 141.146 186.021 140.219 186.021 139.076V125.501C186.021 124.358 187.009 123.43 188.227 123.43H202.692C203.911 123.43 204.899 124.358 204.899 125.501V139.076C204.899 140.219 203.911 141.146 202.692 141.146Z" fill="#818181"/>
<path d="M229.181 141.146H214.717C213.498 141.146 212.51 140.219 212.51 139.076V125.501C212.51 124.358 213.498 123.43 214.717 123.43H229.181C230.4 123.43 231.388 124.358 231.388 125.501V139.076C231.388 140.219 230.4 141.146 229.181 141.146Z" fill="#818181"/>
<path d="M149.662 141.146H135.198C133.979 141.146 132.991 140.219 132.991 139.076V125.501C132.991 124.358 133.979 123.43 135.198 123.43H149.662C150.881 123.43 151.869 124.358 151.869 125.501V139.076C151.869 140.219 150.881 141.146 149.662 141.146Z" fill="#818181"/>
<path d="M28.748 0H43.2125C44.4312 0 45.4192 0.927187 45.4192 2.07093V15.6452C45.4192 16.789 44.4312 17.7162 43.2125 17.7162H28.748C27.5293 17.7162 26.5413 16.789 26.5413 15.6452V2.07093C26.5413 0.927187 27.5293 0 28.748 0Z" fill="#818181"/>
<path d="M2.19805 0H16.6625C17.8812 0 18.8692 0.927187 18.8692 2.07093V15.6452C18.8692 16.789 17.8812 17.7162 16.6625 17.7162H2.19805C0.979309 17.7162 -0.00867653 16.789 -0.00867653 15.6452V2.07093C-0.00867653 0.927187 0.979309 0 2.19805 0Z" fill="#818181"/>
<path d="M16.6712 42.397H2.20673C0.987986 42.397 0 41.4698 0 40.326L0 26.7517C0 25.608 0.987986 24.6808 2.20673 24.6808L16.6712 24.6808C17.8899 24.6808 18.8779 25.608 18.8779 26.7517L18.8779 40.326C18.8779 41.4698 17.8899 42.397 16.6712 42.397Z" fill="#818181"/>
<path d="M43.2126 42.397H28.7482C27.5294 42.397 26.5414 41.4698 26.5414 40.326L26.5414 26.7517C26.5414 25.608 27.5294 24.6808 28.7482 24.6808L43.2126 24.6808C44.4314 24.6808 45.4194 25.608 45.4194 26.7517V40.326C45.4194 41.4698 44.4314 42.397 43.2126 42.397Z" fill="#818181"/>
<path d="M69.6932 42.397H55.2288C54.0101 42.397 53.0221 41.4698 53.0221 40.326V26.7517C53.0221 25.608 54.0101 24.6808 55.2288 24.6808L69.6932 24.6808C70.912 24.6808 71.9 25.608 71.9 26.7517V40.326C71.9 41.4698 70.912 42.397 69.6932 42.397Z" fill="#818181"/>
<path d="M81.6916 42.397H95.7595C97.1904 42.397 98.3628 41.3049 98.3628 39.9539V27.1158C98.3628 25.7729 97.199 24.6727 95.7595 24.6727L81.6916 24.6727C80.4761 24.6727 79.4848 25.603 79.4848 26.7437V40.318C79.4848 41.4586 80.4761 42.3889 81.6916 42.3889V42.397Z" fill="#818181"/>
<path d="M122.646 42.397H108.182C106.963 42.397 105.975 41.4698 105.975 40.326V26.7517C105.975 25.608 106.963 24.6808 108.182 24.6808L122.646 24.6808C123.865 24.6808 124.853 25.608 124.853 26.7517V40.326C124.853 41.4698 123.865 42.397 122.646 42.397Z" fill="#818181"/>
<path d="M108.579 49.3711H122.25C123.688 49.3711 124.854 50.4649 124.854 51.8141V64.6442C124.854 65.9935 123.688 67.0872 122.25 67.0872H108.579C107.141 67.0872 105.976 65.9935 105.976 64.6442V51.8141C105.976 50.4649 107.141 49.3711 108.579 49.3711Z" fill="#818181"/>
<path d="M55.2374 49.3706H69.7018C70.9206 49.3706 71.9086 50.2978 71.9086 51.4415V65.0158C71.9086 66.1596 70.9206 67.0868 69.7018 67.0868H55.2374C54.0186 67.0868 53.0307 66.1596 53.0307 65.0158V51.4415C53.0307 50.2978 54.0186 49.3706 55.2374 49.3706Z" fill="#818181"/>
<path d="M2.19805 49.3706H16.6625C17.8812 49.3706 18.8692 50.2978 18.8692 51.4415V65.0158C18.8692 66.1596 17.8812 67.0868 16.6625 67.0868H2.19805C0.979309 67.0868 -0.00867653 66.1596 -0.00867653 65.0158V51.4415C-0.00867653 50.2978 0.979309 49.3706 2.19805 49.3706Z" fill="#818181"/>
<path d="M43.2126 91.7681H28.7482C27.5294 91.7681 26.5414 90.8409 26.5414 89.6971L26.5414 76.1228C26.5414 74.9791 27.5294 74.0519 28.7482 74.0519H43.2126C44.4314 74.0519 45.4194 74.9791 45.4194 76.1228V89.6971C45.4194 90.8409 44.4314 91.7681 43.2126 91.7681Z" fill="#818181"/>
<path d="M69.6932 91.7681H55.2288C54.0101 91.7681 53.0221 90.8409 53.0221 89.6971V76.1228C53.0221 74.9791 54.0101 74.0519 55.2288 74.0519H69.6932C70.912 74.0519 71.9 74.9791 71.9 76.1228V89.6971C71.9 90.8409 70.912 91.7681 69.6932 91.7681Z" fill="#818181"/>
<path d="M81.6916 91.7681H95.7595C97.1904 91.7681 98.3628 90.676 98.3628 89.325V76.4869C98.3628 75.144 97.199 74.0438 95.7595 74.0438H81.6916C80.4761 74.0438 79.4848 74.9741 79.4848 76.1148V89.689C79.4848 90.8297 80.4761 91.76 81.6916 91.76V91.7681Z" fill="#818181"/>
<path d="M122.646 91.7681H108.182C106.963 91.7681 105.975 90.8409 105.975 89.6971V76.1228C105.975 74.9791 106.963 74.0519 108.182 74.0519H122.646C123.865 74.0519 124.853 74.9791 124.853 76.1228V89.6971C124.853 90.8409 123.865 91.7681 122.646 91.7681Z" fill="#818181"/>
<path d="M108.182 98.7412H122.647C123.866 98.7412 124.854 99.6684 124.854 100.812V114.386C124.854 115.53 123.866 116.457 122.647 116.457H108.182C106.964 116.457 105.976 115.53 105.976 114.386V100.812C105.976 99.6684 106.964 98.7412 108.182 98.7412Z" fill="#818181"/>
<path d="M55.2374 98.7412H69.7018C70.9206 98.7412 71.9086 99.6684 71.9086 100.812V114.386C71.9086 115.53 70.9206 116.457 69.7018 116.457H55.2374C54.0186 116.457 53.0307 115.53 53.0307 114.386V100.812C53.0307 99.6684 54.0186 98.7412 55.2374 98.7412Z" fill="#818181"/>
<path d="M28.748 98.7412H43.2125C44.4312 98.7412 45.4192 99.6684 45.4192 100.812V114.386C45.4192 115.53 44.4312 116.457 43.2125 116.457H28.748C27.5293 116.457 26.5413 115.53 26.5413 114.386V100.812C26.5413 99.6684 27.5293 98.7412 28.748 98.7412Z" fill="#818181"/>
<path d="M2.19805 98.7412H16.6625C17.8812 98.7412 18.8692 99.6684 18.8692 100.812V114.386C18.8692 115.53 17.8812 116.457 16.6625 116.457H2.19805C0.979309 116.457 -0.00867653 115.53 -0.00867653 114.386V100.812C-0.00867653 99.6684 0.979309 98.7412 2.19805 98.7412Z" fill="#818181"/>
<path d="M43.2126 141.146H28.7482C27.5294 141.146 26.5414 140.219 26.5414 139.076L26.5414 125.501C26.5414 124.358 27.5294 123.43 28.7482 123.43H43.2126C44.4314 123.43 45.4194 124.358 45.4194 125.501V139.076C45.4194 140.219 44.4314 141.146 43.2126 141.146Z" fill="#818181"/>
<path d="M69.6932 141.146H55.2288C54.0101 141.146 53.0221 140.219 53.0221 139.076V125.501C53.0221 124.358 54.0101 123.43 55.2288 123.43H69.6932C70.912 123.43 71.9 124.358 71.9 125.501V139.076C71.9 140.219 70.912 141.146 69.6932 141.146Z" fill="#818181"/>
<path d="M81.6916 141.146H95.7595C97.1904 141.146 98.3628 140.054 98.3628 138.703V125.865C98.3628 124.522 97.199 123.422 95.7595 123.422H81.6916C80.4761 123.422 79.4848 124.353 79.4848 125.493V139.067C79.4848 140.208 80.4761 141.138 81.6916 141.138V141.146Z" fill="#818181"/>
<path d="M122.646 141.146H108.182C106.963 141.146 105.975 140.219 105.975 139.076V125.501C105.975 124.358 106.963 123.43 108.182 123.43H122.646C123.865 123.43 124.853 124.358 124.853 125.501V139.076C124.853 140.219 123.865 141.146 122.646 141.146Z" fill="#818181"/>
<path d="M255.645 147.23H241.577C240.146 147.23 238.974 148.323 238.974 149.674V162.512C238.974 163.855 240.138 164.955 241.577 164.955H255.645C256.86 164.955 257.852 164.024 257.852 162.884V149.309C257.852 148.169 256.86 147.239 255.645 147.239V147.23Z" fill="#818181"/>
<path d="M214.708 147.23H229.173C230.392 147.23 231.38 148.158 231.38 149.301V162.876C231.38 164.019 230.392 164.947 229.173 164.947H214.708C213.49 164.947 212.502 164.019 212.502 162.876V149.301C212.502 148.158 213.49 147.23 214.708 147.23Z" fill="#818181"/>
<path d="M161.677 147.23H176.142C177.361 147.23 178.349 148.158 178.349 149.301V162.876C178.349 164.019 177.361 164.947 176.142 164.947H161.677C160.459 164.947 159.471 164.019 159.471 162.876V149.301C159.471 148.158 160.459 147.23 161.677 147.23Z" fill="#818181"/>
<path d="M176.151 189.627H161.687C160.468 189.627 159.48 188.7 159.48 187.557V173.982C159.48 172.838 160.468 171.911 161.687 171.911H176.151C177.37 171.911 178.358 172.838 178.358 173.982V187.557C178.358 188.7 177.37 189.627 176.151 189.627Z" fill="#818181"/>
<path d="M135.197 147.23H149.661C150.88 147.23 151.868 148.158 151.868 149.301V162.876C151.868 164.019 150.88 164.947 149.661 164.947H135.197C133.978 164.947 132.99 164.019 132.99 162.876V149.301C132.99 148.158 133.978 147.23 135.197 147.23Z" fill="#818181"/>
<path d="M149.662 189.627H135.198C133.979 189.627 132.991 188.7 132.991 187.557V173.982C132.991 172.838 133.979 171.911 135.198 171.911H149.662C150.881 171.911 151.869 172.838 151.869 173.982V187.557C151.869 188.7 150.881 189.627 149.662 189.627Z" fill="#818181"/>
<path d="M202.692 189.627H188.227C187.009 189.627 186.021 188.7 186.021 187.557V173.982C186.021 172.838 187.009 171.911 188.227 171.911H202.692C203.911 171.911 204.899 172.838 204.899 173.982V187.557C204.899 188.7 203.911 189.627 202.692 189.627Z" fill="#818181"/>
<path d="M229.181 189.627H214.717C213.498 189.627 212.51 188.7 212.51 187.557V173.982C212.51 172.838 213.498 171.911 214.717 171.911H229.181C230.4 171.911 231.388 172.838 231.388 173.982V187.557C231.388 188.7 230.4 189.627 229.181 189.627Z" fill="#818181"/>
<path d="M282.126 189.627H267.661C266.443 189.627 265.455 188.7 265.455 187.557V173.982C265.455 172.838 266.443 171.911 267.661 171.911H282.126C283.345 171.911 284.333 172.838 284.333 173.982V187.557C284.333 188.7 283.345 189.627 282.126 189.627Z" fill="#818181"/>
<path d="M161.677 196.601H176.142C177.361 196.601 178.349 197.528 178.349 198.672V212.246C178.349 213.39 177.361 214.317 176.142 214.317H161.677C160.459 214.317 159.471 213.39 159.471 212.246V198.672C159.471 197.528 160.459 196.601 161.677 196.601Z" fill="#818181"/>
<path d="M135.197 196.601H149.661C150.88 196.601 151.868 197.528 151.868 198.672V212.246C151.868 213.39 150.88 214.317 149.661 214.317H135.197C133.978 214.317 132.99 213.39 132.99 212.246V198.672C132.99 197.528 133.978 196.601 135.197 196.601Z" fill="#818181"/>
<path d="M108.182 147.23H122.647C123.866 147.23 124.854 148.158 124.854 149.301V162.876C124.854 164.019 123.866 164.947 122.647 164.947H108.182C106.964 164.947 105.976 164.019 105.976 162.876V149.301C105.976 148.158 106.964 147.23 108.182 147.23Z" fill="#818181"/>
<path d="M96.1652 147.23H82.0973C80.6664 147.23 79.4941 148.322 79.4941 149.673V162.511C79.4941 163.854 80.6578 164.954 82.0973 164.954H96.1652C97.3807 164.954 98.372 164.024 98.372 162.883V149.309C98.372 148.168 97.3807 147.238 96.1652 147.238V147.23Z" fill="#818181"/>
<path d="M96.1652 216.766H82.0973C80.6664 216.766 79.4941 217.858 79.4941 219.209V232.047C79.4941 233.39 80.6578 234.49 82.0973 234.49H96.1652C97.3807 234.49 98.372 233.56 98.372 232.419V218.845C98.372 217.705 97.3807 216.774 96.1652 216.774V216.766Z" fill="#818181"/>
<path d="M28.748 147.23H43.2125C44.4312 147.23 45.4192 148.158 45.4192 149.301V162.876C45.4192 164.019 44.4312 164.947 43.2125 164.947H28.748C27.5293 164.947 26.5413 164.019 26.5413 162.876V149.301C26.5413 148.158 27.5293 147.23 28.748 147.23Z" fill="#818181"/>
<path d="M43.2126 189.627H28.7482C27.5294 189.627 26.5414 188.7 26.5414 187.557L26.5414 173.982C26.5414 172.838 27.5294 171.911 28.7482 171.911H43.2126C44.4314 171.911 45.4194 172.838 45.4194 173.982V187.557C45.4194 188.7 44.4314 189.627 43.2126 189.627Z" fill="#818181"/>
<path d="M108.579 196.601H122.25C123.688 196.601 124.854 197.695 124.854 199.044V211.874C124.854 213.223 123.688 214.317 122.25 214.317H108.579C107.141 214.317 105.976 213.223 105.976 211.874V199.044C105.976 197.695 107.141 196.601 108.579 196.601Z" fill="#818181"/>
<path d="M28.748 196.601H43.2125C44.4312 196.601 45.4192 197.528 45.4192 198.672V212.246C45.4192 213.39 44.4312 214.317 43.2125 214.317H28.748C27.5293 214.317 26.5413 213.39 26.5413 212.246V198.672C26.5413 197.528 27.5293 196.601 28.748 196.601Z" fill="#818181"/>
</g>
<defs>
<clipPath id="clip0_1_218">
<rect width="284.332" height="239.006" fill="white" transform="matrix(-1 0 0 1 284.332 0)"/>
</clipPath>
</defs>
</svg>
