<svg width="305" height="274" viewBox="0 0 305 274" fill="none" xmlns="http://www.w3.org/2000/svg">
<g style="mix-blend-mode:soft-light" opacity="0.55" clip-path="url(#clip0_1_1303)">
<path d="M287.164 0.0825195H302.639C303.943 0.0825195 305 1.1414 305 2.44759V17.9499C305 19.2561 303.943 20.3149 302.639 20.3149H287.164C285.86 20.3149 284.803 19.2561 284.803 17.9499V2.44759C284.803 1.1414 285.86 0.0825195 287.164 0.0825195Z" fill="black"/>
<path d="M274.309 0.0825195H259.258C257.718 0.0825195 256.473 1.32972 256.473 2.87256V17.5341C256.473 19.0677 257.718 20.3242 259.258 20.3242H274.309C275.609 20.3242 276.67 19.2617 276.67 17.9591V2.44759C276.67 1.14495 275.609 0.0825195 274.309 0.0825195Z" fill="black"/>
<path d="M202.182 0.0825195H217.657C218.961 0.0825195 220.018 1.1414 220.018 2.44759V17.9499C220.018 19.2561 218.961 20.3149 217.657 20.3149H202.182C200.878 20.3149 199.821 19.2561 199.821 17.9499V2.44759C199.821 1.1414 200.878 0.0825195 202.182 0.0825195Z" fill="black"/>
<path d="M189.262 48.5015H173.787C172.483 48.5015 171.426 47.4426 171.426 46.1364V30.6341C171.426 29.3279 172.483 28.2691 173.787 28.2691L189.262 28.2691C190.566 28.2691 191.623 29.3279 191.623 30.6341V46.1364C191.623 47.4426 190.566 48.5015 189.262 48.5015Z" fill="black"/>
<path d="M145.447 0.0825195H160.922C162.225 0.0825195 163.282 1.1414 163.282 2.44759V17.9499C163.282 19.2561 162.225 20.3149 160.922 20.3149H145.447C144.143 20.3149 143.086 19.2561 143.086 17.9499V2.44759C143.086 1.1414 144.143 0.0825195 145.447 0.0825195Z" fill="black"/>
<path d="M160.922 48.5015H145.447C144.143 48.5015 143.086 47.4426 143.086 46.1364V30.6341C143.086 29.3279 144.143 28.2691 145.447 28.2691L160.922 28.2691C162.226 28.2691 163.283 29.3279 163.283 30.6341V46.1364C163.283 47.4426 162.226 48.5015 160.922 48.5015Z" fill="black"/>
<path d="M245.996 48.5015H230.521C229.218 48.5015 228.161 47.4426 228.161 46.1364V30.6341C228.161 29.3279 229.218 28.2691 230.521 28.2691L245.996 28.2691C247.3 28.2691 248.357 29.3279 248.357 30.6341V46.1364C248.357 47.4426 247.3 48.5015 245.996 48.5015Z" fill="black"/>
<path d="M258.825 48.5015H273.875C275.406 48.5015 276.66 47.2543 276.66 45.7114V31.0499C276.66 29.5163 275.415 28.2598 273.875 28.2598L258.825 28.2598C257.524 28.2598 256.464 29.3222 256.464 30.6249V46.1272C256.464 47.4298 257.524 48.4922 258.825 48.4922V48.5015Z" fill="black"/>
<path d="M230.512 56.4651H245.987C247.291 56.4651 248.348 57.524 248.348 58.8302V74.3324C248.348 75.6386 247.291 76.6975 245.987 76.6975H230.512C229.208 76.6975 228.151 75.6386 228.151 74.3324V58.8302C228.151 57.524 229.208 56.4651 230.512 56.4651Z" fill="black"/>
<path d="M202.182 56.4651H217.657C218.961 56.4651 220.018 57.524 220.018 58.8302V74.3324C220.018 75.6386 218.961 76.6975 217.657 76.6975H202.182C200.878 76.6975 199.821 75.6386 199.821 74.3324V58.8302C199.821 57.524 200.878 56.4651 202.182 56.4651Z" fill="black"/>
<path d="M189.262 104.884H173.787C172.483 104.884 171.426 103.825 171.426 102.519V87.0169C171.426 85.7107 172.483 84.6519 173.787 84.6519H189.262C190.566 84.6519 191.623 85.7107 191.623 87.0169V102.519C191.623 103.825 190.566 104.884 189.262 104.884Z" fill="black"/>
<path d="M217.656 104.884H202.182C200.878 104.884 199.821 103.825 199.821 102.519V87.0164C199.821 85.7103 200.878 84.6514 202.182 84.6514H217.656C218.96 84.6514 220.017 85.7103 220.017 87.0164V102.519C220.017 103.825 218.96 104.884 217.656 104.884Z" fill="black"/>
<path d="M258.825 104.884H273.875C275.406 104.884 276.66 103.637 276.66 102.094V87.4327C276.66 85.8991 275.415 84.6426 273.875 84.6426H258.825C257.524 84.6426 256.464 85.7051 256.464 87.0077V102.51C256.464 103.813 257.524 104.875 258.825 104.875V104.884Z" fill="black"/>
<path d="M302.64 104.884H287.165C285.861 104.884 284.804 103.825 284.804 102.519V87.0164C284.804 85.7103 285.861 84.6514 287.165 84.6514H302.64C303.943 84.6514 305 85.7103 305 87.0164V102.519C305 103.825 303.943 104.884 302.64 104.884Z" fill="black"/>
<path d="M273.885 112.848H258.834C257.534 112.848 256.473 113.91 256.473 115.213V130.715C256.473 132.018 257.534 133.08 258.834 133.08H273.885C275.415 133.08 276.67 131.833 276.67 130.29V115.628C276.67 114.095 275.425 112.838 273.885 112.838V112.848Z" fill="black"/>
<path d="M230.512 112.849H245.987C247.291 112.849 248.348 113.908 248.348 115.214V130.716C248.348 132.022 247.291 133.081 245.987 133.081H230.512C229.208 133.081 228.151 132.022 228.151 130.716V115.214C228.151 113.908 229.208 112.849 230.512 112.849Z" fill="black"/>
<path d="M202.182 112.849H217.657C218.961 112.849 220.018 113.908 220.018 115.214V130.716C220.018 132.022 218.961 133.081 217.657 133.081H202.182C200.878 133.081 199.821 132.022 199.821 130.716V115.214C199.821 113.908 200.878 112.849 202.182 112.849Z" fill="black"/>
<path d="M173.777 112.848H189.252C190.556 112.848 191.613 113.907 191.613 115.213V130.715C191.613 132.022 190.556 133.081 189.252 133.081H173.777C172.473 133.081 171.416 132.022 171.416 130.715V115.213C171.416 113.907 172.473 112.848 173.777 112.848Z" fill="black"/>
<path d="M145.446 112.848H160.921C162.225 112.848 163.282 113.907 163.282 115.213V130.715C163.282 132.022 162.225 133.081 160.921 133.081H145.446C144.143 133.081 143.086 132.022 143.086 130.715V115.213C143.086 113.907 144.143 112.848 145.446 112.848Z" fill="black"/>
<path d="M217.656 161.276H202.182C200.878 161.276 199.821 160.217 199.821 158.911V143.409C199.821 142.103 200.878 141.044 202.182 141.044H217.656C218.96 141.044 220.017 142.103 220.017 143.409V158.911C220.017 160.217 218.96 161.276 217.656 161.276Z" fill="black"/>
<path d="M245.996 161.276H230.521C229.218 161.276 228.161 160.217 228.161 158.911V143.409C228.161 142.103 229.218 141.044 230.521 141.044H245.996C247.3 141.044 248.357 142.103 248.357 143.409V158.911C248.357 160.217 247.3 161.276 245.996 161.276Z" fill="black"/>
<path d="M160.922 161.276H145.447C144.143 161.276 143.086 160.217 143.086 158.911V143.409C143.086 142.103 144.143 141.044 145.447 141.044H160.922C162.226 141.044 163.283 142.103 163.283 143.409V158.911C163.283 160.217 162.226 161.276 160.922 161.276Z" fill="black"/>
<path d="M31.5618 0.0825195H47.0367C48.3406 0.0825195 49.3976 1.1414 49.3976 2.44759V17.9499C49.3976 19.2561 48.3406 20.3149 47.0367 20.3149H31.5618C30.258 20.3149 29.201 19.2561 29.201 17.9499V2.44759C29.201 1.1414 30.258 0.0825195 31.5618 0.0825195Z" fill="black"/>
<path d="M3.15724 0.0825195H18.6321C19.936 0.0825195 20.993 1.1414 20.993 2.44759V17.9499C20.993 19.2561 19.936 20.3149 18.6321 20.3149H3.15724C1.85336 20.3149 0.796356 19.2561 0.796356 17.9499V2.44759C0.796356 1.1414 1.85336 0.0825195 3.15724 0.0825195Z" fill="black"/>
<path d="M18.6413 48.5015H3.16649C1.8626 48.5015 0.805603 47.4426 0.805603 46.1364L0.805603 30.6341C0.805603 29.3279 1.8626 28.2691 3.16649 28.2691L18.6413 28.2691C19.9452 28.2691 21.0022 29.3279 21.0022 30.6341L21.0022 46.1364C21.0022 47.4426 19.9452 48.5015 18.6413 48.5015Z" fill="black"/>
<path d="M47.0367 48.5015H31.5619C30.258 48.5015 29.201 47.4426 29.201 46.1364L29.201 30.6341C29.201 29.3279 30.258 28.2691 31.5619 28.2691L47.0367 28.2691C48.3406 28.2691 49.3976 29.3279 49.3976 30.6341V46.1364C49.3976 47.4426 48.3406 48.5015 47.0367 48.5015Z" fill="black"/>
<path d="M75.3671 48.5015H59.8923C58.5884 48.5015 57.5314 47.4426 57.5314 46.1364V30.6341C57.5314 29.3279 58.5884 28.2691 59.8923 28.2691L75.3671 28.2691C76.671 28.2691 77.728 29.3279 77.728 30.6341V46.1364C77.728 47.4426 76.671 48.5015 75.3671 48.5015Z" fill="black"/>
<path d="M88.204 48.5015H103.255C104.785 48.5015 106.04 47.2543 106.04 45.7114V31.0499C106.04 29.5163 104.795 28.2598 103.255 28.2598L88.204 28.2598C86.9036 28.2598 85.8431 29.3222 85.8431 30.6249V46.1272C85.8431 47.4298 86.9036 48.4922 88.204 48.4922V48.5015Z" fill="black"/>
<path d="M132.019 48.5015H116.544C115.24 48.5015 114.183 47.4426 114.183 46.1364V30.6341C114.183 29.3279 115.24 28.2691 116.544 28.2691L132.019 28.2691C133.323 28.2691 134.38 29.3279 134.38 30.6341V46.1364C134.38 47.4426 133.323 48.5015 132.019 48.5015Z" fill="black"/>
<path d="M116.969 56.4651H131.596C133.134 56.4651 134.381 57.7142 134.381 59.2551V73.9075C134.381 75.4484 133.134 76.6975 131.596 76.6975H116.969C115.431 76.6975 114.184 75.4484 114.184 73.9075V59.2551C114.184 57.7142 115.431 56.4651 116.969 56.4651Z" fill="black"/>
<path d="M59.9016 56.4653H75.3765C76.6803 56.4653 77.7374 57.5242 77.7374 58.8304V74.3327C77.7374 75.6389 76.6803 76.6977 75.3765 76.6977H59.9016C58.5977 76.6977 57.5407 75.6389 57.5407 74.3327V58.8304C57.5407 57.5242 58.5977 56.4653 59.9016 56.4653Z" fill="black"/>
<path d="M3.15724 56.4651H18.6321C19.936 56.4651 20.993 57.524 20.993 58.8302V74.3324C20.993 75.6386 19.936 76.6975 18.6321 76.6975H3.15724C1.85336 76.6975 0.796356 75.6386 0.796356 74.3324V58.8302C0.796356 57.524 1.85336 56.4651 3.15724 56.4651Z" fill="black"/>
<path d="M47.0367 104.884H31.5619C30.258 104.884 29.201 103.825 29.201 102.519L29.201 87.0169C29.201 85.7107 30.258 84.6519 31.5619 84.6519H47.0367C48.3406 84.6519 49.3976 85.7107 49.3976 87.0169V102.519C49.3976 103.825 48.3406 104.884 47.0367 104.884Z" fill="black"/>
<path d="M75.3671 104.884H59.8923C58.5884 104.884 57.5314 103.825 57.5314 102.519V87.0169C57.5314 85.7107 58.5884 84.6519 59.8923 84.6519H75.3671C76.671 84.6519 77.728 85.7107 77.728 87.0169V102.519C77.728 103.825 76.671 104.884 75.3671 104.884Z" fill="black"/>
<path d="M88.204 104.884H103.255C104.785 104.884 106.04 103.637 106.04 102.094V87.4322C106.04 85.8986 104.795 84.6421 103.255 84.6421H88.204C86.9036 84.6421 85.8431 85.7046 85.8431 87.0072V102.509C85.8431 103.812 86.9036 104.875 88.204 104.875V104.884Z" fill="black"/>
<path d="M132.019 104.884H116.544C115.24 104.884 114.183 103.825 114.183 102.519V87.0164C114.183 85.7103 115.24 84.6514 116.544 84.6514H132.019C133.323 84.6514 134.38 85.7103 134.38 87.0164V102.519C134.38 103.825 133.323 104.884 132.019 104.884Z" fill="black"/>
<path d="M116.545 112.849H132.02C133.324 112.849 134.381 113.908 134.381 115.214V130.716C134.381 132.022 133.324 133.081 132.02 133.081H116.545C115.241 133.081 114.184 132.022 114.184 130.716V115.214C114.184 113.908 115.241 112.849 116.545 112.849Z" fill="black"/>
<path d="M59.9016 112.848H75.3765C76.6803 112.848 77.7374 113.907 77.7374 115.213V130.715C77.7374 132.022 76.6803 133.081 75.3765 133.081H59.9016C58.5977 133.081 57.5407 132.022 57.5407 130.715V115.213C57.5407 113.907 58.5977 112.848 59.9016 112.848Z" fill="black"/>
<path d="M31.5618 112.849H47.0367C48.3406 112.849 49.3976 113.908 49.3976 115.214V130.716C49.3976 132.022 48.3406 133.081 47.0367 133.081H31.5618C30.258 133.081 29.201 132.022 29.201 130.716V115.214C29.201 113.908 30.258 112.849 31.5618 112.849Z" fill="black"/>
<path d="M3.15724 112.849H18.6321C19.936 112.849 20.993 113.908 20.993 115.214V130.716C20.993 132.022 19.936 133.081 18.6321 133.081H3.15724C1.85336 133.081 0.796356 132.022 0.796356 130.716V115.214C0.796356 113.908 1.85336 112.849 3.15724 112.849Z" fill="black"/>
<path d="M47.0367 161.276H31.5619C30.258 161.276 29.201 160.217 29.201 158.911L29.201 143.409C29.201 142.103 30.258 141.044 31.5619 141.044H47.0367C48.3406 141.044 49.3976 142.103 49.3976 143.409V158.911C49.3976 160.217 48.3406 161.276 47.0367 161.276Z" fill="black"/>
<path d="M75.3671 161.276H59.8923C58.5884 161.276 57.5314 160.217 57.5314 158.911V143.409C57.5314 142.103 58.5884 141.044 59.8923 141.044H75.3671C76.671 141.044 77.728 142.103 77.728 143.409V158.911C77.728 160.217 76.671 161.276 75.3671 161.276Z" fill="black"/>
<path d="M88.204 161.276H103.255C104.785 161.276 106.04 160.029 106.04 158.486V143.825C106.04 142.291 104.795 141.035 103.255 141.035H88.204C86.9036 141.035 85.8431 142.097 85.8431 143.4V158.902C85.8431 160.205 86.9036 161.267 88.204 161.267V161.276Z" fill="black"/>
<path d="M132.019 161.276H116.544C115.241 161.276 114.184 160.217 114.184 158.911V143.409C114.184 142.103 115.241 141.044 116.544 141.044H132.019C133.323 141.044 134.38 142.103 134.38 143.409V158.911C134.38 160.217 133.323 161.276 132.019 161.276Z" fill="black"/>
<path d="M274.309 168.224H259.258C257.727 168.224 256.473 169.471 256.473 171.014V185.676C256.473 187.209 257.718 188.466 259.258 188.466H274.309C275.609 188.466 276.67 187.403 276.67 186.101V170.598C276.67 169.296 275.609 168.233 274.309 168.233V168.224Z" fill="black"/>
<path d="M230.512 168.224H245.987C247.291 168.224 248.348 169.283 248.348 170.589V186.091C248.348 187.398 247.291 188.457 245.987 188.457H230.512C229.208 188.457 228.151 187.398 228.151 186.091V170.589C228.151 169.283 229.208 168.224 230.512 168.224Z" fill="black"/>
<path d="M173.777 168.224H189.252C190.556 168.224 191.613 169.283 191.613 170.589V186.091C191.613 187.398 190.556 188.457 189.252 188.457H173.777C172.473 188.457 171.416 187.398 171.416 186.091V170.589C171.416 169.283 172.473 168.224 173.777 168.224Z" fill="black"/>
<path d="M189.262 216.643H173.787C172.483 216.643 171.426 215.584 171.426 214.278V198.775C171.426 197.469 172.483 196.41 173.787 196.41H189.262C190.566 196.41 191.623 197.469 191.623 198.775V214.278C191.623 215.584 190.566 216.643 189.262 216.643Z" fill="black"/>
<path d="M145.446 168.224H160.921C162.225 168.224 163.282 169.283 163.282 170.589V186.091C163.282 187.398 162.225 188.457 160.921 188.457H145.446C144.143 188.457 143.086 187.398 143.086 186.091V170.589C143.086 169.283 144.143 168.224 145.446 168.224Z" fill="black"/>
<path d="M160.922 216.643H145.447C144.143 216.643 143.086 215.584 143.086 214.278V198.775C143.086 197.469 144.143 196.41 145.447 196.41H160.922C162.226 196.41 163.283 197.469 163.283 198.775V214.278C163.283 215.584 162.226 216.643 160.922 216.643Z" fill="black"/>
<path d="M217.656 216.644H202.182C200.878 216.644 199.821 215.585 199.821 214.278V198.776C199.821 197.47 200.878 196.411 202.182 196.411H217.656C218.96 196.411 220.017 197.47 220.017 198.776V214.278C220.017 215.585 218.96 216.644 217.656 216.644Z" fill="black"/>
<path d="M245.996 216.644H230.521C229.218 216.644 228.161 215.585 228.161 214.278V198.776C228.161 197.47 229.218 196.411 230.521 196.411H245.996C247.3 196.411 248.357 197.47 248.357 198.776V214.278C248.357 215.585 247.3 216.644 245.996 216.644Z" fill="black"/>
<path d="M302.64 216.643H287.165C285.861 216.643 284.804 215.584 284.804 214.278V198.775C284.804 197.469 285.861 196.41 287.165 196.41H302.64C303.943 196.41 305 197.469 305 198.775V214.278C305 215.584 303.943 216.643 302.64 216.643Z" fill="black"/>
<path d="M173.777 224.607H189.252C190.556 224.607 191.613 225.666 191.613 226.972V242.474C191.613 243.78 190.556 244.839 189.252 244.839H173.777C172.473 244.839 171.416 243.78 171.416 242.474V226.972C171.416 225.666 172.473 224.607 173.777 224.607Z" fill="black"/>
<path d="M145.447 224.606H160.922C162.225 224.606 163.282 225.665 163.282 226.972V242.474C163.282 243.78 162.225 244.839 160.922 244.839H145.447C144.143 244.839 143.086 243.78 143.086 242.474V226.972C143.086 225.665 144.143 224.606 145.447 224.606Z" fill="black"/>
<path d="M116.545 168.224H132.02C133.324 168.224 134.381 169.283 134.381 170.589V186.091C134.381 187.398 133.324 188.457 132.02 188.457H116.545C115.241 188.457 114.184 187.398 114.184 186.091V170.589C114.184 169.283 115.241 168.224 116.545 168.224Z" fill="black"/>
<path d="M103.688 168.224H88.6377C87.1069 168.224 85.8526 169.471 85.8526 171.014V185.675C85.8526 187.209 87.0976 188.465 88.6377 188.465H103.688C104.989 188.465 106.049 187.403 106.049 186.1V170.598C106.049 169.295 104.989 168.233 103.688 168.233V168.224Z" fill="black"/>
<path d="M103.688 247.636H88.6377C87.1069 247.636 85.8526 248.883 85.8526 250.426V265.088C85.8526 266.621 87.0976 267.878 88.6377 267.878H103.688C104.989 267.878 106.049 266.815 106.049 265.513V250.011C106.049 248.708 104.989 247.645 103.688 247.645V247.636Z" fill="black"/>
<path d="M31.5618 168.224H47.0367C48.3406 168.224 49.3976 169.283 49.3976 170.589V186.091C49.3976 187.398 48.3406 188.457 47.0367 188.457H31.5618C30.258 188.457 29.201 187.398 29.201 186.091V170.589C29.201 169.283 30.258 168.224 31.5618 168.224Z" fill="black"/>
<path d="M47.0367 216.643H31.5619C30.258 216.643 29.201 215.584 29.201 214.278L29.201 198.775C29.201 197.469 30.258 196.41 31.5619 196.41H47.0367C48.3406 196.41 49.3976 197.469 49.3976 198.775V214.278C49.3976 215.584 48.3406 216.643 47.0367 216.643Z" fill="black"/>
<path d="M116.969 224.607H131.596C133.134 224.607 134.381 225.857 134.381 227.397V242.05C134.381 243.591 133.134 244.84 131.596 244.84H116.969C115.431 244.84 114.184 243.591 114.184 242.05V227.397C114.184 225.857 115.431 224.607 116.969 224.607Z" fill="black"/>
<path d="M31.5618 224.606H47.0367C48.3406 224.606 49.3976 225.665 49.3976 226.972V242.474C49.3976 243.78 48.3406 244.839 47.0367 244.839H31.5618C30.258 244.839 29.201 243.78 29.201 242.474V226.972C29.201 225.665 30.258 224.606 31.5618 224.606Z" fill="black"/>
</g>
<defs>
<clipPath id="clip0_1_1303">
<rect width="304.194" height="272.953" fill="white" transform="matrix(-1 0 0 1 305 0.0825195)"/>
</clipPath>
</defs>
</svg>
