<svg width="285" height="239" viewBox="0 0 285 239" fill="none" xmlns="http://www.w3.org/2000/svg">
<g opacity="0.1" clip-path="url(#clip0_1_401)">
<path d="M267.995 0H282.459C283.678 0 284.666 0.927187 284.666 2.07093V15.6452C284.666 16.789 283.678 17.7162 282.459 17.7162H267.995C266.776 17.7162 265.788 16.789 265.788 15.6452V2.07093C265.788 0.927187 266.776 0 267.995 0Z" fill="#818181"/>
<path d="M255.978 0H241.91C240.471 0 239.307 1.09209 239.307 2.44305V15.2812C239.307 16.6241 240.471 17.7242 241.91 17.7242H255.978C257.194 17.7242 258.185 16.7939 258.185 15.6533V2.07093C258.185 0.9303 257.194 0 255.978 0Z" fill="#818181"/>
<path d="M188.561 0H203.026C204.244 0 205.232 0.927187 205.232 2.07093V15.6452C205.232 16.789 204.244 17.7162 203.026 17.7162H188.561C187.342 17.7162 186.354 16.789 186.354 15.6452V2.07093C186.354 0.927187 187.342 0 188.561 0Z" fill="#818181"/>
<path d="M176.484 42.397H162.02C160.801 42.397 159.813 41.4698 159.813 40.326V26.7517C159.813 25.608 160.801 24.6808 162.02 24.6808L176.484 24.6808C177.703 24.6808 178.691 25.608 178.691 26.7517V40.326C178.691 41.4698 177.703 42.397 176.484 42.397Z" fill="#818181"/>
<path d="M135.53 0H149.995C151.213 0 152.201 0.927187 152.201 2.07093V15.6452C152.201 16.789 151.213 17.7162 149.995 17.7162H135.53C134.311 17.7162 133.323 16.789 133.323 15.6452V2.07093C133.323 0.927187 134.311 0 135.53 0Z" fill="#818181"/>
<path d="M149.995 42.397H135.531C134.312 42.397 133.324 41.4698 133.324 40.326V26.7517C133.324 25.608 134.312 24.6808 135.531 24.6808L149.995 24.6808C151.214 24.6808 152.202 25.608 152.202 26.7517V40.326C152.202 41.4698 151.214 42.397 149.995 42.397Z" fill="#818181"/>
<path d="M229.515 42.397H215.05C213.832 42.397 212.844 41.4698 212.844 40.326V26.7517C212.844 25.608 213.832 24.6808 215.05 24.6808L229.515 24.6808C230.734 24.6808 231.722 25.608 231.722 26.7517V40.326C231.722 41.4698 230.734 42.397 229.515 42.397Z" fill="#818181"/>
<path d="M241.505 42.397H255.573C257.004 42.397 258.176 41.3049 258.176 39.9539V27.1158C258.176 25.7729 257.013 24.6727 255.573 24.6727L241.505 24.6727C240.29 24.6727 239.299 25.603 239.299 26.7437V40.318C239.299 41.4586 240.29 42.3889 241.505 42.3889V42.397Z" fill="#818181"/>
<path d="M215.042 49.3711H229.506C230.725 49.3711 231.713 50.2983 231.713 51.442V65.0163C231.713 66.1601 230.725 67.0872 229.506 67.0872H215.042C213.823 67.0872 212.835 66.1601 212.835 65.0163V51.442C212.835 50.2983 213.823 49.3711 215.042 49.3711Z" fill="#818181"/>
<path d="M188.561 49.3711H203.026C204.244 49.3711 205.232 50.2983 205.232 51.442V65.0163C205.232 66.1601 204.244 67.0872 203.026 67.0872H188.561C187.342 67.0872 186.354 66.1601 186.354 65.0163V51.442C186.354 50.2983 187.342 49.3711 188.561 49.3711Z" fill="#818181"/>
<path d="M176.484 91.7681H162.02C160.801 91.7681 159.813 90.8409 159.813 89.6971V76.1228C159.813 74.9791 160.801 74.0519 162.02 74.0519H176.484C177.703 74.0519 178.691 74.9791 178.691 76.1228V89.6971C178.691 90.8409 177.703 91.7681 176.484 91.7681Z" fill="#818181"/>
<path d="M203.025 91.7681H188.561C187.342 91.7681 186.354 90.8409 186.354 89.6971V76.1228C186.354 74.9791 187.342 74.0519 188.561 74.0519H203.025C204.244 74.0519 205.232 74.9791 205.232 76.1228V89.6971C205.232 90.8409 204.244 91.7681 203.025 91.7681Z" fill="#818181"/>
<path d="M241.505 91.7681H255.573C257.004 91.7681 258.176 90.676 258.176 89.325V76.4869C258.176 75.144 257.013 74.0438 255.573 74.0438H241.505C240.29 74.0438 239.299 74.9741 239.299 76.1148V89.689C239.299 90.8297 240.29 91.76 241.505 91.76V91.7681Z" fill="#818181"/>
<path d="M282.459 91.7681H267.995C266.776 91.7681 265.788 90.8409 265.788 89.6971V76.1228C265.788 74.9791 266.776 74.0519 267.995 74.0519H282.459C283.678 74.0519 284.666 74.9791 284.666 76.1228V89.6971C284.666 90.8409 283.678 91.7681 282.459 91.7681Z" fill="#818181"/>
<path d="M255.582 98.741H241.514C240.298 98.741 239.307 99.6713 239.307 100.812V114.386C239.307 115.527 240.298 116.457 241.514 116.457H255.582C257.013 116.457 258.185 115.365 258.185 114.014V101.176C258.185 99.8331 257.021 98.7329 255.582 98.7329V98.741Z" fill="#818181"/>
<path d="M215.042 98.7412H229.506C230.725 98.7412 231.713 99.6684 231.713 100.812V114.386C231.713 115.53 230.725 116.457 229.506 116.457H215.042C213.823 116.457 212.835 115.53 212.835 114.386V100.812C212.835 99.6684 213.823 98.7412 215.042 98.7412Z" fill="#818181"/>
<path d="M188.561 98.7412H203.026C204.244 98.7412 205.232 99.6684 205.232 100.812V114.386C205.232 115.53 204.244 116.457 203.026 116.457H188.561C187.342 116.457 186.354 115.53 186.354 114.386V100.812C186.354 99.6684 187.342 98.7412 188.561 98.7412Z" fill="#818181"/>
<path d="M162.011 98.7412H176.475C177.694 98.7412 178.682 99.6684 178.682 100.812V114.386C178.682 115.53 177.694 116.457 176.475 116.457H162.011C160.792 116.457 159.804 115.53 159.804 114.386V100.812C159.804 99.6684 160.792 98.7412 162.011 98.7412Z" fill="#818181"/>
<path d="M135.53 98.7412H149.995C151.213 98.7412 152.201 99.6684 152.201 100.812V114.386C152.201 115.53 151.213 116.457 149.995 116.457H135.53C134.311 116.457 133.323 115.53 133.323 114.386V100.812C133.323 99.6684 134.311 98.7412 135.53 98.7412Z" fill="#818181"/>
<path d="M203.025 141.146H188.561C187.342 141.146 186.354 140.219 186.354 139.076V125.501C186.354 124.358 187.342 123.43 188.561 123.43H203.025C204.244 123.43 205.232 124.358 205.232 125.501V139.076C205.232 140.219 204.244 141.146 203.025 141.146Z" fill="#818181"/>
<path d="M229.515 141.146H215.05C213.832 141.146 212.844 140.219 212.844 139.076V125.501C212.844 124.358 213.832 123.43 215.05 123.43H229.515C230.734 123.43 231.722 124.358 231.722 125.501V139.076C231.722 140.219 230.734 141.146 229.515 141.146Z" fill="#818181"/>
<path d="M149.995 141.146H135.531C134.312 141.146 133.324 140.219 133.324 139.076V125.501C133.324 124.358 134.312 123.43 135.531 123.43H149.995C151.214 123.43 152.202 124.358 152.202 125.501V139.076C152.202 140.219 151.214 141.146 149.995 141.146Z" fill="#818181"/>
<path d="M29.0814 0H43.5458C44.7646 0 45.7526 0.927187 45.7526 2.07093V15.6452C45.7526 16.789 44.7646 17.7162 43.5458 17.7162H29.0814C27.8626 17.7162 26.8747 16.789 26.8747 15.6452V2.07093C26.8747 0.927187 27.8626 0 29.0814 0Z" fill="#818181"/>
<path d="M2.53146 0H16.9959C18.2147 0 19.2026 0.927187 19.2026 2.07093V15.6452C19.2026 16.789 18.2147 17.7162 16.9959 17.7162H2.53146C1.31272 17.7162 0.32473 16.789 0.32473 15.6452V2.07093C0.32473 0.927187 1.31272 0 2.53146 0Z" fill="#818181"/>
<path d="M17.0045 42.397H2.54011C1.32136 42.397 0.333374 41.4698 0.333374 40.326L0.333374 26.7517C0.333374 25.608 1.32136 24.6808 2.54011 24.6808L17.0045 24.6808C18.2233 24.6808 19.2113 25.608 19.2113 26.7517L19.2113 40.326C19.2113 41.4698 18.2233 42.397 17.0045 42.397Z" fill="#818181"/>
<path d="M43.5461 42.397H29.0816C27.8629 42.397 26.8749 41.4698 26.8749 40.326L26.8749 26.7517C26.8749 25.608 27.8629 24.6808 29.0816 24.6808L43.5461 24.6808C44.7648 24.6808 45.7528 25.608 45.7528 26.7517V40.326C45.7528 41.4698 44.7648 42.397 43.5461 42.397Z" fill="#818181"/>
<path d="M70.0266 42.397H55.5622C54.3435 42.397 53.3555 41.4698 53.3555 40.326V26.7517C53.3555 25.608 54.3435 24.6808 55.5622 24.6808L70.0266 24.6808C71.2454 24.6808 72.2334 25.608 72.2334 26.7517V40.326C72.2334 41.4698 71.2454 42.397 70.0266 42.397Z" fill="#818181"/>
<path d="M82.025 42.397H96.0929C97.5238 42.397 98.6962 41.3049 98.6962 39.9539V27.1158C98.6962 25.7729 97.5325 24.6727 96.0929 24.6727L82.025 24.6727C80.8095 24.6727 79.8182 25.603 79.8182 26.7437V40.318C79.8182 41.4586 80.8095 42.3889 82.025 42.3889V42.397Z" fill="#818181"/>
<path d="M122.98 42.397H108.515C107.296 42.397 106.308 41.4698 106.308 40.326V26.7517C106.308 25.608 107.296 24.6808 108.515 24.6808L122.98 24.6808C124.198 24.6808 125.186 25.608 125.186 26.7517V40.326C125.186 41.4698 124.198 42.397 122.98 42.397Z" fill="#818181"/>
<path d="M108.912 49.3711H122.584C124.022 49.3711 125.187 50.4649 125.187 51.8141V64.6442C125.187 65.9935 124.022 67.0872 122.584 67.0872H108.912C107.475 67.0872 106.309 65.9935 106.309 64.6442V51.8141C106.309 50.4649 107.475 49.3711 108.912 49.3711Z" fill="#818181"/>
<path d="M55.5708 49.3706H70.0352C71.2539 49.3706 72.2419 50.2978 72.2419 51.4415V65.0158C72.2419 66.1596 71.2539 67.0868 70.0352 67.0868H55.5708C54.352 67.0868 53.364 66.1596 53.364 65.0158V51.4415C53.364 50.2978 54.352 49.3706 55.5708 49.3706Z" fill="#818181"/>
<path d="M2.53146 49.3706H16.9959C18.2147 49.3706 19.2026 50.2978 19.2026 51.4415V65.0158C19.2026 66.1596 18.2147 67.0868 16.9959 67.0868H2.53146C1.31272 67.0868 0.32473 66.1596 0.32473 65.0158V51.4415C0.32473 50.2978 1.31272 49.3706 2.53146 49.3706Z" fill="#818181"/>
<path d="M43.5461 91.7681H29.0816C27.8629 91.7681 26.8749 90.8409 26.8749 89.6971L26.8749 76.1228C26.8749 74.9791 27.8629 74.0519 29.0816 74.0519H43.5461C44.7648 74.0519 45.7528 74.9791 45.7528 76.1228V89.6971C45.7528 90.8409 44.7648 91.7681 43.5461 91.7681Z" fill="#818181"/>
<path d="M70.0266 91.7681H55.5622C54.3435 91.7681 53.3555 90.8409 53.3555 89.6971V76.1228C53.3555 74.9791 54.3435 74.0519 55.5622 74.0519H70.0266C71.2454 74.0519 72.2334 74.9791 72.2334 76.1228V89.6971C72.2334 90.8409 71.2454 91.7681 70.0266 91.7681Z" fill="#818181"/>
<path d="M82.025 91.7681H96.0929C97.5238 91.7681 98.6962 90.676 98.6962 89.325V76.4869C98.6962 75.144 97.5325 74.0438 96.0929 74.0438H82.025C80.8095 74.0438 79.8182 74.9741 79.8182 76.1148V89.689C79.8182 90.8297 80.8095 91.76 82.025 91.76V91.7681Z" fill="#818181"/>
<path d="M122.98 91.7681H108.515C107.296 91.7681 106.308 90.8409 106.308 89.6971V76.1228C106.308 74.9791 107.296 74.0519 108.515 74.0519H122.98C124.198 74.0519 125.186 74.9791 125.186 76.1228V89.6971C125.186 90.8409 124.198 91.7681 122.98 91.7681Z" fill="#818181"/>
<path d="M108.516 98.7412H122.98C124.199 98.7412 125.187 99.6684 125.187 100.812V114.386C125.187 115.53 124.199 116.457 122.98 116.457H108.516C107.297 116.457 106.309 115.53 106.309 114.386V100.812C106.309 99.6684 107.297 98.7412 108.516 98.7412Z" fill="#818181"/>
<path d="M55.5708 98.7412H70.0352C71.2539 98.7412 72.2419 99.6684 72.2419 100.812V114.386C72.2419 115.53 71.2539 116.457 70.0352 116.457H55.5708C54.352 116.457 53.364 115.53 53.364 114.386V100.812C53.364 99.6684 54.352 98.7412 55.5708 98.7412Z" fill="#818181"/>
<path d="M29.0814 98.7412H43.5458C44.7646 98.7412 45.7526 99.6684 45.7526 100.812V114.386C45.7526 115.53 44.7646 116.457 43.5458 116.457H29.0814C27.8626 116.457 26.8747 115.53 26.8747 114.386V100.812C26.8747 99.6684 27.8626 98.7412 29.0814 98.7412Z" fill="#818181"/>
<path d="M2.53146 98.7412H16.9959C18.2147 98.7412 19.2026 99.6684 19.2026 100.812V114.386C19.2026 115.53 18.2147 116.457 16.9959 116.457H2.53146C1.31272 116.457 0.32473 115.53 0.32473 114.386V100.812C0.32473 99.6684 1.31272 98.7412 2.53146 98.7412Z" fill="#818181"/>
<path d="M43.5461 141.146H29.0816C27.8629 141.146 26.8749 140.219 26.8749 139.076L26.8749 125.501C26.8749 124.358 27.8629 123.43 29.0816 123.43H43.5461C44.7648 123.43 45.7528 124.358 45.7528 125.501V139.076C45.7528 140.219 44.7648 141.146 43.5461 141.146Z" fill="#818181"/>
<path d="M70.0266 141.146H55.5622C54.3435 141.146 53.3555 140.219 53.3555 139.076V125.501C53.3555 124.358 54.3435 123.43 55.5622 123.43H70.0266C71.2454 123.43 72.2334 124.358 72.2334 125.501V139.076C72.2334 140.219 71.2454 141.146 70.0266 141.146Z" fill="#818181"/>
<path d="M82.025 141.146H96.0929C97.5238 141.146 98.6962 140.054 98.6962 138.703V125.865C98.6962 124.522 97.5325 123.422 96.0929 123.422H82.025C80.8095 123.422 79.8182 124.353 79.8182 125.493V139.067C79.8182 140.208 80.8095 141.138 82.025 141.138V141.146Z" fill="#818181"/>
<path d="M122.98 141.146H108.515C107.296 141.146 106.308 140.219 106.308 139.076V125.501C106.308 124.358 107.296 123.43 108.515 123.43H122.98C124.198 123.43 125.186 124.358 125.186 125.501V139.076C125.186 140.219 124.198 141.146 122.98 141.146Z" fill="#818181"/>
<path d="M255.978 147.23H241.91C240.479 147.23 239.307 148.323 239.307 149.674V162.512C239.307 163.855 240.471 164.955 241.91 164.955H255.978C257.194 164.955 258.185 164.024 258.185 162.884V149.309C258.185 148.169 257.194 147.239 255.978 147.239V147.23Z" fill="#818181"/>
<path d="M215.042 147.23H229.506C230.725 147.23 231.713 148.158 231.713 149.301V162.876C231.713 164.019 230.725 164.947 229.506 164.947H215.042C213.823 164.947 212.835 164.019 212.835 162.876V149.301C212.835 148.158 213.823 147.23 215.042 147.23Z" fill="#818181"/>
<path d="M162.011 147.23H176.475C177.694 147.23 178.682 148.158 178.682 149.301V162.876C178.682 164.019 177.694 164.947 176.475 164.947H162.011C160.792 164.947 159.804 164.019 159.804 162.876V149.301C159.804 148.158 160.792 147.23 162.011 147.23Z" fill="#818181"/>
<path d="M176.484 189.627H162.02C160.801 189.627 159.813 188.7 159.813 187.557V173.982C159.813 172.838 160.801 171.911 162.02 171.911H176.484C177.703 171.911 178.691 172.838 178.691 173.982V187.557C178.691 188.7 177.703 189.627 176.484 189.627Z" fill="#818181"/>
<path d="M135.53 147.23H149.995C151.213 147.23 152.201 148.158 152.201 149.301V162.876C152.201 164.019 151.213 164.947 149.995 164.947H135.53C134.311 164.947 133.323 164.019 133.323 162.876V149.301C133.323 148.158 134.311 147.23 135.53 147.23Z" fill="#818181"/>
<path d="M149.995 189.627H135.531C134.312 189.627 133.324 188.7 133.324 187.557V173.982C133.324 172.838 134.312 171.911 135.531 171.911H149.995C151.214 171.911 152.202 172.838 152.202 173.982V187.557C152.202 188.7 151.214 189.627 149.995 189.627Z" fill="#818181"/>
<path d="M203.025 189.627H188.561C187.342 189.627 186.354 188.7 186.354 187.557V173.982C186.354 172.838 187.342 171.911 188.561 171.911H203.025C204.244 171.911 205.232 172.838 205.232 173.982V187.557C205.232 188.7 204.244 189.627 203.025 189.627Z" fill="#818181"/>
<path d="M229.515 189.627H215.05C213.832 189.627 212.844 188.7 212.844 187.557V173.982C212.844 172.838 213.832 171.911 215.05 171.911H229.515C230.734 171.911 231.722 172.838 231.722 173.982V187.557C231.722 188.7 230.734 189.627 229.515 189.627Z" fill="#818181"/>
<path d="M282.459 189.627H267.995C266.776 189.627 265.788 188.7 265.788 187.557V173.982C265.788 172.838 266.776 171.911 267.995 171.911H282.459C283.678 171.911 284.666 172.838 284.666 173.982V187.557C284.666 188.7 283.678 189.627 282.459 189.627Z" fill="#818181"/>
<path d="M162.011 196.601H176.475C177.694 196.601 178.682 197.528 178.682 198.672V212.246C178.682 213.39 177.694 214.317 176.475 214.317H162.011C160.792 214.317 159.804 213.39 159.804 212.246V198.672C159.804 197.528 160.792 196.601 162.011 196.601Z" fill="#818181"/>
<path d="M135.53 196.601H149.995C151.213 196.601 152.201 197.528 152.201 198.672V212.246C152.201 213.39 151.213 214.317 149.995 214.317H135.53C134.311 214.317 133.323 213.39 133.323 212.246V198.672C133.323 197.528 134.311 196.601 135.53 196.601Z" fill="#818181"/>
<path d="M108.516 147.23H122.98C124.199 147.23 125.187 148.158 125.187 149.301V162.876C125.187 164.019 124.199 164.947 122.98 164.947H108.516C107.297 164.947 106.309 164.019 106.309 162.876V149.301C106.309 148.158 107.297 147.23 108.516 147.23Z" fill="#818181"/>
<path d="M96.4986 147.23H82.4307C80.9997 147.23 79.8274 148.322 79.8274 149.673V162.511C79.8274 163.854 80.9911 164.954 82.4307 164.954H96.4986C97.714 164.954 98.7053 164.024 98.7053 162.883V149.309C98.7053 148.168 97.714 147.238 96.4986 147.238V147.23Z" fill="#818181"/>
<path d="M96.4986 216.766H82.4307C80.9997 216.766 79.8274 217.858 79.8274 219.209V232.047C79.8274 233.39 80.9911 234.49 82.4307 234.49H96.4986C97.714 234.49 98.7053 233.56 98.7053 232.419V218.845C98.7053 217.705 97.714 216.774 96.4986 216.774V216.766Z" fill="#818181"/>
<path d="M29.0814 147.23H43.5458C44.7646 147.23 45.7526 148.158 45.7526 149.301V162.876C45.7526 164.019 44.7646 164.947 43.5458 164.947H29.0814C27.8626 164.947 26.8747 164.019 26.8747 162.876V149.301C26.8747 148.158 27.8626 147.23 29.0814 147.23Z" fill="#818181"/>
<path d="M43.5461 189.627H29.0816C27.8629 189.627 26.8749 188.7 26.8749 187.557L26.8749 173.982C26.8749 172.838 27.8629 171.911 29.0816 171.911H43.5461C44.7648 171.911 45.7528 172.838 45.7528 173.982V187.557C45.7528 188.7 44.7648 189.627 43.5461 189.627Z" fill="#818181"/>
<path d="M108.912 196.601H122.584C124.022 196.601 125.187 197.695 125.187 199.044V211.874C125.187 213.223 124.022 214.317 122.584 214.317H108.912C107.475 214.317 106.309 213.223 106.309 211.874V199.044C106.309 197.695 107.475 196.601 108.912 196.601Z" fill="#818181"/>
<path d="M29.0814 196.601H43.5458C44.7646 196.601 45.7526 197.528 45.7526 198.672V212.246C45.7526 213.39 44.7646 214.317 43.5458 214.317H29.0814C27.8626 214.317 26.8747 213.39 26.8747 212.246V198.672C26.8747 197.528 27.8626 196.601 29.0814 196.601Z" fill="#818181"/>
</g>
<defs>
<clipPath id="clip0_1_401">
<rect width="284.332" height="239.006" fill="white" transform="matrix(-1 0 0 1 284.666 0)"/>
</clipPath>
</defs>
</svg>
