<svg width="285" height="239" viewBox="0 0 285 239" fill="none" xmlns="http://www.w3.org/2000/svg">
<g style="mix-blend-mode:multiply" opacity="0.02" clip-path="url(#clip0_1_289)">
<path d="M268.328 0H282.792C284.011 0 284.999 0.927187 284.999 2.07093V15.6452C284.999 16.789 284.011 17.7162 282.792 17.7162H268.328C267.109 17.7162 266.121 16.789 266.121 15.6452V2.07093C266.121 0.927187 267.109 0 268.328 0Z" fill="black"/>
<path d="M256.312 0H242.244C240.804 0 239.64 1.09209 239.64 2.44305V15.2812C239.64 16.6241 240.804 17.7242 242.244 17.7242H256.312C257.527 17.7242 258.518 16.7939 258.518 15.6533V2.07093C258.518 0.9303 257.527 0 256.312 0Z" fill="black"/>
<path d="M188.894 0H203.359C204.578 0 205.566 0.927187 205.566 2.07093V15.6452C205.566 16.789 204.578 17.7162 203.359 17.7162H188.894C187.676 17.7162 186.688 16.789 186.688 15.6452V2.07093C186.688 0.927187 187.676 0 188.894 0Z" fill="black"/>
<path d="M176.818 42.397H162.353C161.134 42.397 160.146 41.4698 160.146 40.326V26.7517C160.146 25.608 161.134 24.6808 162.353 24.6808L176.818 24.6808C178.036 24.6808 179.024 25.608 179.024 26.7517V40.326C179.024 41.4698 178.036 42.397 176.818 42.397Z" fill="black"/>
<path d="M135.863 0H150.328C151.547 0 152.535 0.927187 152.535 2.07093V15.6452C152.535 16.789 151.547 17.7162 150.328 17.7162H135.863C134.645 17.7162 133.657 16.789 133.657 15.6452V2.07093C133.657 0.927187 134.645 0 135.863 0Z" fill="black"/>
<path d="M150.329 42.397H135.864C134.645 42.397 133.657 41.4698 133.657 40.326V26.7517C133.657 25.608 134.645 24.6808 135.864 24.6808L150.329 24.6808C151.547 24.6808 152.535 25.608 152.535 26.7517V40.326C152.535 41.4698 151.547 42.397 150.329 42.397Z" fill="black"/>
<path d="M229.848 42.397H215.384C214.165 42.397 213.177 41.4698 213.177 40.326V26.7517C213.177 25.608 214.165 24.6808 215.384 24.6808L229.848 24.6808C231.067 24.6808 232.055 25.608 232.055 26.7517V40.326C232.055 41.4698 231.067 42.397 229.848 42.397Z" fill="black"/>
<path d="M241.839 42.397H255.906C257.337 42.397 258.51 41.3049 258.51 39.9539V27.1158C258.51 25.7729 257.346 24.6727 255.906 24.6727L241.839 24.6727C240.623 24.6727 239.632 25.603 239.632 26.7437V40.318C239.632 41.4586 240.623 42.3889 241.839 42.3889V42.397Z" fill="black"/>
<path d="M215.375 49.3711H229.839C231.058 49.3711 232.046 50.2983 232.046 51.442V65.0163C232.046 66.1601 231.058 67.0872 229.839 67.0872H215.375C214.156 67.0872 213.168 66.1601 213.168 65.0163V51.442C213.168 50.2983 214.156 49.3711 215.375 49.3711Z" fill="black"/>
<path d="M188.894 49.3711H203.359C204.578 49.3711 205.566 50.2983 205.566 51.442V65.0163C205.566 66.1601 204.578 67.0872 203.359 67.0872H188.894C187.676 67.0872 186.688 66.1601 186.688 65.0163V51.442C186.688 50.2983 187.676 49.3711 188.894 49.3711Z" fill="black"/>
<path d="M176.818 91.7681H162.353C161.134 91.7681 160.146 90.8409 160.146 89.6971V76.1228C160.146 74.9791 161.134 74.0519 162.353 74.0519H176.818C178.036 74.0519 179.024 74.9791 179.024 76.1228V89.6971C179.024 90.8409 178.036 91.7681 176.818 91.7681Z" fill="black"/>
<path d="M203.358 91.7681H188.894C187.675 91.7681 186.687 90.8409 186.687 89.6971V76.1228C186.687 74.9791 187.675 74.0519 188.894 74.0519H203.358C204.577 74.0519 205.565 74.9791 205.565 76.1228V89.6971C205.565 90.8409 204.577 91.7681 203.358 91.7681Z" fill="black"/>
<path d="M241.839 91.7681H255.906C257.337 91.7681 258.51 90.676 258.51 89.325V76.4869C258.51 75.144 257.346 74.0438 255.906 74.0438H241.839C240.623 74.0438 239.632 74.9741 239.632 76.1148V89.689C239.632 90.8297 240.623 91.76 241.839 91.76V91.7681Z" fill="black"/>
<path d="M282.793 91.7681H268.328C267.109 91.7681 266.121 90.8409 266.121 89.6971V76.1228C266.121 74.9791 267.109 74.0519 268.328 74.0519H282.793C284.011 74.0519 284.999 74.9791 284.999 76.1228V89.6971C284.999 90.8409 284.011 91.7681 282.793 91.7681Z" fill="black"/>
<path d="M255.915 98.741H241.847C240.632 98.741 239.64 99.6713 239.64 100.812V114.386C239.64 115.527 240.632 116.457 241.847 116.457H255.915C257.346 116.457 258.518 115.365 258.518 114.014V101.176C258.518 99.8331 257.355 98.7329 255.915 98.7329V98.741Z" fill="black"/>
<path d="M215.375 98.7412H229.839C231.058 98.7412 232.046 99.6684 232.046 100.812V114.386C232.046 115.53 231.058 116.457 229.839 116.457H215.375C214.156 116.457 213.168 115.53 213.168 114.386V100.812C213.168 99.6684 214.156 98.7412 215.375 98.7412Z" fill="black"/>
<path d="M188.894 98.7412H203.359C204.578 98.7412 205.566 99.6684 205.566 100.812V114.386C205.566 115.53 204.578 116.457 203.359 116.457H188.894C187.676 116.457 186.688 115.53 186.688 114.386V100.812C186.688 99.6684 187.676 98.7412 188.894 98.7412Z" fill="black"/>
<path d="M162.344 98.7412H176.808C178.027 98.7412 179.015 99.6684 179.015 100.812V114.386C179.015 115.53 178.027 116.457 176.808 116.457H162.344C161.125 116.457 160.137 115.53 160.137 114.386V100.812C160.137 99.6684 161.125 98.7412 162.344 98.7412Z" fill="black"/>
<path d="M135.863 98.7412H150.328C151.547 98.7412 152.535 99.6684 152.535 100.812V114.386C152.535 115.53 151.547 116.457 150.328 116.457H135.863C134.645 116.457 133.657 115.53 133.657 114.386V100.812C133.657 99.6684 134.645 98.7412 135.863 98.7412Z" fill="black"/>
<path d="M203.358 141.146H188.894C187.675 141.146 186.687 140.219 186.687 139.076V125.501C186.687 124.358 187.675 123.43 188.894 123.43H203.358C204.577 123.43 205.565 124.358 205.565 125.501V139.076C205.565 140.219 204.577 141.146 203.358 141.146Z" fill="black"/>
<path d="M229.848 141.146H215.384C214.165 141.146 213.177 140.219 213.177 139.076V125.501C213.177 124.358 214.165 123.43 215.384 123.43H229.848C231.067 123.43 232.055 124.358 232.055 125.501V139.076C232.055 140.219 231.067 141.146 229.848 141.146Z" fill="black"/>
<path d="M150.329 141.146H135.864C134.645 141.146 133.657 140.219 133.657 139.076V125.501C133.657 124.358 134.645 123.43 135.864 123.43H150.329C151.547 123.43 152.535 124.358 152.535 125.501V139.076C152.535 140.219 151.547 141.146 150.329 141.146Z" fill="black"/>
<path d="M29.4146 0H43.8791C45.0978 0 46.0858 0.927187 46.0858 2.07093V15.6452C46.0858 16.789 45.0978 17.7162 43.8791 17.7162H29.4146C28.1959 17.7162 27.2079 16.789 27.2079 15.6452V2.07093C27.2079 0.927187 28.1959 0 29.4146 0Z" fill="black"/>
<path d="M2.86471 0H17.3292C18.5479 0 19.5359 0.927187 19.5359 2.07093V15.6452C19.5359 16.789 18.5479 17.7162 17.3292 17.7162H2.86471C1.64596 17.7162 0.657978 16.789 0.657978 15.6452V2.07093C0.657978 0.927187 1.64596 0 2.86471 0Z" fill="black"/>
<path d="M17.3378 42.397H2.87336C1.65461 42.397 0.666626 41.4698 0.666626 40.326L0.666626 26.7517C0.666626 25.608 1.65461 24.6808 2.87336 24.6808L17.3378 24.6808C18.5566 24.6808 19.5445 25.608 19.5445 26.7517L19.5445 40.326C19.5445 41.4698 18.5566 42.397 17.3378 42.397Z" fill="black"/>
<path d="M43.8793 42.397H29.4148C28.1961 42.397 27.2081 41.4698 27.2081 40.326L27.2081 26.7517C27.2081 25.608 28.1961 24.6808 29.4148 24.6808L43.8793 24.6808C45.098 24.6808 46.086 25.608 46.086 26.7517V40.326C46.086 41.4698 45.098 42.397 43.8793 42.397Z" fill="black"/>
<path d="M70.3599 42.397H55.8954C54.6767 42.397 53.6887 41.4698 53.6887 40.326V26.7517C53.6887 25.608 54.6767 24.6808 55.8954 24.6808L70.3599 24.6808C71.5786 24.6808 72.5666 25.608 72.5666 26.7517V40.326C72.5666 41.4698 71.5786 42.397 70.3599 42.397Z" fill="black"/>
<path d="M82.3582 42.397H96.4262C97.8571 42.397 99.0294 41.3049 99.0294 39.9539V27.1158C99.0294 25.7729 97.8657 24.6727 96.4262 24.6727L82.3582 24.6727C81.1428 24.6727 80.1515 25.603 80.1515 26.7437V40.318C80.1515 41.4586 81.1428 42.3889 82.3582 42.3889V42.397Z" fill="black"/>
<path d="M123.313 42.397H108.848C107.63 42.397 106.642 41.4698 106.642 40.326V26.7517C106.642 25.608 107.63 24.6808 108.848 24.6808L123.313 24.6808C124.532 24.6808 125.52 25.608 125.52 26.7517V40.326C125.52 41.4698 124.532 42.397 123.313 42.397Z" fill="black"/>
<path d="M109.246 49.3711H122.917C124.355 49.3711 125.52 50.4649 125.52 51.8141V64.6442C125.52 65.9935 124.355 67.0872 122.917 67.0872H109.246C107.808 67.0872 106.642 65.9935 106.642 64.6442V51.8141C106.642 50.4649 107.808 49.3711 109.246 49.3711Z" fill="black"/>
<path d="M55.904 49.3706H70.3685C71.5872 49.3706 72.5752 50.2978 72.5752 51.4415V65.0158C72.5752 66.1596 71.5872 67.0868 70.3685 67.0868H55.904C54.6853 67.0868 53.6973 66.1596 53.6973 65.0158V51.4415C53.6973 50.2978 54.6853 49.3706 55.904 49.3706Z" fill="black"/>
<path d="M2.86471 49.3706H17.3292C18.5479 49.3706 19.5359 50.2978 19.5359 51.4415V65.0158C19.5359 66.1596 18.5479 67.0868 17.3292 67.0868H2.86471C1.64596 67.0868 0.657978 66.1596 0.657978 65.0158V51.4415C0.657978 50.2978 1.64596 49.3706 2.86471 49.3706Z" fill="black"/>
<path d="M43.8793 91.7681H29.4148C28.1961 91.7681 27.2081 90.8409 27.2081 89.6971L27.2081 76.1228C27.2081 74.9791 28.1961 74.0519 29.4148 74.0519H43.8793C45.098 74.0519 46.086 74.9791 46.086 76.1228V89.6971C46.086 90.8409 45.098 91.7681 43.8793 91.7681Z" fill="black"/>
<path d="M70.3599 91.7681H55.8954C54.6767 91.7681 53.6887 90.8409 53.6887 89.6971V76.1228C53.6887 74.9791 54.6767 74.0519 55.8954 74.0519H70.3599C71.5786 74.0519 72.5666 74.9791 72.5666 76.1228V89.6971C72.5666 90.8409 71.5786 91.7681 70.3599 91.7681Z" fill="black"/>
<path d="M82.3582 91.7681H96.4262C97.8571 91.7681 99.0294 90.676 99.0294 89.325V76.4869C99.0294 75.144 97.8657 74.0438 96.4262 74.0438H82.3582C81.1428 74.0438 80.1515 74.9741 80.1515 76.1148V89.689C80.1515 90.8297 81.1428 91.76 82.3582 91.76V91.7681Z" fill="black"/>
<path d="M123.313 91.7681H108.848C107.63 91.7681 106.642 90.8409 106.642 89.6971V76.1228C106.642 74.9791 107.63 74.0519 108.848 74.0519H123.313C124.532 74.0519 125.52 74.9791 125.52 76.1228V89.6971C125.52 90.8409 124.532 91.7681 123.313 91.7681Z" fill="black"/>
<path d="M108.849 98.7412H123.314C124.532 98.7412 125.52 99.6684 125.52 100.812V114.386C125.52 115.53 124.532 116.457 123.314 116.457H108.849C107.63 116.457 106.642 115.53 106.642 114.386V100.812C106.642 99.6684 107.63 98.7412 108.849 98.7412Z" fill="black"/>
<path d="M55.904 98.7412H70.3685C71.5872 98.7412 72.5752 99.6684 72.5752 100.812V114.386C72.5752 115.53 71.5872 116.457 70.3685 116.457H55.904C54.6853 116.457 53.6973 115.53 53.6973 114.386V100.812C53.6973 99.6684 54.6853 98.7412 55.904 98.7412Z" fill="black"/>
<path d="M29.4146 98.7412H43.8791C45.0978 98.7412 46.0858 99.6684 46.0858 100.812V114.386C46.0858 115.53 45.0978 116.457 43.8791 116.457H29.4146C28.1959 116.457 27.2079 115.53 27.2079 114.386V100.812C27.2079 99.6684 28.1959 98.7412 29.4146 98.7412Z" fill="black"/>
<path d="M2.86471 98.7412H17.3292C18.5479 98.7412 19.5359 99.6684 19.5359 100.812V114.386C19.5359 115.53 18.5479 116.457 17.3292 116.457H2.86471C1.64596 116.457 0.657978 115.53 0.657978 114.386V100.812C0.657978 99.6684 1.64596 98.7412 2.86471 98.7412Z" fill="black"/>
<path d="M43.8793 141.146H29.4148C28.1961 141.146 27.2081 140.219 27.2081 139.076L27.2081 125.501C27.2081 124.358 28.1961 123.43 29.4148 123.43H43.8793C45.098 123.43 46.086 124.358 46.086 125.501V139.076C46.086 140.219 45.098 141.146 43.8793 141.146Z" fill="black"/>
<path d="M70.3599 141.146H55.8954C54.6767 141.146 53.6887 140.219 53.6887 139.076V125.501C53.6887 124.358 54.6767 123.43 55.8954 123.43H70.3599C71.5786 123.43 72.5666 124.358 72.5666 125.501V139.076C72.5666 140.219 71.5786 141.146 70.3599 141.146Z" fill="black"/>
<path d="M82.3582 141.146H96.4262C97.8571 141.146 99.0294 140.054 99.0294 138.703V125.865C99.0294 124.522 97.8657 123.422 96.4262 123.422H82.3582C81.1428 123.422 80.1515 124.353 80.1515 125.493V139.067C80.1515 140.208 81.1428 141.138 82.3582 141.138V141.146Z" fill="black"/>
<path d="M123.313 141.146H108.848C107.63 141.146 106.642 140.219 106.642 139.076V125.501C106.642 124.358 107.63 123.43 108.848 123.43H123.313C124.532 123.43 125.52 124.358 125.52 125.501V139.076C125.52 140.219 124.532 141.146 123.313 141.146Z" fill="black"/>
<path d="M256.312 147.23H242.244C240.813 147.23 239.64 148.323 239.64 149.674V162.512C239.64 163.855 240.804 164.955 242.244 164.955H256.312C257.527 164.955 258.518 164.024 258.518 162.884V149.309C258.518 148.169 257.527 147.239 256.312 147.239V147.23Z" fill="black"/>
<path d="M215.375 147.23H229.839C231.058 147.23 232.046 148.158 232.046 149.301V162.876C232.046 164.019 231.058 164.947 229.839 164.947H215.375C214.156 164.947 213.168 164.019 213.168 162.876V149.301C213.168 148.158 214.156 147.23 215.375 147.23Z" fill="black"/>
<path d="M162.344 147.23H176.808C178.027 147.23 179.015 148.158 179.015 149.301V162.876C179.015 164.019 178.027 164.947 176.808 164.947H162.344C161.125 164.947 160.137 164.019 160.137 162.876V149.301C160.137 148.158 161.125 147.23 162.344 147.23Z" fill="black"/>
<path d="M176.818 189.627H162.353C161.134 189.627 160.146 188.7 160.146 187.557V173.982C160.146 172.838 161.134 171.911 162.353 171.911H176.818C178.036 171.911 179.024 172.838 179.024 173.982V187.557C179.024 188.7 178.036 189.627 176.818 189.627Z" fill="black"/>
<path d="M135.863 147.23H150.328C151.547 147.23 152.535 148.158 152.535 149.301V162.876C152.535 164.019 151.547 164.947 150.328 164.947H135.863C134.645 164.947 133.657 164.019 133.657 162.876V149.301C133.657 148.158 134.645 147.23 135.863 147.23Z" fill="black"/>
<path d="M150.329 189.627H135.864C134.645 189.627 133.657 188.7 133.657 187.557V173.982C133.657 172.838 134.645 171.911 135.864 171.911H150.329C151.547 171.911 152.535 172.838 152.535 173.982V187.557C152.535 188.7 151.547 189.627 150.329 189.627Z" fill="black"/>
<path d="M203.359 189.627H188.894C187.675 189.627 186.687 188.7 186.687 187.557V173.982C186.687 172.838 187.675 171.911 188.894 171.911H203.359C204.577 171.911 205.565 172.838 205.565 173.982V187.557C205.565 188.7 204.577 189.627 203.359 189.627Z" fill="black"/>
<path d="M229.848 189.627H215.384C214.165 189.627 213.177 188.7 213.177 187.557V173.982C213.177 172.838 214.165 171.911 215.384 171.911H229.848C231.067 171.911 232.055 172.838 232.055 173.982V187.557C232.055 188.7 231.067 189.627 229.848 189.627Z" fill="black"/>
<path d="M282.793 189.627H268.328C267.109 189.627 266.121 188.7 266.121 187.557V173.982C266.121 172.838 267.109 171.911 268.328 171.911H282.793C284.011 171.911 284.999 172.838 284.999 173.982V187.557C284.999 188.7 284.011 189.627 282.793 189.627Z" fill="black"/>
<path d="M162.344 196.601H176.808C178.027 196.601 179.015 197.528 179.015 198.672V212.246C179.015 213.39 178.027 214.317 176.808 214.317H162.344C161.125 214.317 160.137 213.39 160.137 212.246V198.672C160.137 197.528 161.125 196.601 162.344 196.601Z" fill="black"/>
<path d="M135.863 196.601H150.328C151.547 196.601 152.535 197.528 152.535 198.672V212.246C152.535 213.39 151.547 214.317 150.328 214.317H135.863C134.645 214.317 133.657 213.39 133.657 212.246V198.672C133.657 197.528 134.645 196.601 135.863 196.601Z" fill="black"/>
<path d="M108.849 147.23H123.314C124.532 147.23 125.52 148.158 125.52 149.301V162.876C125.52 164.019 124.532 164.947 123.314 164.947H108.849C107.63 164.947 106.642 164.019 106.642 162.876V149.301C106.642 148.158 107.63 147.23 108.849 147.23Z" fill="black"/>
<path d="M96.8318 147.23H82.7639C81.333 147.23 80.1607 148.322 80.1607 149.673V162.511C80.1607 163.854 81.3244 164.954 82.7639 164.954H96.8318C98.0473 164.954 99.0386 164.024 99.0386 162.883V149.309C99.0386 148.168 98.0473 147.238 96.8318 147.238V147.23Z" fill="black"/>
<path d="M96.8318 216.766H82.7639C81.333 216.766 80.1607 217.858 80.1607 219.209V232.047C80.1607 233.39 81.3244 234.49 82.7639 234.49H96.8318C98.0473 234.49 99.0386 233.56 99.0386 232.419V218.845C99.0386 217.705 98.0473 216.774 96.8318 216.774V216.766Z" fill="black"/>
<path d="M29.4146 147.23H43.8791C45.0978 147.23 46.0858 148.158 46.0858 149.301V162.876C46.0858 164.019 45.0978 164.947 43.8791 164.947H29.4146C28.1959 164.947 27.2079 164.019 27.2079 162.876V149.301C27.2079 148.158 28.1959 147.23 29.4146 147.23Z" fill="black"/>
<path d="M43.8793 189.627H29.4148C28.1961 189.627 27.2081 188.7 27.2081 187.557L27.2081 173.982C27.2081 172.838 28.1961 171.911 29.4148 171.911H43.8793C45.098 171.911 46.086 172.838 46.086 173.982V187.557C46.086 188.7 45.098 189.627 43.8793 189.627Z" fill="black"/>
<path d="M109.246 196.601H122.917C124.355 196.601 125.52 197.695 125.52 199.044V211.874C125.52 213.223 124.355 214.317 122.917 214.317H109.246C107.808 214.317 106.642 213.223 106.642 211.874V199.044C106.642 197.695 107.808 196.601 109.246 196.601Z" fill="black"/>
<path d="M29.4146 196.601H43.8791C45.0978 196.601 46.0858 197.528 46.0858 198.672V212.246C46.0858 213.39 45.0978 214.317 43.8791 214.317H29.4146C28.1959 214.317 27.2079 213.39 27.2079 212.246V198.672C27.2079 197.528 28.1959 196.601 29.4146 196.601Z" fill="black"/>
</g>
<defs>
<clipPath id="clip0_1_289">
<rect width="284.332" height="239.006" fill="white" transform="matrix(-1 0 0 1 284.999 0)"/>
</clipPath>
</defs>
</svg>
