<svg width="98" height="105" viewBox="0 0 98 105" fill="none" xmlns="http://www.w3.org/2000/svg">
<path d="M74.604 59.34L77.681 57.5516C92.1921 65.929 92.268 79.4946 77.8521 87.872C63.4506 96.2409 40.0154 96.2506 25.5055 87.872C11.0113 79.503 10.9342 65.9193 25.3357 57.5504C39.7516 49.173 63.1868 49.1814 77.6823 57.5504L74.6052 59.3388C61.8259 51.9586 41.1438 51.9502 28.4345 59.3388C15.7347 66.7166 15.8022 78.7058 28.585 86.0836C41.3787 93.4722 62.0596 93.4637 74.7569 86.0836C87.4711 78.6961 87.4037 66.7274 74.6064 59.34H74.604Z" fill="#58F28A"/>
<path d="M73.2792 52.3332C77.1463 54.7093 81.0231 57.7888 82.8801 61.9474C94.5923 88.1948 51.5649 99.3554 28.5838 86.0836C23.5243 83.1642 20.4581 79.5223 19.385 75.7287C17.982 70.6391 18.4396 65.2521 20.6086 61.3163C21.1663 60.3047 22.4718 57.937 25.4706 55.3922C27.748 53.4592 30.3638 51.8454 33.2434 50.5953C39.3072 47.9626 46.42 46.7414 53.8134 47.0618C64.1503 47.5098 70.8705 50.8964 73.2804 52.332C71.9086 51.5407 70.7681 52.4283 70.6983 52.4837C60.1109 46.3657 42.9491 46.3597 32.4184 52.4837C21.8925 58.5945 21.9479 68.5472 32.5424 74.658C43.143 80.7833 60.3048 80.776 70.8235 74.658C81.3639 68.5363 81.3085 58.6066 70.6983 52.4849C70.7681 52.4307 71.9086 51.5419 73.2804 52.3332H73.2792Z" fill="#28A45A"/>
<path d="M88.6142 72.8182C87.3893 79.9575 92.7029 89.8933 77.7438 98.5862C54.7349 111.958 14.4221 102.498 14.4763 83.3212L14.5847 72.6074C14.569 78.1305 18.2122 83.662 25.5056 87.8736C48.3905 101.086 88.56 92.0418 88.6142 72.8182Z" fill="#28A45A"/>
<path d="M70.709 48.2277C81.3192 54.3494 81.3746 64.2791 70.8343 70.4008C60.3156 76.5188 43.1538 76.5261 32.5532 70.4008C21.9586 64.29 21.902 54.3373 32.4291 48.2265C42.9599 42.1025 60.1217 42.1085 70.709 48.2265V48.2277Z" fill="#58F28A"/>
<circle cx="51.546" cy="46.1139" r="35.0153" fill="url(#paint0_linear_1_1821)"/>
<path d="M8.62013 31.9151C8.62013 31.9151 7.73397 34.3434 7.68055 34.9447C7.62713 35.5459 7.12212 36.6329 8.6789 37.4513C8.6789 37.4513 10.496 38.3215 11.0073 38.4304C11.0073 38.4304 9.0724 37.7518 8.52723 37.6985C7.98206 37.6451 6.91342 37.3994 5.97262 39.5658L5.04507 41.9558C5.04507 41.9558 5.90847 39.412 5.99484 38.8863C6.08121 38.3606 6.5055 37.1304 4.85504 36.3426L2.78673 35.479C2.78673 35.479 4.46433 36.1312 5.50809 36.2135C6.55184 36.2959 7.43135 35.1831 8.62013 31.9151Z" fill="#33B568" stroke="#33B568" stroke-width="0.49391" stroke-miterlimit="10"/>
<circle cx="30.1567" cy="1.64019" r="1.20009" transform="rotate(5.63183 30.1567 1.64019)" fill="white"/>
<circle cx="10.4754" cy="60.626" r="1.20009" transform="rotate(5.63183 10.4754 60.626)" fill="#33B568"/>
<circle cx="14.5849" cy="101.154" r="1.20009" transform="rotate(5.63183 14.5849 101.154)" fill="white"/>
<circle cx="96.7749" cy="85.3805" r="0.666886" transform="rotate(5.63183 96.7749 85.3805)" fill="white"/>
<circle cx="72.675" cy="6.58608" r="1.9393" transform="rotate(5.63183 72.675 6.58608)" fill="#33B568"/>
<path d="M85.8428 16.1316C85.8428 16.1316 83.8999 21.4556 83.7828 22.7737C83.6657 24.0918 82.5585 26.475 85.9716 28.2694C85.9716 28.2694 89.9555 30.1771 91.0763 30.4159C91.0763 30.4159 86.8343 28.928 85.6391 28.8111C84.4438 28.6943 82.1009 28.1555 80.0383 32.9051L78.0048 38.145C78.0048 38.145 79.8977 32.5679 80.087 31.4153C80.2764 30.2628 81.2066 27.5657 77.5881 25.8385L73.0536 23.9451C73.0536 23.9451 76.7316 25.375 79.0199 25.5556C81.3082 25.7362 83.2365 23.2965 85.8428 16.1316Z" fill="white" stroke="white" stroke-width="0.49391" stroke-miterlimit="10"/>
<defs>
<linearGradient id="paint0_linear_1_1821" x1="51.8461" y1="13.004" x2="51.8461" y2="81.1284" gradientUnits="userSpaceOnUse">
<stop offset="0.4375" stop-color="#D4F938"/>
<stop offset="1" stop-color="#32D875" stop-opacity="0.96"/>
</linearGradient>
</defs>
</svg>
