<svg width="109" height="105" viewBox="0 0 109 105" fill="none" xmlns="http://www.w3.org/2000/svg">
<g opacity="0.04">
<path d="M31.6921 0.557617H47.253C48.5641 0.557617 49.627 1.6165 49.627 2.92269V18.425C49.627 19.7311 48.5641 20.79 47.253 20.79H31.6921C30.381 20.79 29.3181 19.7311 29.3181 18.425V2.92269C29.3181 1.6165 30.381 0.557617 31.6921 0.557617Z" fill="black"/>
<path d="M47.2538 48.9858H31.693C30.3818 48.9858 29.319 47.927 29.319 46.6208L29.319 31.1185C29.319 29.8123 30.3818 28.7534 31.693 28.7534L47.2538 28.7534C48.5649 28.7534 49.6278 29.8123 49.6278 31.1185V46.6208C49.6278 47.927 48.5649 48.9858 47.2538 48.9858Z" fill="black"/>
<path d="M2.63019 0.557861H18.191C19.5021 0.557861 20.565 1.61674 20.565 2.92293V18.4252C20.565 19.7314 19.5021 20.7903 18.191 20.7903H2.63019C1.31906 20.7903 0.256189 19.7314 0.256189 18.4252V2.92293C0.256189 1.61674 1.31906 0.557861 2.63019 0.557861Z" fill="black"/>
<path d="M18.1904 48.9858H2.62957C1.31844 48.9858 0.255554 47.927 0.255554 46.6208L0.255554 31.1185C0.255554 29.8123 1.31844 28.7534 2.62957 28.7534L18.1904 28.7534C19.5015 28.7534 20.5644 29.8123 20.5644 31.1185L20.5644 46.6208C20.5644 47.927 19.5015 48.9858 18.1904 48.9858Z" fill="black"/>
<path d="M31.6921 55.9336H47.253C48.5641 55.9336 49.627 56.9925 49.627 58.2987V73.8009C49.627 75.1071 48.5641 76.166 47.253 76.166H31.6921C30.381 76.166 29.3181 75.1071 29.3181 73.8009V58.2987C29.3181 56.9925 30.381 55.9336 31.6921 55.9336Z" fill="black"/>
<path d="M47.2538 104.353H31.693C30.3818 104.353 29.319 103.294 29.319 101.987L29.319 86.4852C29.319 85.179 30.3818 84.1201 31.693 84.1201H47.2538C48.5649 84.1201 49.6278 85.179 49.6278 86.4852V101.987C49.6278 103.294 48.5649 104.353 47.2538 104.353Z" fill="black"/>
<path d="M91.0199 0.557617H106.581C107.892 0.557617 108.955 1.6165 108.955 2.92269V18.425C108.955 19.7311 107.892 20.79 106.581 20.79H91.0199C89.7088 20.79 88.6459 19.7311 88.6459 18.425V2.92269C88.6459 1.6165 89.7088 0.557617 91.0199 0.557617Z" fill="black"/>
<path d="M106.582 48.9858H91.0208C89.7096 48.9858 88.6468 47.927 88.6468 46.6208V31.1185C88.6468 29.8123 89.7096 28.7534 91.0208 28.7534L106.582 28.7534C107.893 28.7534 108.956 29.8123 108.956 31.1185V46.6208C108.956 47.927 107.893 48.9858 106.582 48.9858Z" fill="black"/>
<path d="M61.958 0.557861H77.5188C78.8299 0.557861 79.8928 1.61674 79.8928 2.92293V18.4252C79.8928 19.7314 78.8299 20.7903 77.5188 20.7903H61.958C60.6469 20.7903 59.584 19.7314 59.584 18.4252V2.92293C59.584 1.61674 60.6469 0.557861 61.958 0.557861Z" fill="black"/>
<path d="M77.5182 48.9858H61.9574C60.6462 48.9858 59.5833 47.927 59.5833 46.6208V31.1185C59.5833 29.8123 60.6462 28.7534 61.9574 28.7534L77.5182 28.7534C78.8293 28.7534 79.8922 29.8123 79.8922 31.1185V46.6208C79.8922 47.927 78.8293 48.9858 77.5182 48.9858Z" fill="black"/>
<path d="M91.0199 55.9336H106.581C107.892 55.9336 108.955 56.9925 108.955 58.2987V73.8009C108.955 75.1071 107.892 76.166 106.581 76.166H91.0199C89.7088 76.166 88.6459 75.1071 88.6459 73.8009V58.2987C88.6459 56.9925 89.7088 55.9336 91.0199 55.9336Z" fill="black"/>
<path d="M106.582 104.353H91.0208C89.7096 104.353 88.6468 103.294 88.6468 101.987V86.4852C88.6468 85.179 89.7096 84.1201 91.0208 84.1201H106.582C107.893 84.1201 108.956 85.179 108.956 86.4852V101.987C108.956 103.294 107.893 104.353 106.582 104.353Z" fill="black"/>
</g>
</svg>
