<svg width="67" height="71" viewBox="0 0 67 71" fill="none" xmlns="http://www.w3.org/2000/svg">
<path d="M51.0454 40.0439L53.1251 38.8351C62.9329 44.4972 62.9841 53.6659 53.2407 59.328C43.507 64.9844 27.6677 64.9909 17.8608 59.328C8.06442 53.6716 8.01233 44.4907 17.746 38.8343C27.4894 33.1722 43.3288 33.1779 53.1259 38.8343L51.0462 40.043C42.409 35.0549 28.4304 35.0492 19.8404 40.043C11.2569 45.0295 11.3025 53.1328 19.9421 58.1193C28.5891 63.1131 42.5669 63.1074 51.1488 58.1193C59.742 53.1263 59.6964 45.0369 51.047 40.0439H51.0454Z" fill="#58F28A"/>
<path d="M50.1501 35.3081C52.7638 36.9141 55.3841 38.9955 56.6392 41.8062C64.5553 59.5462 35.4739 67.0894 19.9414 58.1193C16.5219 56.1462 14.4495 53.6847 13.7242 51.1206C12.7759 47.6807 13.0852 44.0397 14.5512 41.3796C14.9281 40.6959 15.8105 39.0956 17.8373 37.3756C19.3765 36.0692 21.1445 34.9784 23.0908 34.1335C27.1892 32.3541 31.9966 31.5288 36.9937 31.7453C43.9801 32.0481 48.5222 34.337 50.1509 35.3073C49.2238 34.7725 48.453 35.3724 48.4058 35.4098C41.25 31.2748 29.6507 31.2707 22.5332 35.4098C15.4189 39.54 15.4564 46.2668 22.617 50.397C29.7817 54.5369 41.381 54.532 48.4904 50.397C55.6144 46.2595 55.577 39.5482 48.4058 35.4107C48.453 35.374 49.2238 34.7733 50.1509 35.3081H50.1501Z" fill="#28A45A"/>
<path d="M60.5147 49.1532C59.6869 53.9785 63.2782 60.6939 53.1677 66.5693C37.6164 75.607 10.3698 69.2131 10.4065 56.252L10.4797 49.0107C10.4691 52.7437 12.9315 56.4823 17.861 59.3288C33.3283 68.2591 60.4781 62.1461 60.5147 49.1532Z" fill="#28A45A"/>
<path d="M48.4128 32.5333C55.584 36.6708 55.6215 43.3821 48.4974 47.5196C41.3881 51.6547 29.7888 51.6596 22.624 47.5196C15.4634 43.3895 15.4251 36.6627 22.5402 32.5325C29.6577 28.3934 41.257 28.3975 48.4128 32.5325V32.5333Z" fill="#58F28A"/>
<circle cx="35.4607" cy="31.1046" r="23.6661" fill="url(#paint0_linear_1_176)"/>
<path d="M6.44823 21.508C6.44823 21.508 5.84929 23.1493 5.81318 23.5557C5.77708 23.962 5.43575 24.6967 6.48795 25.2499C6.48795 25.2499 7.71611 25.838 8.06164 25.9116C8.06164 25.9116 6.75391 25.4529 6.38544 25.4169C6.01697 25.3809 5.29469 25.2148 4.65883 26.679L4.03191 28.2943C4.03191 28.2943 4.61547 26.575 4.67385 26.2197C4.73222 25.8644 5.01899 25.033 3.90348 24.5005L2.50555 23.9168C2.50555 23.9168 3.63941 24.3576 4.34486 24.4133C5.05031 24.4689 5.64476 23.7168 6.44823 21.508Z" fill="#33B568" stroke="#33B568" stroke-width="0.275772" stroke-miterlimit="10"/>
<circle cx="21.0042" cy="1.04598" r="0.811116" transform="rotate(5.63183 21.0042 1.04598)" fill="white"/>
<circle cx="7.70215" cy="40.9132" r="0.811116" transform="rotate(5.63183 7.70215 40.9132)" fill="#33B568"/>
<circle cx="10.4797" cy="68.3053" r="0.811116" transform="rotate(5.63183 10.4797 68.3053)" fill="white"/>
<circle cx="66.03" cy="57.6446" r="0.450735" transform="rotate(5.63183 66.03 57.6446)" fill="white"/>
<circle cx="49.7416" cy="4.38909" r="1.31073" transform="rotate(5.63183 49.7416 4.38909)" fill="#33B568"/>
<path d="M58.6413 10.8402C58.6413 10.8402 57.3282 14.4385 57.2491 15.3294C57.1699 16.2203 56.4216 17.831 58.7284 19.0438C58.7284 19.0438 61.421 20.3332 62.1786 20.4946C62.1786 20.4946 59.3115 19.489 58.5037 19.41C57.6958 19.331 56.1123 18.9669 54.7182 22.177L53.3438 25.7185C53.3438 25.7185 54.6232 21.9491 54.7512 21.1701C54.8791 20.3911 55.5079 18.5682 53.0622 17.4008L49.9974 16.1211C49.9974 16.1211 52.4833 17.0876 54.0299 17.2096C55.5765 17.3317 56.8798 15.6827 58.6413 10.8402Z" fill="white" stroke="white" stroke-width="0.275772" stroke-miterlimit="10"/>
<defs>
<linearGradient id="paint0_linear_1_176" x1="35.6636" y1="8.72625" x2="35.6636" y2="54.7701" gradientUnits="userSpaceOnUse">
<stop offset="0.4375" stop-color="#D4F938"/>
<stop offset="1" stop-color="#32D875" stop-opacity="0.96"/>
</linearGradient>
</defs>
</svg>
