<svg width="131" height="187" viewBox="0 0 131 187" fill="none" xmlns="http://www.w3.org/2000/svg">
<g style="mix-blend-mode:multiply" opacity="0.5">
<path d="M25.9891 171.829L12.897 179.387L25.9891 186.946L39.0794 179.387L25.9891 171.829Z" fill="#A591AA"/>
</g>
<g style="mix-blend-mode:multiply" opacity="0.5">
<path d="M87.2926 136.804L74.2005 144.361L87.2926 151.919L100.383 144.362L87.2926 136.804Z" fill="#A591AA"/>
</g>
<g style="mix-blend-mode:multiply" opacity="0.5">
<path d="M107.65 125.378L94.5582 132.937L107.65 140.495L120.741 132.937L107.65 125.378Z" fill="#A591AA"/>
</g>
<g style="mix-blend-mode:multiply" opacity="0.5">
<path d="M68.0989 148.722L55.0068 156.28L68.0989 163.839L81.1892 156.28L68.0989 148.722Z" fill="#A591AA"/>
</g>
<g style="mix-blend-mode:multiply" opacity="0.5">
<path d="M47.1202 160.072L34.0299 167.63L47.1202 175.189L60.2123 167.63L47.1202 160.072Z" fill="#A591AA"/>
</g>
<path d="M107.65 133.263C107.308 133.263 107.03 132.985 107.03 132.643V110.074C107.03 109.731 107.308 109.454 107.65 109.454C107.993 109.454 108.27 109.731 108.27 110.074V132.643C108.27 132.985 107.993 133.263 107.65 133.263Z" fill="#AAA617"/>
<path d="M107.65 102.386L94.3331 110.073L107.65 117.762L120.967 110.073L107.65 102.386Z" fill="#AF982B"/>
<path d="M107.65 16.4512L94.3331 24.1385L107.65 31.8259L120.967 24.1385L107.65 16.4512Z" fill="#58F28A"/>
<path d="M94.3331 24.1382V110.074L107.65 117.763V31.8256L94.3331 24.1382Z" fill="#058A36"/>
<path d="M107.651 31.8256V117.763L120.968 110.074V24.1382L107.651 31.8256Z" fill="url(#paint0_linear_1_116)"/>
<path d="M107.65 24.7583C107.308 24.7583 107.03 24.4809 107.03 24.1382V1.56928C107.03 1.22662 107.308 0.949219 107.65 0.949219C107.993 0.949219 108.27 1.22662 108.27 1.56928V24.1382C108.27 24.4809 107.993 24.7583 107.65 24.7583Z" fill="#AAA617"/>
<path d="M87.2926 145.131C86.9499 145.131 86.6725 144.853 86.6725 144.511V121.942C86.6725 121.599 86.9499 121.322 87.2926 121.322C87.6353 121.322 87.9127 121.599 87.9127 121.942V144.511C87.9127 144.853 87.6353 145.131 87.2926 145.131Z" fill="#AAA617"/>
<path d="M87.2923 114.254L73.9754 121.942L87.2923 129.631L100.607 121.942L87.2923 114.254Z" fill="#AF982B"/>
<path d="M87.2923 63.0391L73.9754 70.7282L87.2923 78.4156L100.607 70.7282L87.2923 63.0391Z" fill="#58F28A"/>
<path d="M73.9754 70.7285V121.942L87.2923 129.631V78.4159L73.9754 70.7285Z" fill="#058A36"/>
<path d="M87.2918 78.4159V129.631L100.607 121.942V70.7285L87.2918 78.4159Z" fill="url(#paint1_linear_1_116)"/>
<path d="M87.2927 71.3482C86.9501 71.3482 86.6727 71.0708 86.6727 70.7281V48.1591C86.6727 47.8165 86.9501 47.5391 87.2927 47.5391C87.6354 47.5391 87.9128 47.8165 87.9128 48.1591V70.7281C87.9128 71.0708 87.6354 71.3482 87.2927 71.3482Z" fill="#AAA617"/>
<path d="M68.0993 156.986C67.7566 156.986 67.4792 156.708 67.4792 156.366V133.797C67.4792 133.454 67.7566 133.177 68.0993 133.177C68.4419 133.177 68.7193 133.454 68.7193 133.797V156.366C68.7193 156.708 68.4419 156.986 68.0993 156.986Z" fill="#AAA617"/>
<path d="M68.0991 126.109L54.7822 133.797L68.0991 141.486L81.4142 133.799L68.0991 126.109Z" fill="#AF982B"/>
<path d="M68.0991 94.7363L54.7822 102.424L68.0991 110.113L81.4142 102.424L68.0991 94.7363Z" fill="#58F28A"/>
<path d="M54.782 102.424V133.797L68.099 141.486V110.113L54.782 102.424Z" fill="#058A36"/>
<path d="M68.0983 110.113V141.486L81.4134 133.799V102.424L68.0983 110.113Z" fill="url(#paint2_linear_1_116)"/>
<path d="M68.0993 103.044C67.7566 103.044 67.4792 102.767 67.4792 102.424V79.8549C67.4792 79.5123 67.7566 79.2349 68.0993 79.2349C68.4419 79.2349 68.7193 79.5123 68.7193 79.8549V102.424C68.7193 102.767 68.4419 103.044 68.0993 103.044Z" fill="#AAA617"/>
<path d="M47.1192 168.171C46.7765 168.171 46.4991 167.894 46.4991 167.551V144.982C46.4991 144.639 46.7765 144.362 47.1192 144.362C47.4619 144.362 47.7393 144.639 47.7393 144.982V167.551C47.7393 167.894 47.4619 168.171 47.1192 168.171Z" fill="#AAA617"/>
<path d="M47.1203 137.294L33.8052 144.982L47.1203 152.671L60.4373 144.984L47.1203 137.294Z" fill="#AF982B"/>
<path d="M47.1203 58.7998L33.8052 66.4872L47.1203 74.1764L60.4373 66.4872L47.1203 58.7998Z" fill="#58F28A"/>
<path d="M33.8052 66.4873V144.982L47.1203 152.671V74.1765L33.8052 66.4873Z" fill="#058A36"/>
<path d="M47.1199 74.1765V152.671L60.4369 144.984V66.4873L47.1199 74.1765Z" fill="url(#paint3_linear_1_116)"/>
<path d="M47.1192 67.1069C46.7765 67.1069 46.4991 66.8295 46.4991 66.4869V43.9179C46.4991 43.5752 46.7765 43.2979 47.1192 43.2979C47.4618 43.2979 47.7392 43.5752 47.7392 43.9179V66.4869C47.7392 66.8295 47.4618 67.1069 47.1192 67.1069Z" fill="#AAA617"/>
<path d="M25.9896 179.986C25.647 179.986 25.3696 179.708 25.3696 179.366V156.797C25.3696 156.454 25.647 156.177 25.9896 156.177C26.3323 156.177 26.6097 156.454 26.6097 156.797V179.366C26.6097 179.708 26.3323 179.986 25.9896 179.986Z" fill="#AAA617"/>
<path d="M25.9892 149.11L12.6723 156.797L25.9892 164.486L39.3043 156.797L25.9892 149.11Z" fill="#AF982B"/>
<path d="M25.9892 100.375L12.6723 108.064L25.9892 115.752L39.3043 108.064L25.9892 100.375Z" fill="#58F28A"/>
<path d="M12.6723 108.064V156.797L25.9892 164.486V115.751L12.6723 108.064Z" fill="#058A36"/>
<path d="M25.9886 115.751V164.486L39.3037 156.797V108.064L25.9886 115.751Z" fill="url(#paint4_linear_1_116)"/>
<path d="M25.9896 108.684C25.647 108.684 25.3696 108.407 25.3696 108.064V85.4951C25.3696 85.1524 25.647 84.875 25.9896 84.875C26.3323 84.875 26.6097 85.1524 26.6097 85.4951V108.064C26.6097 108.407 26.3323 108.684 25.9896 108.684Z" fill="#AAA617"/>
<path d="M71.55 68.1144C71.55 68.1144 70.8793 69.9523 70.8389 70.4073C70.7985 70.8624 70.4162 71.685 71.5945 72.3045C71.5945 72.3045 72.9697 72.963 73.3567 73.0455C73.3567 73.0455 71.8923 72.5318 71.4797 72.4915C71.0671 72.4512 70.2583 72.2652 69.5463 73.9048L68.8443 75.7136C68.8443 75.7136 69.4977 73.7884 69.5631 73.3905C69.6284 72.9926 69.9496 72.0616 68.7004 71.4653L67.1351 70.8117C67.1351 70.8117 68.4047 71.3053 69.1947 71.3677C69.9846 71.43 70.6503 70.5878 71.55 68.1144Z" fill="white" stroke="white" stroke-width="0.059467" stroke-miterlimit="10"/>
<circle cx="88.1102" cy="43.3915" r="0.908273" transform="rotate(5.63183 88.1102 43.3915)" fill="#33B568"/>
<circle cx="31.6508" cy="94.7372" r="0.908273" transform="rotate(5.63183 31.6508 94.7372)" fill="#33B568"/>
<circle cx="11.902" cy="162.847" r="0.908273" transform="rotate(5.63183 11.902 162.847)" fill="#33B568"/>
<circle cx="1.34802" cy="126.925" r="0.908273" transform="rotate(5.63183 1.34802 126.925)" fill="white"/>
<circle cx="88.5715" cy="120.367" r="0.908273" transform="rotate(5.63183 88.5715 120.367)" fill="white"/>
<circle cx="122.945" cy="114.237" r="0.504724" transform="rotate(5.63183 122.945 114.237)" fill="white"/>
<circle cx="117.188" cy="11.2507" r="1.46774" transform="rotate(5.63183 117.188 11.2507)" fill="#33B568"/>
<path d="M117.64 58.9627C117.64 58.9627 119.481 62.837 120.13 63.5999C120.779 64.3629 121.476 66.2253 124.256 65.3368C124.256 65.3368 127.4 64.2006 128.124 63.7228C128.124 63.7228 125.069 65.2211 124.372 65.8038C123.674 66.3865 122.14 67.3643 123.607 70.9983L125.354 74.877C125.354 74.877 123.35 70.8951 122.829 70.1811C122.308 69.4671 121.347 67.5336 118.494 68.5685L115.066 70.0094C115.066 70.0094 117.79 68.7845 119.102 67.646C120.414 66.5075 120.122 64.1722 117.64 58.9627Z" fill="white" stroke="white" stroke-width="0.059467" stroke-miterlimit="10"/>
<defs>
<linearGradient id="paint0_linear_1_116" x1="114.367" y1="26.6854" x2="73.5117" y2="93.4609" gradientUnits="userSpaceOnUse">
<stop offset="0.4267" stop-color="#D4F938"/>
<stop offset="1" stop-color="#32D875" stop-opacity="0.96"/>
</linearGradient>
<linearGradient id="paint1_linear_1_116" x1="94.0064" y1="72.3311" x2="74.6483" y2="122.616" gradientUnits="userSpaceOnUse">
<stop offset="0.4267" stop-color="#D4F938"/>
<stop offset="1" stop-color="#32D875" stop-opacity="0.96"/>
</linearGradient>
<linearGradient id="paint2_linear_1_116" x1="74.8129" y1="103.487" x2="65.6358" y2="139.433" gradientUnits="userSpaceOnUse">
<stop offset="0.4267" stop-color="#D4F938"/>
<stop offset="1" stop-color="#32D875" stop-opacity="0.96"/>
</linearGradient>
<linearGradient id="paint3_linear_1_116" x1="53.8355" y1="68.8321" x2="17.7148" y2="132.967" gradientUnits="userSpaceOnUse">
<stop offset="0.4267" stop-color="#D4F938"/>
<stop offset="1" stop-color="#32D875" stop-opacity="0.96"/>
</linearGradient>
<linearGradient id="paint4_linear_1_116" x1="32.7032" y1="109.599" x2="14.7499" y2="158.284" gradientUnits="userSpaceOnUse">
<stop offset="0.4267" stop-color="#D4F938"/>
<stop offset="1" stop-color="#32D875" stop-opacity="0.96"/>
</linearGradient>
</defs>
</svg>
