<svg width="110" height="97" viewBox="0 0 110 97" fill="none" xmlns="http://www.w3.org/2000/svg">
<path d="M33.6931 7.71959C25.901 7.94842 20.2202 14.6609 20.9797 22.731C21.7391 30.8012 28.6502 37.1323 36.4423 36.9034C44.2344 36.6746 49.9152 29.9622 49.1709 21.9072C48.4267 13.8523 41.4852 7.50601 33.6931 7.71959Z" fill="url(#paint0_linear_1_1734)"/>
<path d="M15.3905 24.7296C15.3905 24.5313 15.4209 24.333 15.4361 24.1347C15.4664 23.7991 15.4664 23.4634 15.512 23.1431C15.512 23.0668 15.5424 23.0058 15.5576 22.9295C15.6032 22.6702 15.6487 22.4261 15.7095 22.182C15.755 21.9379 15.8006 21.6785 15.8614 21.4497C15.8766 21.3582 15.9221 21.2819 15.9373 21.2056C16.0285 20.9158 16.1196 20.6259 16.2259 20.3361C16.3322 20.0462 16.4234 19.7716 16.5449 19.497C16.6664 19.2224 16.8031 18.9631 16.9398 18.6885C17.0309 18.5054 17.1221 18.2918 17.2132 18.1088C17.2588 18.0325 17.3043 17.9715 17.3499 17.9104C17.517 17.6206 17.7145 17.346 17.9119 17.0866C18.0334 16.9188 18.1246 16.7358 18.2461 16.5832C18.2916 16.5222 18.3524 16.4764 18.398 16.4154C18.5195 16.2628 18.6714 16.1103 18.8081 15.9577C18.96 15.7899 19.0967 15.6068 19.2638 15.439C19.3549 15.3475 19.4612 15.2712 19.5524 15.1797C19.6739 15.0576 19.8106 14.9509 19.9321 14.8288C20.0384 14.7373 20.1447 14.6305 20.2511 14.5237C20.5245 14.3101 20.7979 14.0965 21.0865 13.8982L26.6306 10.0386C26.2204 10.3284 25.8407 10.6335 25.4762 10.9692C25.3395 11.0912 25.218 11.198 25.0964 11.32C24.8382 11.5641 24.5952 11.8235 24.3522 12.0981C24.2155 12.2506 24.0788 12.4032 23.9421 12.5557C23.775 12.7693 23.6231 12.9981 23.456 13.227C23.2585 13.5016 23.0763 13.7762 22.894 14.066C22.7421 14.3101 22.6206 14.5847 22.4839 14.8441C22.3472 15.1034 22.2105 15.378 22.089 15.6526C21.9675 15.9272 21.8763 16.2171 21.77 16.4917C21.6637 16.7815 21.5573 17.0561 21.4814 17.3612C21.3903 17.6816 21.3143 18.0172 21.2536 18.3528C21.208 18.5969 21.1472 18.8563 21.1017 19.1004C21.0409 19.497 21.0105 19.8936 20.9802 20.2903C20.9802 20.4886 20.9346 20.6869 20.9346 20.8853C20.9194 21.4955 20.9346 22.121 20.9953 22.7464C20.9953 22.899 21.0409 23.0363 21.0561 23.1888C21.1169 23.6618 21.1928 24.1347 21.2991 24.5924C21.3447 24.8059 21.3903 25.0043 21.451 25.2178C21.527 25.4924 21.6029 25.7823 21.694 26.0569C21.77 26.2857 21.8459 26.4993 21.9219 26.7281C21.9978 26.9417 22.089 27.1705 22.1801 27.3841C22.2712 27.6129 22.3776 27.8418 22.4991 28.0706C22.5902 28.2689 22.6813 28.452 22.7877 28.6503C22.9092 28.8792 23.0307 29.0927 23.1674 29.3216C23.2737 29.5046 23.3801 29.6877 23.5016 29.8555C23.6383 30.0691 23.7902 30.2674 23.9269 30.481C24.0484 30.6641 24.1851 30.8319 24.3218 31.0149C24.4737 31.198 24.6256 31.3811 24.7775 31.5489C24.9445 31.7472 25.1116 31.9303 25.2787 32.1133C25.4154 32.2659 25.5673 32.4032 25.7192 32.5557C25.947 32.7693 26.1749 32.9981 26.4027 33.1965C26.5394 33.3185 26.6913 33.4406 26.828 33.5473C27.2229 33.8677 27.633 34.1728 28.0432 34.4474C28.1343 34.5084 28.2102 34.5695 28.3014 34.6305C28.3773 34.6763 28.4685 34.722 28.5444 34.783C28.833 34.9509 29.1216 35.1187 29.4102 35.2712C29.5317 35.3322 29.6532 35.3933 29.7747 35.4543C30.0633 35.5916 30.3367 35.7136 30.6405 35.8357C30.7468 35.8814 30.8532 35.9272 30.9747 35.973C31.3696 36.1255 31.7797 36.2628 32.1898 36.3849C32.2506 36.4001 32.3113 36.4154 32.3721 36.4306C32.7214 36.5222 33.0708 36.6137 33.4353 36.6747C33.572 36.7052 33.7087 36.7205 33.8303 36.7358C34.134 36.7815 34.453 36.8273 34.7568 36.8578C34.8935 36.8578 35.015 36.8883 35.1517 36.8883C35.5922 36.9188 36.0175 36.9341 36.458 36.9188C39.1313 36.8425 41.5464 36.0035 43.5514 34.6152L38.0073 38.4749C36.0023 39.8631 33.5872 40.7022 30.9139 40.7785C30.4734 40.7785 30.0329 40.7785 29.6076 40.748C29.4709 40.748 29.3494 40.7174 29.2127 40.7174C28.8938 40.6869 28.59 40.6564 28.2862 40.5954C28.1495 40.5801 28.0128 40.5496 27.8913 40.5344C27.5267 40.4581 27.1774 40.3818 26.828 40.2903C26.7673 40.275 26.7065 40.2598 26.6457 40.2445C26.2356 40.1225 25.8407 39.9852 25.4306 39.8326C25.3243 39.7869 25.218 39.7411 25.0964 39.6953C24.8078 39.5733 24.5192 39.4512 24.2306 39.3139C24.1091 39.2529 23.9876 39.1919 23.8661 39.1309C23.5775 38.9783 23.2737 38.8105 23.0003 38.6427C22.9244 38.5969 22.8332 38.5512 22.7573 38.4901C22.7269 38.4749 22.7117 38.4596 22.6813 38.4444C22.6206 38.3986 22.5598 38.3528 22.4991 38.3071C22.0738 38.0325 21.6789 37.7274 21.2839 37.407C21.2232 37.346 21.1472 37.3155 21.0713 37.2544C20.9953 37.1934 20.9194 37.1171 20.8434 37.0561C20.6004 36.8425 20.3726 36.629 20.1599 36.4154C20.0688 36.3239 19.9625 36.2476 19.8713 36.156C19.8106 36.095 19.765 36.034 19.7194 35.973C19.5524 35.7899 19.3853 35.6068 19.2182 35.4085C19.1119 35.2865 19.0055 35.1797 18.8992 35.0576C18.8537 34.9966 18.8081 34.9356 18.7625 34.8746C18.6258 34.7068 18.5043 34.5237 18.3828 34.3559C18.2916 34.2186 18.1853 34.0965 18.0942 33.9592C18.0486 33.883 18.0031 33.8067 17.9575 33.7304C17.8512 33.5626 17.7296 33.3795 17.6233 33.1965C17.5474 33.0592 17.4562 32.9371 17.3803 32.8151C17.3347 32.7235 17.2892 32.6168 17.2436 32.5252C17.1373 32.3422 17.0461 32.1438 16.955 31.9455C16.8942 31.8235 16.8335 31.7014 16.7727 31.5794C16.7272 31.4726 16.6816 31.3658 16.636 31.2438C16.5449 31.0302 16.4537 30.8166 16.3778 30.5878C16.3322 30.4657 16.2867 30.3589 16.2411 30.2369C16.2107 30.1301 16.1803 30.0233 16.15 29.9165C16.0588 29.6419 15.9829 29.3673 15.9069 29.0775C15.8766 28.9554 15.831 28.8334 15.8006 28.6961C15.7854 28.6198 15.7702 28.5283 15.755 28.452C15.6487 27.9943 15.5728 27.5214 15.512 27.0485C15.512 26.957 15.4816 26.8654 15.4664 26.7739C15.4664 26.7129 15.4664 26.6671 15.4513 26.6061C15.3905 25.9806 15.3753 25.3551 15.3905 24.7449V24.7296Z" fill="#269B56"/>
<path d="M33.8149 42.7772C17.365 43.2501 5.15279 55.5766 6.53501 70.2982L66.1073 68.5743C64.7251 53.8527 50.2649 42.3043 33.8149 42.7772Z" fill="url(#paint1_linear_1_1734)"/>
<path d="M0.900316 72.0674C0.900316 71.7165 0.900316 71.3504 0.900316 70.9995C0.900316 70.8012 0.915506 70.6028 0.930696 70.4045C0.945885 70.0842 0.976263 69.7638 1.00664 69.4434C1.02183 69.2451 1.05221 69.0315 1.08259 68.8332C1.09778 68.6807 1.11297 68.5434 1.12816 68.3908C1.12816 68.3145 1.15854 68.2382 1.17372 68.162C1.31043 67.3534 1.46232 66.5601 1.67497 65.7668C1.67497 65.7211 1.67497 65.6906 1.70535 65.6448C1.7661 65.416 1.84205 65.1871 1.918 64.9583C1.97876 64.76 2.03951 64.5464 2.11546 64.3481C2.22178 64.043 2.32811 63.7531 2.44962 63.448C2.52557 63.2649 2.58632 63.0819 2.66227 62.8988C2.79897 62.5479 2.96605 62.2123 3.11795 61.8767C3.1787 61.7546 3.23947 61.6173 3.30022 61.4953C3.52806 61.0376 3.7559 60.5952 4.01411 60.1528C4.01411 60.1528 4.01411 60.1528 4.01411 60.1376C4.28752 59.6646 4.57612 59.1917 4.8799 58.734C4.97104 58.5967 5.06217 58.4747 5.15331 58.3374C5.38115 58.017 5.60899 57.6967 5.83683 57.3916C5.85202 57.3611 5.86721 57.3458 5.89759 57.3153C5.92796 57.2695 5.97353 57.239 6.00391 57.1932C6.56591 56.4762 7.15829 55.7897 7.81143 55.1337C7.81143 55.1337 7.84181 55.1032 7.857 55.088C7.857 55.088 7.857 55.088 7.87219 55.088C8.44938 54.5083 9.05695 53.9591 9.6949 53.4251C9.77085 53.3641 9.81642 53.3031 9.89236 53.2421C9.95312 53.1963 10.0139 53.1505 10.0746 53.1048C10.5911 52.6929 11.1075 52.281 11.6543 51.9148L17.1984 48.0552C16.6516 48.4366 16.1351 48.8332 15.6187 49.2451C15.4972 49.3519 15.3757 49.4587 15.239 49.5655C14.601 50.0994 13.9935 50.6486 13.4163 51.2283C13.4011 51.2436 13.3859 51.2741 13.3555 51.2893C12.7176 51.9453 12.11 52.6318 11.548 53.3488C11.5024 53.4099 11.4417 53.4709 11.3961 53.5472C11.1531 53.8675 10.9252 54.1879 10.6974 54.5083C10.6063 54.6303 10.5151 54.7524 10.424 54.8897C10.1202 55.3473 9.8316 55.8202 9.5582 56.2932C9.29998 56.7356 9.05695 57.1932 8.82911 57.6509C8.76836 57.7729 8.7076 57.9102 8.66203 58.0323C8.49495 58.3679 8.34306 58.7035 8.20635 59.0544C8.13041 59.2375 8.06965 59.4205 7.99371 59.6036C7.87219 59.9087 7.76586 60.1986 7.65954 60.5037C7.58359 60.702 7.53802 60.9156 7.46208 61.1139C7.38613 61.3733 7.295 61.6479 7.21905 61.9225C7.0064 62.7005 6.83932 63.509 6.71781 64.3176C6.68743 64.5464 6.64186 64.76 6.61148 64.9888C6.5811 65.1871 6.56591 65.4007 6.53553 65.599C6.50515 65.9194 6.47478 66.2398 6.45959 66.5449C6.45959 66.7432 6.42921 66.9415 6.42921 67.1398C6.42921 67.4907 6.42921 67.8416 6.42921 68.1925C6.42921 68.3603 6.42921 68.5281 6.42921 68.6959C6.42921 69.2146 6.47478 69.7485 6.52034 70.2825L0.976261 74.1421C0.930695 73.6082 0.90032 73.0742 0.88513 72.5556C0.88513 72.3877 0.88513 72.2199 0.88513 72.0521L0.900316 72.0674Z" fill="#269B56"/>
<path d="M6.53537 70.2981L0.991287 74.1577L60.5636 72.4186L66.1077 68.5742L6.53537 70.2981Z" fill="#1C653A"/>
<path d="M68.0694 3.55598C58.1596 3.847 50.935 12.3837 51.9008 22.6471C52.8667 32.9105 61.656 40.9621 71.5658 40.6711C81.4755 40.3801 88.7002 31.8434 87.7536 21.5994C86.8071 11.3554 77.9791 3.28435 68.0694 3.55598Z" fill="url(#paint2_linear_1_1734)"/>
<path d="M44.7926 25.1885C44.7926 24.9363 44.8313 24.6841 44.8506 24.4319C44.8892 24.0051 44.8892 23.5782 44.9472 23.1708C44.9472 23.0738 44.9858 22.9962 45.0051 22.8992C45.0631 22.5693 45.121 22.2589 45.1983 21.9485C45.2563 21.6381 45.3142 21.3082 45.3915 21.0172C45.4108 20.9008 45.4687 20.8038 45.4881 20.7068C45.604 20.3382 45.7199 19.9695 45.8551 19.6009C45.9903 19.2323 46.1062 18.8831 46.2607 18.5338C46.4153 18.1846 46.5891 17.8548 46.763 17.5055C46.8789 17.2727 46.9948 17.0011 47.1107 16.7683C47.1687 16.6713 47.2266 16.5937 47.2846 16.5161C47.4971 16.1474 47.7482 15.7982 47.9993 15.4684C48.1538 15.255 48.2697 15.0222 48.4243 14.8281C48.4822 14.7505 48.5595 14.6923 48.6175 14.6147C48.772 14.4207 48.9652 14.2267 49.139 14.0327C49.3322 13.8193 49.506 13.5864 49.7185 13.373C49.8344 13.2566 49.9697 13.1596 50.0856 13.0432C50.2401 12.888 50.414 12.7522 50.5685 12.597C50.7037 12.4806 50.8389 12.3447 50.9742 12.2089C51.3219 11.9373 51.6696 11.6657 52.0366 11.4135L59.0874 6.50488C58.5658 6.87351 58.0829 7.26154 57.6193 7.68838C57.4454 7.84359 57.2909 7.9794 57.1364 8.13461C56.808 8.44503 56.4989 8.77486 56.1898 9.12409C56.016 9.3181 55.8421 9.51212 55.6682 9.70613C55.4558 9.97776 55.2626 10.2688 55.0501 10.5598C54.799 10.909 54.5672 11.2583 54.3354 11.6269C54.1422 11.9373 53.9877 12.2865 53.8138 12.6164C53.6399 12.9462 53.4661 13.2954 53.3115 13.6446C53.157 13.9939 53.0411 14.3625 52.9059 14.7117C52.7707 15.0804 52.6354 15.4296 52.5389 15.8176C52.423 16.225 52.3264 16.6519 52.2491 17.0787C52.1911 17.3891 52.1139 17.719 52.0559 18.0294C51.9787 18.5338 51.94 19.0383 51.9014 19.5427C51.9014 19.7949 51.8434 20.0471 51.8434 20.2994C51.8241 21.0754 51.8434 21.8709 51.9207 22.6663C51.9207 22.8604 51.9787 23.035 51.998 23.229C52.0752 23.8304 52.1718 24.4319 52.307 25.0139C52.365 25.2856 52.423 25.5378 52.5002 25.8094C52.5968 26.1586 52.6934 26.5273 52.8093 26.8765C52.9059 27.1675 53.0025 27.4391 53.0991 27.7301C53.1956 28.0018 53.3115 28.2928 53.4275 28.5644C53.5434 28.8554 53.6786 29.1465 53.8331 29.4375C53.949 29.6897 54.0649 29.9225 54.2001 30.1747C54.3547 30.4658 54.5092 30.7374 54.6831 31.0284C54.8183 31.2612 54.9535 31.494 55.1081 31.7075C55.2819 31.9791 55.4751 32.2313 55.6489 32.5029C55.8035 32.7357 55.9773 32.9492 56.1512 33.182C56.3444 33.4148 56.5375 33.6476 56.7307 33.861C56.9432 34.1132 57.1557 34.3461 57.3682 34.5789C57.542 34.7729 57.7352 34.9475 57.9284 35.1415C58.2181 35.4131 58.5079 35.7042 58.7976 35.9564C58.9715 36.1116 59.1647 36.2668 59.3385 36.4026C59.8408 36.8101 60.3623 37.1981 60.8839 37.5473C60.9998 37.6249 61.0964 37.7025 61.2123 37.7801C61.3089 37.8383 61.4248 37.8965 61.5214 37.9741C61.8884 38.1876 62.2554 38.401 62.6225 38.595C62.777 38.6726 62.9315 38.7502 63.0861 38.8278C63.4531 39.0024 63.8008 39.1576 64.1872 39.3129C64.3224 39.3711 64.4576 39.4293 64.6121 39.4875C65.1144 39.6815 65.6359 39.8561 66.1575 40.0113C66.2348 40.0307 66.3121 40.0501 66.3893 40.0695C66.8336 40.1859 67.2779 40.3023 67.7415 40.3799C67.9154 40.4187 68.0892 40.4381 68.2438 40.4575C68.6301 40.5157 69.0358 40.574 69.4221 40.6128C69.596 40.6128 69.7505 40.6516 69.9244 40.6516C70.4846 40.6904 71.0255 40.7098 71.5857 40.6904C74.9855 40.5934 78.0569 39.5263 80.6068 37.7607L73.556 42.6693C71.0061 44.4349 67.9347 45.5019 64.5349 45.5989C63.9747 45.5989 63.4145 45.5989 62.8736 45.5601C62.6997 45.5601 62.5452 45.5213 62.3713 45.5213C61.9657 45.4825 61.5793 45.4437 61.193 45.3661C61.0191 45.3467 60.8453 45.3079 60.6907 45.2885C60.2271 45.1915 59.7828 45.0945 59.3385 44.9781C59.2613 44.9587 59.184 44.9393 59.1067 44.9199C58.5852 44.7647 58.0829 44.5901 57.5613 44.396C57.4261 44.3378 57.2909 44.2796 57.1364 44.2214C56.7693 44.0662 56.4023 43.911 56.0353 43.7364C55.8807 43.6588 55.7262 43.5812 55.5717 43.5036C55.2046 43.3096 54.8183 43.0961 54.4706 42.8827C54.374 42.8245 54.2581 42.7663 54.1615 42.6887C54.1229 42.6693 54.1036 42.6499 54.0649 42.6305C53.9876 42.5723 53.9104 42.5141 53.8331 42.4559C53.2922 42.1067 52.79 41.7186 52.2877 41.3112C52.2105 41.2336 52.1139 41.1948 52.0173 41.1172C51.9207 41.0396 51.8241 40.9426 51.7275 40.865C51.4185 40.5934 51.1287 40.3217 50.8583 40.0501C50.7424 39.9337 50.6071 39.8367 50.4912 39.7203C50.414 39.6427 50.356 39.5651 50.2981 39.4875C50.0856 39.2547 49.8731 39.0218 49.6606 38.7696C49.5254 38.6144 49.3901 38.4786 49.2549 38.3234C49.197 38.2458 49.139 38.1682 49.0811 38.0906C48.9072 37.8771 48.7527 37.6443 48.5981 37.4309C48.4822 37.2563 48.347 37.1011 48.2311 36.9265C48.1732 36.8295 48.1152 36.7324 48.0573 36.6354C47.922 36.422 47.7675 36.1892 47.6323 35.9564C47.5357 35.7818 47.4198 35.6266 47.3232 35.4714C47.2652 35.3549 47.2073 35.2191 47.1493 35.1027C47.0141 34.8699 46.8982 34.6177 46.7823 34.3655C46.705 34.2103 46.6278 34.055 46.5505 33.8998C46.4926 33.764 46.4346 33.6282 46.3767 33.473C46.2608 33.2014 46.1448 32.9298 46.0483 32.6387C45.9903 32.4835 45.9324 32.3477 45.8744 32.1925C45.8358 32.0567 45.7971 31.9209 45.7585 31.7851C45.6426 31.4358 45.546 31.0866 45.4494 30.718C45.4108 30.5628 45.3528 30.4076 45.3142 30.2329C45.2949 30.1359 45.2756 30.0195 45.2563 29.9225C45.121 29.3405 45.0244 28.739 44.9472 28.1376C44.9472 28.0212 44.9085 27.9048 44.8892 27.7883C44.8892 27.7107 44.8892 27.6525 44.8699 27.5749C44.7926 26.7795 44.7733 25.984 44.7926 25.2079V25.1885Z" fill="#269B56"/>
<path d="M68.2244 48.1409C47.3038 48.7423 31.7728 64.4188 33.5306 83.1412L109.293 80.9489C107.535 62.2264 89.145 47.5394 68.2244 48.1409Z" fill="url(#paint3_linear_1_1734)"/>
<path d="M26.3646 85.391C26.3646 84.9448 26.3646 84.4791 26.3646 84.0329C26.3646 83.7807 26.3839 83.5285 26.4032 83.2763C26.4225 82.8688 26.4612 82.4614 26.4998 82.054C26.5191 81.8017 26.5578 81.5301 26.5964 81.2779C26.6157 81.0839 26.635 80.9093 26.6543 80.7153C26.6543 80.6182 26.693 80.5212 26.7123 80.4242C26.8861 79.3959 27.0793 78.3871 27.3498 77.3782C27.3498 77.32 27.3498 77.2812 27.3884 77.223C27.4657 76.932 27.5623 76.6409 27.6588 76.3499C27.7361 76.0977 27.8134 75.8261 27.91 75.5738C28.0452 75.1858 28.1804 74.8172 28.3349 74.4292C28.4315 74.1963 28.5088 73.9635 28.6054 73.7307C28.7792 73.2845 28.9917 72.8576 29.1849 72.4308C29.2622 72.2756 29.3394 72.101 29.4167 71.9458C29.7065 71.3637 29.9962 70.8011 30.3246 70.2384C30.3246 70.2384 30.3246 70.2384 30.3246 70.219C30.6723 69.6176 31.0394 69.0161 31.4257 68.4341C31.5416 68.2595 31.6575 68.1043 31.7734 67.9297C32.0632 67.5222 32.3529 67.1148 32.6427 66.7268C32.662 66.688 32.6813 66.6685 32.72 66.6297C32.7586 66.5715 32.8165 66.5327 32.8552 66.4745C33.5699 65.5627 34.3233 64.6896 35.1539 63.8553C35.1539 63.8553 35.1926 63.8165 35.2119 63.7971C35.2119 63.7971 35.2119 63.7971 35.2312 63.7971C35.9653 63.0599 36.7379 62.3614 37.5493 61.6824C37.6459 61.6048 37.7038 61.5271 37.8004 61.4495C37.8777 61.3913 37.9549 61.3331 38.0322 61.2749C38.689 60.7511 39.3458 60.2272 40.0412 59.7616L47.092 54.853C46.3966 55.3381 45.7398 55.8425 45.083 56.3663C44.9284 56.5022 44.7739 56.638 44.6001 56.7738C43.7887 57.4528 43.016 58.1513 42.282 58.8885C42.2627 58.9079 42.2434 58.9467 42.2047 58.9661C41.3934 59.8004 40.6207 60.6735 39.906 61.5854C39.848 61.663 39.7707 61.7406 39.7128 61.8376C39.4037 62.245 39.114 62.6524 38.8242 63.0599C38.7083 63.2151 38.5924 63.3703 38.4765 63.5449C38.0901 64.127 37.7231 64.7284 37.3754 65.3298C37.047 65.8925 36.7379 66.4745 36.4482 67.0566C36.3709 67.2118 36.2936 67.3864 36.2357 67.5416C36.0232 67.9685 35.83 68.3953 35.6562 68.8415C35.5596 69.0743 35.4823 69.3072 35.3857 69.54C35.2312 69.928 35.096 70.2966 34.9608 70.6847C34.8642 70.9369 34.8062 71.2085 34.7096 71.4607C34.613 71.7906 34.4971 72.1398 34.4006 72.489C34.1301 73.4785 33.9176 74.5068 33.7631 75.535C33.7245 75.8261 33.6665 76.0977 33.6279 76.3887C33.5892 76.6409 33.5699 76.9125 33.5313 77.1648C33.4926 77.5722 33.454 77.9796 33.4347 78.3677C33.4347 78.6199 33.3961 78.8721 33.3961 79.1243C33.3961 79.5706 33.3961 80.0168 33.3961 80.463C33.3961 80.6764 33.3961 80.8899 33.3961 81.1033C33.3961 81.7629 33.454 82.442 33.512 83.121L26.4612 88.0296C26.4032 87.3506 26.3646 86.6715 26.3453 86.0119C26.3453 85.7984 26.3453 85.585 26.3453 85.3716L26.3646 85.391Z" fill="#269B56"/>
<path d="M33.531 83.1411L26.4802 88.0497L102.242 85.8379L109.293 80.9487L33.531 83.1411Z" fill="#1C653A"/>
<path d="M21.972 31.5865C21.972 31.5865 21.3705 33.9266 21.3759 34.4908C21.3814 35.0549 21.0114 36.1124 22.5345 36.7309C22.5345 36.7309 24.3046 37.3736 24.7901 37.428C24.7901 37.428 22.9281 36.9742 22.4161 36.9747C21.9041 36.9751 20.8875 36.8445 20.2111 38.9459L19.5676 41.2542C19.5676 41.2542 20.1374 38.8087 20.1695 38.3118C20.2016 37.8149 20.4834 36.6317 18.8759 36.0503L16.8728 35.4367C16.8728 35.4367 18.4931 35.8895 19.4715 35.8703C20.45 35.8512 21.166 34.7354 21.972 31.5865Z" fill="#33B568" stroke="#33B568" stroke-width="0.49391" stroke-miterlimit="10"/>
<circle cx="39.228" cy="1.44985" r="1.12172" fill="white"/>
<circle cx="26.3313" cy="58.1227" r="1.12172" fill="#33B568"/>
<circle cx="33.8712" cy="95.4445" r="1.12172" fill="white"/>
<circle cx="108.877" cy="73.2332" r="0.623337" fill="white"/>
<circle cx="79.2317" cy="2.15006" r="1.81266" fill="#33B568"/>
<path d="M92.3554 9.82144C92.3554 9.82144 91.0366 14.9519 91.0486 16.1888C91.0605 17.4256 90.2492 19.7439 93.5886 21.1C93.5886 21.1 97.4694 22.5091 98.5339 22.6284C98.5339 22.6284 94.4515 21.6335 93.329 21.6344C92.2065 21.6354 89.9778 21.3491 88.4948 25.9563L87.0839 31.0169C87.0839 31.0169 88.3331 25.6555 88.4035 24.5661C88.4739 23.4766 89.0918 20.8825 85.5675 19.6078L81.1758 18.2625C81.1758 18.2625 84.7282 19.2553 86.8733 19.2133C89.0185 19.1714 90.5883 16.7251 92.3554 9.82144Z" fill="white" stroke="white" stroke-width="0.49391" stroke-miterlimit="10"/>
<defs>
<linearGradient id="paint0_linear_1_1734" x1="34.9526" y1="8.50867" x2="34.9526" y2="36.9091" gradientUnits="userSpaceOnUse">
<stop offset="0.4375" stop-color="#D4F938"/>
<stop offset="1" stop-color="#32D875" stop-opacity="0.96"/>
</linearGradient>
<linearGradient id="paint1_linear_1_1734" x1="36.0121" y1="43.5123" x2="36.0121" y2="70.2979" gradientUnits="userSpaceOnUse">
<stop offset="0.4375" stop-color="#D4F938"/>
<stop offset="1" stop-color="#32D875" stop-opacity="0.96"/>
</linearGradient>
<linearGradient id="paint2_linear_1_1734" x1="69.6712" y1="4.5595" x2="69.6712" y2="40.6783" gradientUnits="userSpaceOnUse">
<stop offset="0.4375" stop-color="#D4F938"/>
<stop offset="1" stop-color="#32D875" stop-opacity="0.96"/>
</linearGradient>
<linearGradient id="paint3_linear_1_1734" x1="71.0187" y1="49.0758" x2="71.0187" y2="83.1408" gradientUnits="userSpaceOnUse">
<stop offset="0.4375" stop-color="#D4F938"/>
<stop offset="1" stop-color="#32D875" stop-opacity="0.96"/>
</linearGradient>
</defs>
</svg>
