<svg width="108" height="101" viewBox="0 0 108 101" fill="none" xmlns="http://www.w3.org/2000/svg">
<path d="M106.539 62.7434C106.669 62.2358 106.791 61.7282 106.901 61.2167C106.917 61.1542 106.929 61.0878 106.941 61.0253C107.039 60.5685 107.13 60.1078 107.216 59.6431C107.24 59.5065 107.267 59.3659 107.291 59.2292C107.381 58.706 107.468 58.1828 107.543 57.6518C108.818 48.6088 107.393 39.9328 103.871 32.3657L101.596 27.4811C102.418 29.2499 103.123 31.085 103.713 32.9631C103.646 32.8186 103.587 32.6742 103.52 32.5297L101.246 27.6412C101.332 27.8286 101.411 28.0199 101.497 28.2073C101.627 28.4924 101.757 28.7774 101.879 29.0663C101.942 29.2147 101.997 29.367 102.06 29.5154C102.194 29.8473 102.332 30.1752 102.462 30.511C102.505 30.6282 102.548 30.7492 102.592 30.8664C102.729 31.2373 102.867 31.6043 102.993 31.9792C103.084 32.2447 103.166 32.5102 103.249 32.7757C103.324 33.0061 103.402 33.2364 103.473 33.4668C103.552 33.7206 103.619 33.9783 103.69 34.236C103.761 34.4859 103.835 34.7319 103.898 34.9818C103.961 35.2121 104.012 35.4503 104.068 35.6807C104.134 35.9579 104.209 36.2351 104.272 36.5124C104.339 36.8091 104.398 37.1137 104.457 37.4143C104.5 37.633 104.552 37.8477 104.591 38.0664C104.67 38.492 104.741 38.9215 104.807 39.351C104.823 39.4486 104.843 39.5423 104.855 39.636C104.906 39.9679 104.945 40.3037 104.985 40.6356C105.008 40.8308 105.04 41.0261 105.063 41.2252C105.103 41.5649 105.13 41.9085 105.162 42.2521C105.177 42.4434 105.201 42.6348 105.217 42.83C105.248 43.2673 105.272 43.7046 105.292 44.1419C105.296 44.2434 105.303 44.345 105.311 44.4465C105.323 44.7784 105.327 45.1142 105.335 45.45C105.335 45.6608 105.347 45.8678 105.351 46.0786C105.351 46.3012 105.343 46.5237 105.343 46.7463C105.343 47.0704 105.343 47.3944 105.331 47.7224C105.323 48.0114 105.303 48.3042 105.288 48.5971C105.276 48.8587 105.268 49.1203 105.248 49.3819C105.229 49.6942 105.193 50.0066 105.166 50.3229C105.095 51.1233 105.008 51.9238 104.898 52.732C104.823 53.2591 104.737 53.7823 104.646 54.3056C104.622 54.4422 104.599 54.5789 104.571 54.7155C104.485 55.1841 104.394 55.6526 104.292 56.1134C104.28 56.168 104.268 56.2227 104.256 56.2813C104.142 56.7928 104.02 57.2965 103.894 57.8041C103.863 57.9329 103.827 58.0618 103.792 58.1906C103.678 58.624 103.56 59.0535 103.434 59.4791C103.406 59.5689 103.383 59.6626 103.355 59.7524C103.312 59.8969 103.265 60.0375 103.221 60.178C103.15 60.4045 103.08 60.6271 103.009 60.8535C102.958 61.0058 102.906 61.1581 102.855 61.3104C102.784 61.5212 102.71 61.7321 102.639 61.9429C102.584 62.0991 102.525 62.2553 102.47 62.4115C102.395 62.6145 102.32 62.8214 102.241 63.0245C102.182 63.1807 102.119 63.3368 102.06 63.493C101.982 63.6961 101.899 63.8952 101.82 64.0943C101.757 64.2505 101.694 64.4028 101.627 64.5551C101.545 64.7542 101.458 64.9533 101.372 65.1525C101.305 65.3048 101.238 65.457 101.171 65.6054C101.08 65.8045 100.99 66.0037 100.895 66.2028C100.828 66.3473 100.758 66.4957 100.691 66.6401C100.592 66.8432 100.494 67.0462 100.392 67.2492C100.325 67.3859 100.254 67.5265 100.187 67.6631C100.14 67.7568 100.088 67.8505 100.041 67.9482C99.8208 68.3777 99.5925 68.8033 99.3603 69.225C99.3092 69.3148 99.2619 69.4046 99.2108 69.4944C98.9471 69.9629 98.6755 70.4237 98.4 70.8844C98.341 70.982 98.278 71.0835 98.2189 71.1812C97.9592 71.6028 97.6955 72.0167 97.4239 72.4306C97.3885 72.4853 97.3491 72.5438 97.3137 72.6024C97.0146 73.0514 96.7076 73.4966 96.3967 73.9339C96.3219 74.0393 96.2471 74.1408 96.1723 74.2463C95.8811 74.6484 95.5859 75.0467 95.2828 75.4411C95.2632 75.4684 95.2435 75.4957 95.2238 75.523C94.905 75.9369 94.5744 76.3469 94.2398 76.753C94.1572 76.8545 94.0745 76.9521 93.9919 77.0536C93.6652 77.4441 93.3346 77.8307 93.0001 78.2094C92.9843 78.225 92.9725 78.2406 92.9607 78.2563C92.6104 78.6506 92.2523 79.0333 91.8941 79.4159C91.8075 79.5096 91.7209 79.5994 91.6304 79.6931C91.2486 80.0914 90.8629 80.4819 90.4693 80.8645C90.4339 80.8958 90.4024 80.9309 90.367 80.9621C89.997 81.3214 89.6153 81.6767 89.2335 82.0281C89.1469 82.1062 89.0603 82.1843 88.9737 82.2624C88.5723 82.6255 88.163 82.9847 87.7497 83.3361C87.671 83.4025 87.5923 83.4689 87.5135 83.5313C87.1318 83.8515 86.7461 84.1639 86.3564 84.4723C86.258 84.5504 86.1596 84.6324 86.0612 84.7066C85.5338 85.1166 84.9986 85.5149 84.4554 85.9053C84.3964 85.9483 84.3374 85.9912 84.2783 86.0342C83.7627 86.4012 83.2353 86.7604 82.704 87.1118C82.6174 87.1665 82.5348 87.2251 82.4482 87.2797C81.9247 87.6194 81.3973 87.9513 80.862 88.2715C80.7676 88.3262 80.6771 88.3808 80.5826 88.4394C80.0434 88.7596 79.4963 89.0719 78.9453 89.3726C78.8508 89.4234 78.7564 89.4741 78.6619 89.5249C78.2447 89.7513 77.8236 89.97 77.3985 90.1847C77.3159 90.2238 77.2372 90.2668 77.1545 90.3097C76.6743 90.5479 76.1902 90.7782 75.7022 91.0008C75.592 91.0516 75.4779 91.1023 75.3637 91.1531C74.9111 91.3561 74.4506 91.5592 73.9901 91.7505C73.939 91.7739 73.8878 91.7934 73.8327 91.8169C73.3328 92.0238 72.8291 92.219 72.3213 92.4104C72.2033 92.4572 72.0813 92.5002 71.9593 92.5431C71.4437 92.7344 70.9281 92.918 70.4085 93.0898C70.4046 93.0898 70.4007 93.0898 70.3928 93.0937C69.8772 93.2655 69.3537 93.4256 68.8303 93.5817C68.7083 93.6169 68.5823 93.6559 68.4603 93.6911C67.9369 93.8433 67.4134 93.9878 66.886 94.1245C66.827 94.1401 66.7679 94.1518 66.705 94.1674C66.2209 94.2885 65.7328 94.4056 65.2408 94.511C65.1188 94.5384 64.9968 94.5657 64.8748 94.593C64.3435 94.7063 63.8082 94.8117 63.2729 94.9093C63.1785 94.9249 63.084 94.9405 62.9935 94.9561C62.5173 95.0381 62.0371 95.1162 61.5569 95.1865C61.4428 95.2021 61.3326 95.2217 61.2184 95.2373C60.6792 95.3115 60.1361 95.3778 59.589 95.4364C59.4749 95.4481 59.3607 95.4598 59.2466 95.4716C58.7586 95.5184 58.2705 95.5614 57.7825 95.5965C57.688 95.6043 57.5936 95.6121 57.4991 95.616C56.9481 95.6512 56.3971 95.6785 55.8421 95.6941C55.7162 95.698 55.5863 95.7019 55.4604 95.7058C54.9448 95.7175 54.4331 95.7254 53.9136 95.7215C53.8506 95.7215 53.7916 95.7215 53.7286 95.7215C53.1658 95.7175 52.603 95.698 52.0401 95.6746C51.9063 95.6707 51.7725 95.6629 51.6387 95.6551C51.068 95.6277 50.4934 95.5926 49.9188 95.5418C49.5252 95.5067 49.1355 95.4716 48.7419 95.4286C48.616 95.413 48.4901 95.3974 48.3641 95.3857C48.1004 95.3544 47.8367 95.3232 47.5769 95.288C47.4274 95.2685 47.2818 95.2451 47.1322 95.2256C46.8961 95.1904 46.656 95.1592 46.4198 95.1201C46.2663 95.0967 46.1089 95.0694 45.9554 95.046C45.7232 95.0069 45.4949 94.9679 45.2666 94.9249C45.1131 94.8976 44.9596 94.8702 44.8101 94.839C44.5739 94.7961 44.3417 94.7492 44.1095 94.6984C43.9678 94.6672 43.8222 94.6399 43.6805 94.6086C43.4286 94.554 43.1728 94.4954 42.9209 94.4368C42.8028 94.4095 42.6808 94.3822 42.5627 94.3548C42.1928 94.265 41.8267 94.1752 41.4607 94.0776C41.4528 94.0776 41.445 94.0737 41.4371 94.0698C41.0789 93.9761 40.7247 93.8746 40.3705 93.7731C40.2524 93.7379 40.1343 93.7028 40.0123 93.6676C39.7722 93.5974 39.5322 93.5232 39.2921 93.449C39.1543 93.406 39.0166 93.3592 38.8788 93.3162C38.6584 93.2459 38.4419 93.1718 38.2255 93.0976C38.0838 93.0507 37.9421 93 37.8004 92.9492C37.5879 92.875 37.3753 92.7969 37.1667 92.7188C37.0251 92.6681 36.8873 92.6173 36.7495 92.5626C36.5331 92.4806 36.3205 92.3986 36.108 92.3127C35.9781 92.262 35.8443 92.2112 35.7144 92.1566C35.4822 92.0629 35.25 91.9652 35.0178 91.8637C34.9115 91.8169 34.8053 91.7739 34.699 91.7271C34.3605 91.5787 34.026 91.4303 33.6954 91.278C33.6836 91.2741 33.6718 91.2663 33.6599 91.2624C33.3411 91.114 33.0223 90.9618 32.7114 90.8095C32.6012 90.7548 32.4949 90.7002 32.3887 90.6455C32.1722 90.5362 31.9557 90.4268 31.7393 90.3136C31.6133 90.2472 31.4913 90.1808 31.3654 90.1145C31.1686 90.009 30.9718 89.9036 30.775 89.7943C30.6491 89.724 30.5192 89.6537 30.3932 89.5795C30.2004 89.4702 30.0115 89.3609 29.8225 89.2516C29.6966 89.1774 29.5746 89.1071 29.4486 89.0329C29.2558 88.9197 29.0629 88.8025 28.874 88.6854C28.7559 88.6151 28.6379 88.5409 28.5237 88.4667C28.3151 88.334 28.1105 88.2012 27.9019 88.0685C27.8074 88.006 27.7129 87.9474 27.6185 87.885C27.3194 87.6858 27.0242 87.4867 26.729 87.2797C26.7133 87.268 26.6975 87.2563 26.6818 87.2446C26.4063 87.0494 26.1307 86.8541 25.8592 86.655C25.7647 86.5847 25.6703 86.5144 25.5797 86.4442C25.3869 86.2997 25.194 86.1552 25.0051 86.0107C24.8949 85.9288 24.7886 85.8429 24.6824 85.757C24.5092 85.6203 24.336 85.4836 24.1668 85.347C24.0566 85.2572 23.9464 85.1674 23.8362 85.0737C23.6709 84.937 23.5056 84.7964 23.3403 84.6598C23.2301 84.5661 23.1238 84.4763 23.0175 84.3825C22.8522 84.2381 22.6869 84.0936 22.5216 83.9452C22.4193 83.8554 22.3209 83.7656 22.2186 83.6758C22.0375 83.5118 21.8604 83.3478 21.6833 83.1799C21.6006 83.1057 21.5219 83.0276 21.4393 82.9535C20.0972 81.6767 18.8377 80.3179 17.6688 78.8927C15.3466 76.0541 13.3827 72.9343 11.832 69.6037L14.1069 74.4883C14.1816 74.6484 14.2604 74.8046 14.3351 74.9608C13.2685 73.2974 12.3121 71.5638 11.4738 69.7638L13.7487 74.6484C20.4042 88.9353 34.5455 99.2941 52.1464 100.79C52.725 100.84 53.2996 100.875 53.8742 100.903C54.008 100.911 54.1458 100.915 54.2796 100.922C54.8464 100.946 55.4131 100.965 55.9799 100.969C56.0389 100.969 56.098 100.969 56.157 100.969C56.6805 100.969 57.2 100.969 57.7195 100.954C57.8494 100.954 57.9793 100.95 58.1052 100.942C58.6641 100.922 59.2191 100.899 59.774 100.864C59.8685 100.856 59.959 100.848 60.0534 100.844C60.5454 100.809 61.0374 100.766 61.5294 100.719C61.6474 100.708 61.7616 100.696 61.8797 100.684C62.4267 100.626 62.9738 100.559 63.5209 100.485C63.6311 100.469 63.7452 100.454 63.8554 100.434C64.3356 100.364 64.8158 100.29 65.2959 100.204C65.3943 100.188 65.4927 100.173 65.5911 100.153C66.1303 100.056 66.6695 99.9501 67.2009 99.8369C67.3229 99.8095 67.4409 99.7822 67.563 99.7588C68.0471 99.6534 68.5312 99.5401 69.0113 99.4191C69.0822 99.3996 69.153 99.3839 69.2239 99.3683C69.7552 99.2317 70.2826 99.0872 70.8061 98.9349C70.932 98.8998 71.054 98.8607 71.176 98.8256C71.6837 98.6733 72.1915 98.5171 72.6952 98.3492C72.7189 98.3414 72.7425 98.3336 72.7661 98.3258C73.2896 98.154 73.8051 97.9666 74.3207 97.7792C74.4427 97.7323 74.5648 97.6894 74.6868 97.6425C75.1984 97.4512 75.7101 97.252 76.2139 97.0451C76.2493 97.0295 76.2886 97.0139 76.3241 96.9982C76.8003 96.7991 77.2726 96.5961 77.7409 96.3852C77.859 96.3345 77.9732 96.2798 78.0873 96.229C78.5793 96.0026 79.0673 95.7722 79.5514 95.534C79.6223 95.4989 79.6931 95.4637 79.7639 95.4247C80.1969 95.206 80.6259 94.9835 81.0549 94.7531C81.1179 94.718 81.1848 94.6867 81.2517 94.6516C81.2871 94.6321 81.3186 94.6125 81.354 94.593C81.9286 94.2807 82.4954 93.9566 83.0543 93.6247C83.1448 93.57 83.2353 93.5193 83.3259 93.4646C83.8808 93.1288 84.4318 92.7852 84.975 92.4299C85.0615 92.3713 85.1481 92.3167 85.2387 92.2581C85.7818 91.8989 86.321 91.5279 86.8523 91.1492C86.9271 91.0945 87.0019 91.0399 87.0806 90.9852C87.6198 90.5947 88.1511 90.1965 88.6746 89.7865C88.6943 89.7709 88.71 89.7592 88.7297 89.7474C88.7769 89.7084 88.8242 89.6693 88.8714 89.6303C89.265 89.3179 89.6546 89.0017 90.0364 88.6815C90.1151 88.6151 90.1938 88.5526 90.2686 88.4863C90.6858 88.1309 91.0991 87.7717 91.5045 87.4047C91.591 87.3266 91.6776 87.2485 91.7642 87.1665C92.1499 86.8112 92.5356 86.452 92.9095 86.0849C92.941 86.0537 92.9725 86.0225 93.004 85.9951C93.4015 85.6086 93.7912 85.2103 94.1729 84.812C94.2162 84.7652 94.2635 84.7222 94.3067 84.6754C94.35 84.6285 94.3933 84.5817 94.4366 84.5348C94.7987 84.1483 95.1608 83.7617 95.5111 83.3674C95.5268 83.3478 95.5426 83.3283 95.5583 83.3127C95.8968 82.9339 96.2274 82.5435 96.5541 82.153C96.6367 82.0515 96.7233 81.9539 96.806 81.8524C97.1405 81.4463 97.4711 81.0324 97.7939 80.6146C97.8175 80.5834 97.8411 80.5521 97.8647 80.5209C98.1678 80.1265 98.463 79.7283 98.7542 79.3261C98.7936 79.2675 98.8408 79.2129 98.8801 79.1582C98.9156 79.1114 98.9471 79.0606 98.9785 79.0137C99.2934 78.5725 99.6043 78.1235 99.9035 77.6706C99.9428 77.612 99.9782 77.5534 100.018 77.4949C100.289 77.081 100.557 76.6632 100.817 76.2376C100.88 76.14 100.939 76.0385 101.002 75.9408C101.281 75.4801 101.557 75.0116 101.82 74.5391C101.871 74.4454 101.923 74.3517 101.974 74.2619C102.21 73.8363 102.438 73.4068 102.662 72.9734C102.694 72.9148 102.725 72.8601 102.753 72.8016C102.773 72.7664 102.788 72.7313 102.804 72.6961C102.875 72.5595 102.942 72.4189 103.013 72.2783C103.115 72.0753 103.213 71.8684 103.316 71.6653C103.387 71.5169 103.454 71.3686 103.524 71.2241C103.619 71.025 103.709 70.8219 103.8 70.6228C103.867 70.4705 103.934 70.3182 104.005 70.1621C104.091 69.9629 104.178 69.7638 104.264 69.5647C104.331 69.4085 104.394 69.2523 104.461 69.0922C104.544 68.8931 104.622 68.69 104.705 68.487C104.768 68.3308 104.827 68.1707 104.89 68.0106C104.969 67.8076 105.044 67.6007 105.118 67.3976C105.177 67.2414 105.233 67.0813 105.292 66.9213C105.366 66.7104 105.437 66.4996 105.508 66.2887C105.559 66.1325 105.614 65.9763 105.665 65.8202C105.736 65.6015 105.807 65.3789 105.874 65.1603C105.921 65.0119 105.969 64.8596 106.012 64.7113C106.024 64.6761 106.035 64.641 106.043 64.6058C106.063 64.5356 106.083 64.4692 106.102 64.3989C106.224 63.9772 106.342 63.5555 106.453 63.1338C106.488 63.005 106.52 62.8761 106.555 62.7434H106.539Z" fill="#33B568"/>
<path d="M63.0894 1.71118C76.6167 2.84742 88.1093 9.12208 95.7605 18.3603C103.408 27.5947 107.214 39.7809 105.36 52.7363C103.506 65.6917 96.3469 76.9564 86.2712 84.707C76.1917 92.4498 63.1956 96.6745 49.6683 95.5383C36.1409 94.402 24.6444 88.1235 16.9972 78.8931C9.34596 69.6548 5.54004 57.4686 7.3938 44.5132C9.24756 31.5578 16.4107 20.2892 26.4864 12.5464C36.566 4.7958 49.5581 0.574951 63.0894 1.71118Z" fill="#F2FFBD"/>
<path d="M62.4901 5.88777C74.8134 6.92287 85.2831 12.6391 92.2533 21.055C99.2199 29.4675 102.687 40.569 100.998 52.3714C99.3096 64.1737 92.7875 74.4358 83.6087 81.4965C74.4262 88.5502 62.5869 92.3989 50.2635 91.3638C37.9402 90.3287 27.4669 84.6089 20.5003 76.2001C13.5301 67.7841 10.0629 56.6825 11.7517 44.8802C13.4405 33.0779 19.9661 22.8122 29.1449 15.7586C38.3274 8.69784 50.1631 4.85267 62.4901 5.88777Z" fill="url(#paint0_linear_1_1148)"/>
<path d="M52.9044 68.5498L55.0239 40.0627L48.5741 43.3102L49.2219 34.6036L55.6946 31.0485L62.6732 31.5677L59.8829 69.0691L52.9044 68.5498Z" fill="#33B568"/>
<g opacity="0.7">
<path fill-rule="evenodd" clip-rule="evenodd" d="M70.0325 80.0701C70.6976 79.4688 71.347 78.8479 71.9413 78.1529C72.7246 77.5868 73.8266 76.4974 74.7594 74.4787C75.7158 72.4093 75.9913 68.6453 75.9913 68.6453C75.9913 68.6453 71.1581 72.7138 70.9731 77.6414C70.9613 77.985 70.9495 78.2193 70.9456 78.3794C70.4142 78.8636 69.8672 79.3243 69.3162 79.7733C66.014 82.4909 60.9132 83.6232 60.9132 83.6232C60.9132 83.6232 61.7043 83.8341 62.5151 84.3651C64.4948 83.8731 67.4506 82.0419 69.0052 80.9057C69.1745 81.3469 69.9852 83.0102 72.5356 82.8579C74.2359 82.7525 77.2822 80.7963 77.2822 80.7963C77.2822 80.7963 73.925 77.5555 70.0364 80.0701H70.0325Z" fill="#33B568"/>
<path fill-rule="evenodd" clip-rule="evenodd" d="M76.3894 76.1071C75.7282 76.8333 75.6377 76.9309 75.6298 76.9387C75.6298 76.9426 76.8263 78.6685 79.8529 77.4541C81.6122 76.7474 84.3358 73.94 84.3358 73.94C84.3358 73.94 79.8923 72.2532 76.3934 76.1071H76.3894Z" fill="#33B568"/>
<path fill-rule="evenodd" clip-rule="evenodd" d="M76.975 73.4519C77.16 74.2797 77.1797 74.3968 77.1836 74.4085C77.1875 74.4046 79.3129 73.0341 80.1827 69.3209C80.6865 67.1694 80.0725 63.7725 80.0725 63.7725C80.0725 63.7725 75.995 69.071 76.9789 73.4519H76.975Z" fill="#33B568"/>
<path fill-rule="evenodd" clip-rule="evenodd" d="M82.2767 70.1601C81.7611 71.0347 81.6863 71.1518 81.6785 71.1636C81.6824 71.1636 83.3472 72.2451 86.2283 70.0898C87.9049 68.8364 90.0853 65.4043 90.0853 65.4043C90.0853 65.4043 85.02 65.5292 82.2767 70.1601Z" fill="#33B568"/>
<path fill-rule="evenodd" clip-rule="evenodd" d="M82.6978 68.383C82.6978 68.383 84.5988 66.4151 84.6145 62.8581C84.6224 60.7964 83.1583 58.0437 83.1583 58.0437C83.1583 58.0437 80.1671 64.1427 82.2491 67.6255C82.6427 68.2854 82.6899 68.3752 82.6939 68.3869L82.6978 68.383Z" fill="#33B568"/>
<path fill-rule="evenodd" clip-rule="evenodd" d="M87.0154 62.8408C86.6848 63.7896 86.6376 63.9184 86.6297 63.9341C86.6336 63.9341 88.6409 64.2816 91.1441 61.3649C92.6003 59.6703 94.0605 55.8906 94.0605 55.8906C94.0605 55.8906 88.7747 57.8156 87.0154 62.8447" fill="#33B568"/>
<path fill-rule="evenodd" clip-rule="evenodd" d="M87.0303 61.1371C87.0303 61.1371 88.5455 58.7357 87.7033 55.616C87.2113 53.8082 85.0072 51.9222 85.0072 51.9222C85.0072 51.9222 83.3542 58.3297 86.3769 60.6295C86.9476 61.0629 87.0224 61.1253 87.0303 61.1332" fill="#33B568"/>
<path fill-rule="evenodd" clip-rule="evenodd" d="M90.2115 54.7465C90.0935 55.6953 90.0738 55.8241 90.0738 55.8358C90.0777 55.8358 92.266 55.4219 94.1867 51.9742C95.3005 49.975 95.9067 46.1486 95.9067 46.1486C95.9067 46.1486 90.8295 49.7173 90.2115 54.7425" fill="#33B568"/>
<path fill-rule="evenodd" clip-rule="evenodd" d="M89.1096 48.5135C88.2516 47.0025 85.5949 45.8975 85.5949 45.8975C85.5949 45.8975 85.0832 52.1838 88.6727 53.4411C89.3496 53.6793 89.4402 53.7144 89.448 53.7183C89.448 53.7105 90.5776 51.114 89.1056 48.5135H89.1096Z" fill="#33B568"/>
<path fill-rule="evenodd" clip-rule="evenodd" d="M91.7107 47.5299C91.7107 47.5299 93.9108 46.3859 95.0797 42.6882C95.7567 40.5446 95.4497 36.9875 95.4497 36.9875C95.4497 36.9875 91.0023 41.9112 91.5887 46.5225C91.6989 47.3933 91.7107 47.5143 91.7107 47.526V47.5299Z" fill="#33B568"/>
<path fill-rule="evenodd" clip-rule="evenodd" d="M89.8522 46.2427C90.6118 46.2427 90.7142 46.2427 90.726 46.2466C90.726 46.2387 91.3478 43.5641 89.2422 41.7016C88.0182 40.624 84.9994 40.4678 84.9994 40.4678C84.9994 40.4678 85.822 46.2505 89.8562 46.2427H89.8522Z" fill="#33B568"/>
<path fill-rule="evenodd" clip-rule="evenodd" d="M91.393 39.6859C91.393 39.6859 93.416 37.9054 93.7308 34.2586C93.9119 32.1462 92.7075 29.1436 92.7075 29.1436C92.7075 29.1436 89.2716 35.0239 91.0191 38.8503C91.3497 39.5727 91.389 39.6742 91.393 39.6859Z" fill="#33B568"/>
<path fill-rule="evenodd" clip-rule="evenodd" d="M83.1227 35.3836C83.1227 35.3836 84.9686 40.5142 89.1681 39.5107C89.9631 39.3233 90.0694 39.2999 90.0812 39.2999C90.0812 39.2921 90.2701 36.6721 87.7551 35.4773C86.2949 34.7823 83.1227 35.3836 83.1227 35.3836Z" fill="#33B568"/>
<path fill-rule="evenodd" clip-rule="evenodd" d="M88.5278 32.3421C89.0512 32.8575 89.1181 32.9317 89.126 32.9395C89.1299 32.9356 90.8027 30.6631 90.228 27.3676C89.8935 25.4544 87.8862 23.2522 87.8862 23.2522C87.8862 23.2522 85.753 29.6128 88.5278 32.3421Z" fill="#33B568"/>
<path fill-rule="evenodd" clip-rule="evenodd" d="M87.822 33.4329C87.822 33.4329 87.8102 30.8676 85.1417 29.9813C83.591 29.4659 80.3912 30.3991 80.3912 30.3991C80.3912 30.3991 82.6819 35.1744 86.905 33.7414C87.704 33.472 87.8102 33.4407 87.822 33.4368" fill="#33B568"/>
<path fill-rule="evenodd" clip-rule="evenodd" d="M84.8291 28.6238C85.5848 28.6707 85.6832 28.6824 85.695 28.6863C85.695 28.6785 86.4153 26.0039 84.4001 23.9813C83.2273 22.8099 80.24 22.4585 80.24 22.4585C80.24 22.4585 80.8304 28.3739 84.8291 28.6238Z" fill="#33B568"/>
</g>
<g opacity="0.7">
<path fill-rule="evenodd" clip-rule="evenodd" d="M24.783 76.0132C24.783 76.0132 27.1484 77.9694 28.8132 78.0749C31.3085 78.231 32.6939 76.5677 33.0206 76.1226C34.1777 77.2588 36.4998 79.0861 38.3064 79.582C39.3061 79.051 40.168 78.8402 40.168 78.8402C40.168 78.8402 35.4608 77.7078 33.1032 74.9902C32.7097 74.5412 32.32 74.0805 31.9579 73.5963C32.0052 73.4362 32.0799 73.2019 32.1862 72.8583C33.7133 67.9268 30.2931 63.8622 30.2931 63.8622C30.2931 63.8622 29.2619 67.6301 29.4981 69.6956C29.7303 71.7143 30.4545 72.8037 31.0409 73.3698C31.3912 74.0648 31.828 74.6896 32.2807 75.287C29.2658 72.7724 24.783 76.0132 24.783 76.0132Z" fill="#33B568"/>
<path fill-rule="evenodd" clip-rule="evenodd" d="M20.1163 69.1569C20.1163 69.1569 21.8638 71.9643 23.3752 72.6711C25.9807 73.8854 27.7715 72.1635 27.7754 72.1557C27.7675 72.1478 27.7124 72.0502 27.3031 71.324C25.1424 67.4702 20.1163 69.1569 20.1163 69.1569Z" fill="#33B568"/>
<path fill-rule="evenodd" clip-rule="evenodd" d="M27.9093 58.9841C27.9093 58.9841 26.1146 62.3811 25.8706 64.5325C25.4494 68.2458 27.0985 69.6124 27.1025 69.6202C27.1104 69.6085 27.1694 69.4914 27.6417 68.6636C30.1449 64.2826 27.9093 58.9841 27.9093 58.9841Z" fill="#33B568"/>
<path fill-rule="evenodd" clip-rule="evenodd" d="M23.4858 65.3726C22.3523 60.7418 17.3302 60.6168 17.3302 60.6168C17.3302 60.6168 18.3181 64.0529 19.5618 65.3023C21.695 67.4576 23.7338 66.3761 23.7377 66.3761C23.7338 66.3644 23.7023 66.2472 23.4897 65.3726" fill="#33B568"/>
<path fill-rule="evenodd" clip-rule="evenodd" d="M24.391 62.8377C27.6813 59.3548 26.8115 53.2559 26.8115 53.2559C26.8115 53.2559 24.391 56.0086 23.6825 58.0702C22.4663 61.6273 23.6786 63.5913 23.6825 63.5952C23.6904 63.5874 23.773 63.4937 24.3949 62.8338L24.391 62.8377Z" fill="#33B568"/>
<path fill-rule="evenodd" clip-rule="evenodd" d="M21.289 58.0559C21.2811 53.0268 16.6644 51.1018 16.6644 51.1018C16.6644 51.1018 16.8101 54.8853 17.6759 56.576C19.1676 59.4967 21.2929 59.1492 21.2969 59.1452C21.2969 59.1296 21.2929 59.0047 21.289 58.052" fill="#33B568"/>
<path fill-rule="evenodd" clip-rule="evenodd" d="M21.8672 56.3501C21.8672 56.3501 21.9735 56.2798 22.6937 55.8464C26.5154 53.5427 27.0861 47.1392 27.0861 47.1392C27.0861 47.1392 24.2287 49.0251 23.1109 50.8329C21.1863 53.9487 21.8633 56.3462 21.8672 56.354" fill="#33B568"/>
<path fill-rule="evenodd" clip-rule="evenodd" d="M20.907 49.9573C22.0365 44.9321 18.1991 41.3633 18.1991 41.3633C18.1991 41.3633 17.4789 45.1859 17.8961 47.1889C18.6203 50.6328 20.6629 51.0466 20.6669 51.0506C20.6669 51.0388 20.6944 50.91 20.907 49.9612" fill="#33B568"/>
<path fill-rule="evenodd" clip-rule="evenodd" d="M22.0247 48.9353C22.0247 48.9353 22.1389 48.8962 22.8985 48.658C26.9248 47.4008 28.5975 41.1144 28.5975 41.1144C28.5975 41.1144 25.5551 42.2194 24.1737 43.7305C21.7964 46.3309 22.0247 48.9275 22.0247 48.9353Z" fill="#33B568"/>
<path fill-rule="evenodd" clip-rule="evenodd" d="M22.3826 41.7393C24.5669 37.128 21.8355 32.2043 21.8355 32.2043C21.8355 32.2043 20.2927 35.7614 20.2257 37.905C20.1116 41.5988 21.9063 42.7428 21.9103 42.7467C21.9142 42.735 21.9693 42.614 22.3786 41.7432L22.3826 41.7393Z" fill="#33B568"/>
<path fill-rule="evenodd" clip-rule="evenodd" d="M31.0741 35.682C31.0741 35.682 28.0003 35.8382 26.4023 36.9159C23.6512 38.7783 23.3403 41.453 23.3403 41.4608C23.3521 41.4608 23.4544 41.453 24.214 41.4569C28.2403 41.4647 31.0741 35.682 31.0741 35.682Z" fill="#33B568"/>
<path fill-rule="evenodd" clip-rule="evenodd" d="M25.6194 34.0651C28.6972 30.2386 27.3 24.3583 27.3 24.3583C27.3 24.3583 25.0566 27.357 24.5016 29.4733C23.5492 33.1163 24.9503 34.8928 24.9542 34.9006C24.9621 34.8889 25.0369 34.7874 25.6194 34.0651Z" fill="#33B568"/>
<path fill-rule="evenodd" clip-rule="evenodd" d="M34.7176 30.5988C34.7176 30.5988 31.7579 30.0014 30.0537 30.6925C27.1254 31.8912 26.4052 34.5073 26.4012 34.5151C26.4131 34.5151 26.5114 34.5385 27.2396 34.7259C31.0888 35.7255 34.7176 30.5988 34.7176 30.5988Z" fill="#33B568"/>
<path fill-rule="evenodd" clip-rule="evenodd" d="M30.3745 27.5564C34.0977 24.8271 34.1725 18.4666 34.1725 18.4666C34.1725 18.4666 31.4056 20.6687 30.4059 22.582C28.686 25.8814 29.5716 28.1499 29.5716 28.1538C29.5794 28.146 29.6739 28.0718 30.3784 27.5564" fill="#33B568"/>
<path fill-rule="evenodd" clip-rule="evenodd" d="M30.696 28.6496C30.696 28.6496 30.8023 28.6848 31.5068 28.9542C35.234 30.3872 39.1816 25.6119 39.1816 25.6119C39.1816 25.6119 36.3046 24.6826 34.5767 25.1941C31.6013 26.0804 30.7 28.6379 30.696 28.6457" fill="#33B568"/>
<path fill-rule="evenodd" clip-rule="evenodd" d="M35.36 23.836C39.4414 23.5822 42.0863 17.6707 42.0863 17.6707C42.0863 17.6707 38.977 18.0221 37.3988 19.1934C34.6831 21.216 34.4745 23.8907 34.4705 23.8985C34.4823 23.8985 34.5847 23.8867 35.3561 23.836" fill="#33B568"/>
</g>
<path d="M94.7809 4.32353C94.7809 4.32353 93.3959 9.71117 93.4085 11.01C93.4211 12.3088 92.5691 14.7434 96.0759 16.1674C96.0759 16.1674 100.151 17.6472 101.269 17.7725C101.269 17.7725 96.9821 16.7277 95.8033 16.7286C94.6245 16.7296 92.284 16.4291 90.7268 21.2671L89.2451 26.5814C89.2451 26.5814 90.5569 20.9513 90.6308 19.8072C90.7048 18.6632 91.3536 15.9391 87.6527 14.6005L83.0409 13.1877C83.0409 13.1877 86.7713 14.2302 89.024 14.1862C91.2767 14.1422 92.9252 11.5733 94.7809 4.32353Z" fill="#33B568" stroke="#33B568" stroke-width="0.49391" stroke-miterlimit="10"/>
<path d="M8.13611 71.8563C8.13611 71.8563 7.50441 74.3137 7.51014 74.9061C7.51587 75.4985 7.12728 76.609 8.7268 77.2585C8.7268 77.2585 10.5856 77.9335 11.0955 77.9906C11.0955 77.9906 9.14011 77.5141 8.60245 77.5145C8.06478 77.5149 6.99725 77.3779 6.28695 79.5846L5.61112 82.0085C5.61112 82.0085 6.20947 79.4405 6.2432 78.9187C6.27693 78.3969 6.57288 77.1544 4.88481 76.5438L2.78127 75.8994C2.78127 75.8994 4.4828 76.3749 5.51028 76.3548C6.53777 76.3348 7.28969 75.163 8.13611 71.8563Z" fill="#33B568" stroke="#33B568" stroke-width="0.49391" stroke-miterlimit="10"/>
<ellipse cx="35.0251" cy="2.14694" rx="1.17795" ry="1.17795" fill="#33B568"/>
<ellipse cx="102.37" cy="83.3913" rx="1.90352" ry="1.90352" fill="#33B568"/>
<ellipse cx="6.42656" cy="69.1159" rx="0.503465" ry="0.503465" fill="#33B568"/>
<defs>
<linearGradient id="paint0_linear_1_1148" x1="56.7611" y1="8.05569" x2="56.7611" y2="91.5294" gradientUnits="userSpaceOnUse">
<stop offset="0.4375" stop-color="#D4F938"/>
<stop offset="1" stop-color="#32D875" stop-opacity="0.96"/>
</linearGradient>
</defs>
</svg>
