<svg width="105" height="91" viewBox="0 0 105 91" fill="none" xmlns="http://www.w3.org/2000/svg">
<path d="M52.5934 15.4009L52.6584 41.6734L61.8907 47.0311L61.8257 20.6941L52.5934 15.4009Z" fill="#14AB4C"/>
<path d="M61.8252 20.6943L61.8902 47.0313L84.1256 40.5762L84.0606 14.3037L61.8252 20.6943Z" fill="#0B7030"/>
<path d="M52.5934 15.401L61.8256 20.6942L84.061 14.3036L72.5532 26.9557L81.9805 32.378L97.1943 13.2708L85.8165 6.68652L52.5934 15.401Z" fill="#75EF81"/>
<path d="M72.5537 26.9556L72.6187 53.228L82.046 58.6504L81.981 32.3779L72.5537 26.9556Z" fill="#14AB4C"/>
<path d="M81.9801 32.3778L82.0452 58.6502L97.2589 39.543L97.1939 13.2705L81.9801 32.3778Z" fill="url(#paint0_linear_1_1644)"/>
<path d="M16.2488 31.8614L70.667 46.7082L79.1191 41.8669L24.7008 27.02L16.2488 31.8614Z" fill="#75EF81"/>
<path d="M16.2489 31.8613L16.3139 58.1983L70.7322 72.9807L70.6672 46.7082L16.2489 31.8613Z" fill="#14AB4C"/>
<path d="M70.6675 46.7081L70.7325 72.9805L79.1845 68.1392L79.1195 41.8667L70.6675 46.7081Z" fill="url(#paint1_linear_1_1644)"/>
<path d="M17.1592 56.9075L17.2243 83.2445L28.7321 70.5278L28.667 44.2554L17.1592 56.9075Z" fill="#0B7030"/>
<path d="M19.2401 38.833L3.96138 57.8757L15.3392 64.46L48.6273 55.8101L39.395 50.4523L17.1596 56.9074L28.6674 44.2553L19.2401 38.833Z" fill="#75EF81"/>
<path d="M3.96136 57.876L4.02638 84.213L15.4042 90.7327L15.3391 64.4602L3.96136 57.876Z" fill="#14AB4C"/>
<path d="M15.3396 64.46L15.4047 90.7324L48.7578 82.0825L48.6278 55.8101L15.3396 64.46Z" fill="url(#paint2_linear_1_1644)"/>
<path d="M93.7712 12.4379C93.7712 12.4379 91.6181 17.9134 91.4627 19.2784C91.3073 20.6434 90.0969 23.0882 93.5931 25.0382C93.5931 25.0382 97.6787 27.1205 98.8358 27.3972C98.8358 27.3972 94.4715 25.744 93.2341 25.592C91.9966 25.44 89.5789 24.8206 87.3162 29.6969L85.0711 35.0828C85.0711 35.0828 87.1789 29.3433 87.405 28.152C87.6312 26.9608 88.6659 24.1856 84.9549 22.3L80.2974 20.2185C80.2974 20.2185 84.0778 21.797 86.4481 22.0432C88.8183 22.2894 90.8822 19.8069 93.7712 12.4379Z" fill="white" stroke="white" stroke-width="0.103171" stroke-miterlimit="10"/>
<path d="M23.3728 63.4173C23.3728 63.4173 19.685 64.0497 18.8913 64.4148C18.0976 64.7799 16.369 64.9269 16.4599 67.4711C16.4599 67.4711 16.6731 70.3795 16.9037 71.1C16.9037 71.1 16.3654 68.1814 16.0404 67.4582C15.7155 66.735 15.2559 65.2158 11.8581 65.5913L8.18869 66.1442C8.18869 66.1442 12.0052 65.4001 12.7277 65.1307C13.4502 64.8613 15.3007 64.5099 15.1039 61.8701L14.702 58.6509C14.702 58.6509 15.0886 61.2273 15.7355 62.5978C16.3823 63.9683 18.4126 64.2732 23.3728 63.4173Z" fill="white" stroke="white" stroke-width="0.103171" stroke-miterlimit="10"/>
<ellipse cx="96.2508" cy="7.6074" rx="1.0085" ry="0.920879" fill="#14AB4C"/>
<ellipse cx="58.8959" cy="1.89568" rx="1.6538" ry="1.56755" fill="#0B7030"/>
<ellipse cx="53.1734" cy="73.9621" rx="0.58002" ry="0.578784" fill="#14AB4C"/>
<ellipse cx="1.41256" cy="39.4512" rx="0.912555" ry="0.920879" fill="#14AB4C"/>
<ellipse cx="93.7416" cy="72.4115" rx="1.95919" ry="1.78897" fill="#D8FF35"/>
<ellipse cx="40.1945" cy="16.4649" rx="1.2915" ry="1.17928" fill="#D5FA39"/>
<defs>
<linearGradient id="paint0_linear_1_1644" x1="89.685" y1="14.5052" x2="78.9077" y2="56.2011" gradientUnits="userSpaceOnUse">
<stop offset="0.4267" stop-color="#D4F938"/>
<stop offset="1" stop-color="#32D875" stop-opacity="0.96"/>
</linearGradient>
<linearGradient id="paint1_linear_1_1644" x1="74.9625" y1="42.7132" x2="66.1569" y2="70.4118" gradientUnits="userSpaceOnUse">
<stop offset="0.4267" stop-color="#D4F938"/>
<stop offset="1" stop-color="#32D875" stop-opacity="0.96"/>
</linearGradient>
<linearGradient id="paint2_linear_1_1644" x1="32.1919" y1="56.7602" x2="29.1044" y2="90.7106" gradientUnits="userSpaceOnUse">
<stop offset="0.4267" stop-color="#D4F938"/>
<stop offset="1" stop-color="#32D875" stop-opacity="0.96"/>
</linearGradient>
</defs>
</svg>
