<svg width="159" height="106" viewBox="0 0 159 106" fill="none" xmlns="http://www.w3.org/2000/svg">
<path opacity="0.2" d="M91.9656 54.2025C86.1148 50.8275 82.8149 46.2523 82.7911 41.475C82.7614 36.6977 86.0137 32.1225 91.8229 28.7475C97.632 25.3725 105.534 23.4771 113.781 23.4771C122.028 23.4771 129.948 25.3725 135.792 28.7475C141.637 32.1225 144.943 36.6977 144.973 41.475C145.003 46.2523 141.75 50.8275 135.935 54.2025C130.126 57.5775 122.23 59.4729 113.983 59.4729C105.736 59.4729 97.8163 57.5775 91.9656 54.2025Z" fill="white"/>
<path opacity="0.2" d="M81.0075 60.5662C105.385 74.6306 115.315 91.7135 103.209 98.7428L92.2511 105.107L4.02649 54.2025L14.9847 47.8387C27.0905 40.8095 56.6354 46.5018 81.0075 60.5662Z" fill="white"/>
<mask id="mask0_1_956" style="mask-type:luminance" maskUnits="userSpaceOnUse" x="79" y="18" width="10" height="33">
<path d="M88.9927 31.0291L88.9392 50.4056C83.0885 47.0306 79.7886 42.4554 79.7648 37.6781L79.8183 18.3016C79.8421 23.073 83.142 27.6541 88.9927 31.0291Z" fill="white"/>
</mask>
<g mask="url(#mask0_1_956)">
<path d="M88.9927 31.0291L88.9392 50.4056C83.0885 47.0306 79.7886 42.4554 79.7648 37.6781L79.8183 18.3016C79.8421 23.073 83.142 27.6541 88.9927 31.0291Z" fill="#1D974F"/>
</g>
<path d="M88.9927 31.0291C83.142 27.6542 79.842 23.0789 79.8183 18.3017C79.7885 13.5244 83.0409 8.94914 88.85 5.57415C94.6591 2.19917 102.561 0.303711 110.808 0.303711C119.055 0.303711 126.975 2.19917 132.82 5.57415C138.664 8.94914 141.97 13.5244 142 18.3017C142.03 23.0789 138.777 27.6542 132.962 31.0291C127.153 34.4041 119.257 36.2996 111.01 36.2996C102.763 36.2996 94.8434 34.4041 88.9927 31.0291Z" fill="url(#paint0_linear_1_956)"/>
<mask id="mask1_1_956" style="mask-type:luminance" maskUnits="userSpaceOnUse" x="88" y="18" width="55" height="38">
<path d="M142 18.3016L141.947 37.6781C141.976 42.4554 138.724 47.0306 132.909 50.4056C127.1 53.7806 119.204 55.676 110.957 55.676C102.71 55.676 94.7899 53.7806 88.9392 50.4056L88.9927 31.0291C94.8434 34.4041 102.763 36.2996 111.01 36.2996C119.257 36.2996 127.153 34.4041 132.962 31.0291C138.771 27.6541 142.024 23.0789 142 18.3016Z" fill="white"/>
</mask>
<g mask="url(#mask1_1_956)">
<path d="M142 18.3016L141.947 37.6781C141.952 39.1457 141.655 40.5896 141.067 41.9919L141.12 22.6154C141.709 21.2132 142.012 19.7693 142 18.3016Z" fill="#1D974F"/>
<path d="M141.12 22.6154L141.067 41.9919C139.735 45.153 136.94 48.0704 132.915 50.4056C127.106 53.7806 119.21 55.676 110.963 55.676C110.772 55.676 110.582 55.676 110.398 55.676L110.451 36.2996C110.642 36.2996 110.832 36.2996 111.016 36.2996C119.263 36.2996 127.159 34.4041 132.968 31.0291C136.994 28.688 139.794 25.7765 141.12 22.6154Z" fill="#1D974F"/>
<path d="M110.445 36.2936L110.392 55.6701C102.347 55.5869 94.6591 53.6974 88.9392 50.3996L88.9927 31.0232C94.7067 34.3209 102.401 36.2045 110.445 36.2936Z" fill="#1D974F"/>
</g>
<mask id="mask2_1_956" style="mask-type:luminance" maskUnits="userSpaceOnUse" x="100" y="67" width="6" height="28">
<path d="M105.397 67.2983L105.344 86.6748C105.332 90.0557 103.673 92.9197 100.189 94.9459L100.242 75.5694C103.733 73.5433 105.391 70.6793 105.397 67.2983Z" fill="white"/>
</mask>
<g mask="url(#mask2_1_956)">
<path d="M105.397 67.2983L105.344 86.6748C105.344 87.9107 105.118 89.0813 104.66 90.1686L104.714 70.7922C105.165 69.7107 105.391 68.5402 105.397 67.2983Z" fill="#36D068"/>
<path d="M104.714 70.7862L104.66 90.1626C103.875 92.0403 102.395 93.6565 100.183 94.9459L100.236 75.5694C102.448 74.286 103.923 72.6638 104.714 70.7862Z" fill="#36D068"/>
</g>
<path d="M78.0345 37.3929C102.413 51.4573 112.342 68.5402 100.236 75.5694L89.2781 81.9332L1.05353 31.0291L12.0117 24.6654C24.1175 17.6362 53.6624 23.3285 78.0345 37.3929Z" fill="url(#paint1_linear_1_956)"/>
<path d="M100.242 75.5695L100.183 94.9459L89.2305 101.304L89.284 81.9332L100.242 75.5695Z" fill="#36D068"/>
<path d="M89.284 81.9332L89.2305 101.304L1 50.3996L1.05351 31.0291L89.284 81.9332Z" fill="#1D974F"/>
<path d="M153.937 7.25075C153.937 7.25075 152.864 11.4197 152.874 12.4248C152.883 13.4298 152.223 15.3137 154.94 16.4156C154.94 16.4156 158.097 17.5607 158.963 17.6576C158.963 17.6576 155.642 16.8492 154.729 16.8499C153.816 16.8507 152.002 16.6181 150.796 20.3618L149.648 24.474C149.648 24.474 150.664 20.1174 150.722 19.2322C150.779 18.3469 151.282 16.2389 148.415 15.2031L144.842 14.1099C144.842 14.1099 147.732 14.9166 149.477 14.8826C151.222 14.8485 152.499 12.8607 153.937 7.25075Z" fill="#33B568" stroke="#33B568" stroke-width="0.277825" stroke-miterlimit="10"/>
<path d="M16.752 57.8674C16.752 57.8674 16.2626 59.7689 16.267 60.2274C16.2715 60.6858 15.9704 61.5451 17.2096 62.0477C17.2096 62.0477 18.6496 62.5699 19.0446 62.6142C19.0446 62.6142 17.5298 62.2454 17.1132 62.2457C16.6967 62.2461 15.8697 62.14 15.3194 63.8476L14.7959 65.7233C14.7959 65.7233 15.2594 63.7361 15.2855 63.3323C15.3117 62.9285 15.5409 61.9671 14.2332 61.4946L12.6036 60.996C12.6036 60.996 13.9218 61.3639 14.7177 61.3484C15.5137 61.3329 16.0962 60.4262 16.752 57.8674Z" fill="#33B568" stroke="#33B568" stroke-width="0.277825" stroke-miterlimit="10"/>
<ellipse cx="1.6653" cy="6.31379" rx="0.912551" ry="0.911504" fill="#33B568"/>
<ellipse cx="130.674" cy="92.9147" rx="1.47465" ry="1.47296" fill="#33B568"/>
<ellipse cx="71.5211" cy="2.85292" rx="2.55214" ry="2.54921" fill="#33B568"/>
<defs>
<linearGradient id="paint0_linear_1_956" x1="110.909" y1="0.303711" x2="110.909" y2="36.2996" gradientUnits="userSpaceOnUse">
<stop offset="0.1875" stop-color="#D4F938"/>
<stop offset="1" stop-color="#32D875" stop-opacity="0.96"/>
</linearGradient>
<linearGradient id="paint1_linear_1_956" x1="53.2237" y1="21.6535" x2="53.2237" y2="81.9332" gradientUnits="userSpaceOnUse">
<stop offset="0.1875" stop-color="#D4F938"/>
<stop offset="1" stop-color="#32D875" stop-opacity="0.96"/>
</linearGradient>
</defs>
</svg>
