<svg width="33" height="33" viewBox="0 0 33 33" fill="none" xmlns="http://www.w3.org/2000/svg">
<path d="M27.7933 3.15888H5.20664C4.95275 3.15535 4.70064 3.20187 4.46473 3.29579C4.22882 3.3897 4.01371 3.52917 3.83171 3.70623C3.6497 3.88328 3.50435 4.09446 3.40397 4.32769C3.30358 4.56092 3.25012 4.81165 3.24664 5.06554V27.9189C3.25012 28.1728 3.30358 28.4235 3.40397 28.6567C3.50435 28.89 3.6497 29.1011 3.83171 29.2782C4.01371 29.4552 4.22882 29.5947 4.46473 29.6886C4.70064 29.7825 4.95275 29.8291 5.20664 29.8255H27.7933C28.0472 29.8291 28.2993 29.7825 28.5352 29.6886C28.7711 29.5947 28.9862 29.4552 29.1682 29.2782C29.3503 29.1011 29.4956 28.89 29.596 28.6567C29.6964 28.4235 29.7498 28.1728 29.7533 27.9189V5.06554C29.7498 4.81165 29.6964 4.56092 29.596 4.32769C29.4956 4.09446 29.3503 3.88328 29.1682 3.70623C28.9862 3.52917 28.7711 3.3897 28.5352 3.29579C28.2993 3.20187 28.0472 3.15535 27.7933 3.15888ZM11.2866 25.4789H7.28664V13.4789H11.2866V25.4789ZM9.28664 11.7989C8.73499 11.7989 8.20594 11.5797 7.81586 11.1897C7.42579 10.7996 7.20664 10.2705 7.20664 9.71888C7.20664 9.16723 7.42579 8.63817 7.81586 8.2481C8.20594 7.85802 8.73499 7.63888 9.28664 7.63888C9.57957 7.60566 9.87621 7.63468 10.1571 7.72406C10.4381 7.81343 10.697 7.96113 10.9169 8.15749C11.1367 8.35386 11.3127 8.59445 11.4331 8.86352C11.5536 9.13259 11.6159 9.42407 11.6159 9.71888C11.6159 10.0137 11.5536 10.3052 11.4331 10.5742C11.3127 10.8433 11.1367 11.0839 10.9169 11.2803C10.697 11.4766 10.4381 11.6243 10.1571 11.7137C9.87621 11.8031 9.57957 11.8321 9.28664 11.7989ZM25.7133 25.4789H21.7133V19.0389C21.7133 17.4255 21.14 16.3722 19.6866 16.3722C19.2369 16.3755 18.7989 16.5166 18.4318 16.7764C18.0646 17.0363 17.786 17.4024 17.6333 17.8255C17.529 18.1389 17.4838 18.469 17.5 18.7989V25.4655H13.5V13.4655H17.5V15.1589C17.8634 14.5284 18.3919 14.0089 19.0286 13.6565C19.6653 13.3041 20.3861 13.132 21.1133 13.1589C23.78 13.1589 25.7133 14.8789 25.7133 18.5722V25.4789Z" fill="#BBBBC3"/>
</svg>
