<svg width="33" height="33" viewBox="0 0 33 33" fill="none" xmlns="http://www.w3.org/2000/svg">
<path d="M27.7933 3.15888H5.20667C4.95278 3.15535 4.70067 3.20187 4.46476 3.29579C4.22885 3.3897 4.01374 3.52917 3.83174 3.70623C3.64973 3.88328 3.50438 4.09446 3.404 4.32769C3.30361 4.56092 3.25015 4.81165 3.24667 5.06554V27.9189C3.25015 28.1728 3.30361 28.4235 3.404 28.6567C3.50438 28.89 3.64973 29.1011 3.83174 29.2782C4.01374 29.4552 4.22885 29.5947 4.46476 29.6886C4.70067 29.7825 4.95278 29.8291 5.20667 29.8255H27.7933C28.0472 29.8291 28.2993 29.7825 28.5353 29.6886C28.7712 29.5947 28.9863 29.4552 29.1683 29.2782C29.3503 29.1011 29.4956 28.89 29.596 28.6567C29.6964 28.4235 29.7499 28.1728 29.7533 27.9189V5.06554C29.7499 4.81165 29.6964 4.56092 29.596 4.32769C29.4956 4.09446 29.3503 3.88328 29.1683 3.70623C28.9863 3.52917 28.7712 3.3897 28.5353 3.29579C28.2993 3.20187 28.0472 3.15535 27.7933 3.15888ZM11.2867 25.4789H7.28667V13.4789H11.2867V25.4789ZM9.28667 11.7989C8.73502 11.7989 8.20597 11.5797 7.81589 11.1897C7.42582 10.7996 7.20667 10.2705 7.20667 9.71888C7.20667 9.16723 7.42582 8.63817 7.81589 8.2481C8.20597 7.85802 8.73502 7.63888 9.28667 7.63888C9.5796 7.60566 9.87624 7.63468 10.1572 7.72406C10.4381 7.81343 10.697 7.96113 10.9169 8.15749C11.1368 8.35386 11.3127 8.59445 11.4332 8.86352C11.5536 9.13259 11.6159 9.42407 11.6159 9.71888C11.6159 10.0137 11.5536 10.3052 11.4332 10.5742C11.3127 10.8433 11.1368 11.0839 10.9169 11.2803C10.697 11.4766 10.4381 11.6243 10.1572 11.7137C9.87624 11.8031 9.5796 11.8321 9.28667 11.7989ZM25.7133 25.4789H21.7133V19.0389C21.7133 17.4255 21.14 16.3722 19.6867 16.3722C19.2369 16.3755 18.7989 16.5166 18.4318 16.7764C18.0647 17.0363 17.786 17.4024 17.6333 17.8255C17.529 18.1389 17.4838 18.469 17.5 18.7989V25.4655H13.5V13.4655H17.5V15.1589C17.8634 14.5284 18.3919 14.0089 19.0286 13.6565C19.6653 13.3041 20.3861 13.132 21.1133 13.1589C23.78 13.1589 25.7133 14.8789 25.7133 18.5722V25.4789Z" fill="#BBBBC3"/>
</svg>
