<svg width="566" height="413" viewBox="0 0 566 413" fill="none" xmlns="http://www.w3.org/2000/svg">
<path d="M0 413.813L4.5 355.313L8 358.813L11.5 345.313L14.5 347.813L17 366.313L21.5 285.813L25 282.313L28 284.313L31 276.813L34.5 287.813L35.5 271.313L39.5 273.313L42.5 270.313L44 272.313L48.5 245.313L51 280.813L56.5 246.313L59 256.313L65 260.813L70 282.813L73 264.813L76 274.813L79 319.813L82.5 327.313L85.5 318.313L87 320.813H90L93.5 305.313L95.5 224.813L98.5 254.813L102 215.813L104 213.813L106.5 226.313L110 206.313L119.5 239.813L121 266.813L124.5 268.313L127 252.813L130 256.313L132.5 268.313L136 249.813L138 257.313L141 298.313H144.5L147.5 295.813H150L152.5 305.313L158 379.813L161.5 385.813L164.5 369.313L172 209.313L175 223.813L178.5 199.813L181 119.813L184 135.313L187 101.313L189 108.813L192 96.3135L195 124.813L198 91.3135L200.5 118.813H203.5L206.5 102.313L209 129.813L212 124.813L215.5 91.3135L218 101.313L221 87.3135H223.5L229.5 108.813L232.5 96.3135H235.5L240.5 104.813L243 103.313L246.5 91.8135L248.5 51.3135L252 35.3135L255 45.8135L256.5 31.3135L260.5 28.3135L263 33.3135H266L268.5 59.3135L272 31.3135L273.5 77.8135L279.5 126.813L283.5 107.813L286.5 116.313L289 118.813L291.5 93.8135L294 89.8135L297 57.8135L303 64.8135H306L307.5 100.813L310.5 82.8135L314 71.3135L317.5 76.8135L320 55.3135L328 112.813L334.5 114.813L337 134.813L341.5 140.813L348.5 129.813L350.5 132.813L354.5 122.313L356.5 139.313L359 136.813L361.5 131.313L364.5 141.813L367.5 139.313L371 126.313L373.5 157.313L379.5 142.313L382.5 138.313L385 99.8135L388.5 110.813L391 112.813L393 126.313L395 139.313L399 126.313L402 132.313L405 130.813L408 175.813L410 126.813L413.5 153.813L417 150.813L422 170.313H429.5L433.5 195.813L438.5 155.313L442.5 150.813L443.5 155.313L453 42.8135L456 46.8135L460 21.3135L463.5 29.8135L469 35.3135L469.5 22.3135L473 40.3135L484.5 24.3135L487 9.31348L494.5 45.8135L497.5 32.8135L504.5 38.3135L509.5 24.3135L511.5 32.8135L514.5 0.313477L518.5 33.8135L526.5 37.3135L529.5 48.3135L533.5 45.8135L534.5 50.3135L538 45.8135L540.5 49.3135L544 40.3135L546 67.8135L551.5 61.8135L555 65.8135L560.5 60.3135L566 66.8135L569.5 50.8135L572.5 67.8135L575 66.8135L580.5 71.3135L587 66.8135L589 49.3135L596 60.3135H601L602.5 65.8135L606.5 60.3135L612 81.3135L617 164.813L622 161.313L628.5 166.813L631 152.313L638.5 166.813L644.5 163.313L648 110.813L652 124.813L653.5 168.313L657 175.313L663.5 168.313L665 173.313L671 174.313L673.5 159.313L677 171.313H680.5L684.5 177.313" stroke="url(#paint0_linear_1_713)" stroke-width="2"/>
<defs>
<linearGradient id="paint0_linear_1_713" x1="684" y1="-74.6865" x2="4.07066e-05" y2="501.813" gradientUnits="userSpaceOnUse">
<stop stop-color="#D4F938"/>
<stop offset="1" stop-color="#33B568"/>
</linearGradient>
</defs>
</svg>
