<svg width="377" height="307" viewBox="0 0 377 307" fill="none" xmlns="http://www.w3.org/2000/svg">
<path d="M-287 306.313L-284 278.813L-281 300.813L-279 259.813L-275.5 253.813L-269.5 263.313L-268 289.813L-264.5 276.313L-261 286.813L-254.5 238.313L-246.5 230.313L-240.5 214.813V218.313L-233 207.813L-226.5 171.313L-222 180.813L-215.5 166.813L-212 175.313L-210.5 183.313L-207 152.313L-204.5 153.813L-201 146.813H-199.5L-192.5 157.313L-190.5 170.313L-188.5 161.813L-185 159.313L-182 138.813L-173.5 125.313L-171 111.813L-168 107.313L-165 118.813H-162.5L-156.5 130.813L-154 127.313L-151 139.813H-148.5L-141.5 122.813L-137.5 160.813L-134 145.813L-130 153.813L-126 171.313L-121.5 205.313L-117 173.813L-114 175.313L-110 167.813L-107.5 175.313L-102.5 162.813L-99.5 183.313L-96 192.313L-93.5 201.313L-91.5 176.813L-87.5 195.313L-84 201.313L-80 190.313L-76 196.813L-72 171.313L-65.5 184.313L-62 173.813H-59L-54 226.313L-51.5 219.813H-48.5L-45 226.313H-42L-40.5 201.313L-35 215.313L-33 198.813L-30.5 196.813L-26 202.813L-21.5 209.313L-17.5 184.313L-14.5 182.313L-5.5 205.313L-3.5 230.313L8 257.313L11.5 240.313L13.5 254.313L16.5 225.313L19 215.313L22 211.313L33 283.313L36 289.313H39.5L43 278.313L45.5 289.313L49.5 272.313L54.5 284.313L55.5 293.813L59 290.313L61.5 293.813L64.5 281.813L67.5 251.313L70.5 246.813L73 230.313L78.5 223.813L84 205.313L87.5 202.813L90 215.313L95.5 225.313H100.5L103.5 211.313L110 205.313L117.5 170.813L121 178.313L124 160.813L127 179.313L130 159.813H132.5L135 156.313L138 157.313L142 155.313L144.5 147.813L152.5 173.813L158.5 156.313L161 152.813L164.5 158.313L167 155.313L168 137.313L172 128.313L175 124.813L180 137.313L182 137.813L185.5 130.313L188 128.313L192.5 115.313L198.5 132.813L201 128.313L203.5 116.813L205.5 112.813L209 120.313L212 105.813L215 112.813L219.5 104.313L225 121.813L228.5 118.813L239.5 67.8135L242.5 55.3135L245.5 53.3135L249 44.8135L251.5 59.8135L255 55.3135L256.5 50.3135L260.5 54.8135L262.5 53.3135L269.5 24.3135L277.5 4.31348L280 22.3135L283 27.8135H285.5L287.5 19.8135L290.5 29.8135H294L297 22.3135H301L304 55.3135L308 44.8135L311.5 36.3135L313.5 38.3135L317.5 33.3135L322 50.3135H326L329 47.3135L334.5 63.3135L338 53.3135H340.5L343 49.3135L349 66.8135L353 58.8135H356L359.5 67.8135L363.5 42.8135L371.5 34.3135L375.5 17.3135" stroke="url(#paint0_linear_1_743)" stroke-width="2"/>
<defs>
<linearGradient id="paint0_linear_1_743" x1="375.016" y1="-50.4628" x2="-128.781" y2="512.241" gradientUnits="userSpaceOnUse">
<stop stop-color="#D4F938"/>
<stop offset="1" stop-color="#33B568"/>
</linearGradient>
</defs>
</svg>
